<?xml version="1.0" encoding="utf-8"?>
<!-- Generator: Adobe Illustrator 16.0.3, SVG Export Plug-In . SVG Version: 6.00 Build 0)  -->
<!DOCTYPE svg PUBLIC "-//W3C//DTD SVG 1.1//EN" "http://www.w3.org/Graphics/SVG/1.1/DTD/svg11.dtd">
<svg version="1.1" id="Capa_1" xmlns="http://www.w3.org/2000/svg" xmlns:xlink="http://www.w3.org/1999/xlink" x="0px" y="0px"
	 width="699px" height="646px" viewBox="0 0 699 646" enable-background="new 0 0 699 646" xml:space="preserve">
<radialGradient id="SVGID_1_" cx="2.6445" cy="-94.6226" r="0.5" gradientTransform="matrix(3.239988e-014 546.096 -524.019 3.342851e-014 -49293.3477 -1065.1019)" gradientUnits="userSpaceOnUse">
	<stop  offset="0" style="stop-color:#64ECF5"/>
	<stop  offset="1" style="stop-color:#64ECF5;stop-opacity:0"/>
</radialGradient>
<path opacity="0.25" fill="url(#SVGID_1_)" enable-background="new    " d="M227.837,134.788
	c44.037,2.003,48.041-2.003,112.096-20.037c6.007-2.003,23.22-6.412,44.037-8.015c26.022-2.003,38.032,18.033,54.047,28.051
	c16.015,10.018,22.02,14.025,28.023,52.095c6.005,38.069,0,50.091,44.038,88.161c44.037,38.069,64.054,76.139,8.006,130.236
	c-56.047,54.1-50.042,100.184-52.044,156.286c-2.002,56.102-44.038,84.153-102.087,70.127c-58.05-14.024-68.058-8.014-152.13,14.026
	s-100.085-10.016-100.085-70.126c0-60.111-38.032-80.146-48.041-116.213c-10.008-36.065,14.012-60.109-18.015-122.223
	c-32.027-62.113-14.013-94.172,8.007-110.202c22.019-16.029,56.048-18.033,86.074-54.099
	C169.787,136.792,183.799,132.784,227.837,134.788z"/>
<path opacity="0.05" fill="#1CEBBC" enable-background="new    " d="M330.573,25.167c34.028,28.051,64.054,42.077,124.104,48.087
	c6.006,0.601,21.23,1.741,28.024,4.008c18.016,6.011,12.011,16.029,48.041,28.051c36.029,12.022,52.045,40.073,42.036,94.172
	s20.017,62.113,10.009,126.23c-10.009,64.117-32.028,38.069-36.031,106.193s4.003,128.234-92.079,110.201
	s-66.056,50.092-150.128,24.044c-84.07-26.047-66.056,34.063-120.102,0c-54.046-34.062-44.038-42.077-100.085-72.132
	c-56.047-30.054,8.007-102.186-16.013-158.288c-24.021-56.103-42.036-100.183,0-118.216
	c42.036-18.033,110.094-56.102,138.117-136.249C234.491,1.124,296.544-2.884,330.573,25.167z"/>
<radialGradient id="SVGID_2_" cx="2.646" cy="-94.6128" r="0.5" gradientTransform="matrix(3.422565e-014 542.56 -567.465 3.238085e-014 -53360.0547 -1157.5001)" gradientUnits="userSpaceOnUse">
	<stop  offset="0" style="stop-color:#E751AF"/>
	<stop  offset="1" style="stop-color:#E751AF;stop-opacity:0"/>
</radialGradient>
<path opacity="0.2" fill="url(#SVGID_2_)" enable-background="new    " d="M61.294,263.097
	c27.792-34.252,41.601-64.401,47.197-124.55c0.56-6.015,1.595-21.262,3.813-28.078c5.882-18.073,15.932-12.13,27.696-48.277
	c11.766-36.147,39.681-52.366,93.793-42.716c54.112,9.651,61.915-20.458,126.036-10.875S398.079,40.4,466.163,43.945
	s128.079-4.878,110.717,91.417s50.49,65.779,25.04,150.107c-25.451,84.33,34.477,65.888,0.815,120.217
	c-33.662,54.329-41.735,44.365-71.382,100.67c-29.644,56.305-102.139-7.32-158.021,17.104
	c-55.883,24.427-99.797,42.759-118.098,0.805c-18.3-41.953-56.795-109.817-137.051-137.323
	C37.928,359.435,33.502,297.35,61.294,263.097z"/>
<radialGradient id="SVGID_3_" cx="2.6323" cy="-94.6016" r="0.5" gradientTransform="matrix(3.799954e-014 595.482 -627 3.633899e-014 -58975 -1263.1971)" gradientUnits="userSpaceOnUse">
	<stop  offset="0" style="stop-color:#5F45EA"/>
	<stop  offset="1" style="stop-color:#5F45EA;stop-opacity:0"/>
</radialGradient>
<path opacity="0.2" fill="url(#SVGID_3_)" enable-background="new    " d="M328.357,55.839
	c50.042-34.062,72.062-54.098,104.089-48.087c7.34,2.004,24.723,12.671,32.026,18.033c30.025,22.041,26.022,54.099,46.039,76.139
	c20.019,22.041,56.048,36.065,64.056,100.183c8.007,64.118,50.043,70.128,74.063,126.229
	c24.021,56.104-38.033,104.19-78.065,112.205c-40.034,8.017-50.043-12.021-114.099,60.11
	c-64.055,72.131-90.077,128.234-142.12,88.161c-52.046-40.074-82.07-20.037-126.108-48.088s-14.012-46.084-78.066-90.165
	c-64.055-44.08-40.033-58.106-46.039-100.183c-6.005-42.077-44.037-52.096-36.03-78.144c8.007-26.047,74.063-60.11,72.061-120.219
	c-2.001-60.11,22.02-86.158,58.049-82.15C194.243,73.873,278.315,89.901,328.357,55.839z"/>
<g>
	<ellipse fill="#E5E9ED" cx="350" cy="498.423" rx="190.073" ry="4.238"/>
	<g>
		<g>
			<path fill="#FFFFFF" stroke="#BEC8D2" stroke-miterlimit="10" d="M535.396,497.423c-8.429-17.762-41.68-33.909-21.702-56.335
				c19.979-22.426-43.674-47.512-14.48-68.54c32.162-23.166,15.532-56.225,36.183-56.225V497.423z"/>
			<path fill="#FFFFFF" stroke="#BEC8D2" stroke-miterlimit="10" d="M535.396,497.423c8.428-17.762,41.68-33.909,21.701-56.335
				s43.675-47.512,14.48-68.54c-32.162-23.166-15.532-56.225-36.182-56.225V497.423z"/>
		</g>
		<path fill="none" stroke="#BEC8D2" stroke-miterlimit="10" d="M535.396,484.924c0-24.945-27.987-29.787-27.987-29.787"/>
		<path fill="none" stroke="#BEC8D2" stroke-miterlimit="10" d="M535.396,430.749c0-27.211-26.671-48.025-43.979-46.532"/>
		<path fill="none" stroke="#BEC8D2" stroke-miterlimit="10" d="M535.396,379.142c0-28.149-14.054-42.142-14.054-42.142"/>
		<path fill="none" stroke="#BEC8D2" stroke-miterlimit="10" d="M535.396,484.924c0-24.945,27.986-29.787,27.986-29.787"/>
		<path fill="none" stroke="#BEC8D2" stroke-miterlimit="10" d="M535.396,430.749c0-27.211,26.67-48.025,43.979-46.532"/>
		<path fill="none" stroke="#BEC8D2" stroke-miterlimit="10" d="M535.396,379.142c0-28.149,14.053-42.142,14.053-42.142"/>
	</g>
	<g>
		<g>
			<path fill="#FFFFFF" stroke="#BEC8D2" stroke-miterlimit="10" d="M164.604,497.423c8.428-17.762,41.68-33.909,21.701-56.335
				s43.675-47.512,14.481-68.54c-32.162-23.166-15.532-56.225-36.182-56.225V497.423z"/>
			<path fill="#FFFFFF" stroke="#BEC8D2" stroke-miterlimit="10" d="M164.604,497.423c-8.428-17.762-41.68-33.909-21.702-56.335
				c19.979-22.426-43.674-47.512-14.48-68.54c32.162-23.166,15.532-56.225,36.182-56.225V497.423z"/>
		</g>
		<path fill="none" stroke="#BEC8D2" stroke-miterlimit="10" d="M164.604,484.924c0-24.945,27.987-29.787,27.987-29.787"/>
		<path fill="none" stroke="#BEC8D2" stroke-miterlimit="10" d="M164.604,430.749c0-27.211,26.67-48.025,43.979-46.532"/>
		<path fill="none" stroke="#BEC8D2" stroke-miterlimit="10" d="M164.604,379.142c0-28.149,14.053-42.142,14.053-42.142"/>
		<path fill="none" stroke="#BEC8D2" stroke-miterlimit="10" d="M164.604,484.924c0-24.945-27.987-29.787-27.987-29.787"/>
		<path fill="none" stroke="#BEC8D2" stroke-miterlimit="10" d="M164.604,430.749c0-27.211-26.67-48.025-43.979-46.532"/>
		<path fill="none" stroke="#BEC8D2" stroke-miterlimit="10" d="M164.604,379.142c0-28.149-14.053-42.142-14.053-42.142"/>
	</g>
	<path fill="#FFFFFF" stroke="#BEC8D2" stroke-miterlimit="10" d="M228.666,264.443c0-1.874-0.171-3.707-0.493-5.487
		c-0.198-1.097,0.325-2.195,1.29-2.752l4.297-2.481c1.275-0.737,1.712-2.368,0.976-3.643l-6.042-10.466
		c-0.736-1.275-2.368-1.712-3.643-0.976l-4.303,2.484c-0.965,0.558-2.179,0.46-3.029-0.259c-2.787-2.36-5.997-4.235-9.502-5.494
		c-1.047-0.376-1.735-1.38-1.735-2.492v-4.96c0-1.473-1.194-2.667-2.667-2.667H191.73c-1.473,0-2.667,1.194-2.667,2.667v4.96
		c0,1.112-0.688,2.116-1.735,2.492c-3.504,1.259-6.714,3.133-9.502,5.494c-0.85,0.72-2.064,0.817-3.029,0.259l-4.303-2.484
		c-1.276-0.736-2.907-0.299-3.644,0.976l-6.042,10.466c-0.736,1.276-0.299,2.907,0.976,3.644l4.297,2.481
		c0.965,0.557,1.488,1.656,1.29,2.752c-0.321,1.781-0.492,3.614-0.492,5.487s0.171,3.707,0.492,5.487
		c0.198,1.097-0.325,2.195-1.29,2.752l-4.297,2.481c-1.275,0.736-1.712,2.368-0.976,3.643l6.042,10.466
		c0.737,1.276,2.368,1.713,3.644,0.976l4.303-2.484c0.965-0.557,2.179-0.46,3.029,0.26c2.787,2.36,5.997,4.234,9.502,5.494
		c1.047,0.376,1.734,1.38,1.734,2.492v4.96c0,1.473,1.194,2.667,2.667,2.667h12.085c1.473,0,2.667-1.194,2.667-2.667v-4.96
		c0-1.112,0.688-2.116,1.735-2.492c3.505-1.259,6.714-3.133,9.502-5.494c0.85-0.72,2.064-0.817,3.029-0.26l4.304,2.485
		c1.275,0.736,2.907,0.299,3.643-0.977l6.042-10.466c0.736-1.275,0.299-2.907-0.976-3.643l-4.297-2.481
		c-0.965-0.557-1.488-1.656-1.29-2.752C228.495,268.149,228.666,266.316,228.666,264.443z M199.937,280.957
		c-10.892,1.372-20.051-7.787-18.678-18.679c0.935-7.421,6.928-13.414,14.349-14.35c10.892-1.373,20.052,7.787,18.679,18.679
		C213.351,274.029,207.358,280.021,199.937,280.957z"/>
	<path fill="#FFFFFF" stroke="#BEC8D2" stroke-miterlimit="10" d="M272.478,209.323c1.144-1.921,2.088-3.905,2.846-5.928
		c0.466-1.245,1.673-2.052,3.003-2.034l5.921,0.08c1.758,0.023,3.202-1.382,3.226-3.14l0.195-14.421
		c0.024-1.757-1.382-3.202-3.139-3.226l-5.93-0.08c-1.33-0.018-2.515-0.858-2.948-2.116c-1.417-4.122-3.563-8.004-6.388-11.435
		c-0.844-1.025-0.936-2.474-0.257-3.615l3.029-5.086c0.899-1.51,0.404-3.464-1.106-4.363l-12.392-7.38
		c-1.51-0.899-3.464-0.404-4.363,1.106l-3.029,5.086c-0.679,1.141-1.998,1.75-3.3,1.496c-4.363-0.849-8.798-0.888-13.098-0.169
		c-1.312,0.219-2.615-0.423-3.265-1.584l-2.896-5.175c-0.858-1.534-2.797-2.082-4.332-1.224l-12.587,7.042
		c-1.534,0.858-2.082,2.797-1.224,4.332l2.891,5.168c0.649,1.161,0.515,2.606-0.358,3.61c-1.417,1.629-2.712,3.405-3.856,5.326
		c-1.144,1.921-2.088,3.905-2.846,5.928c-0.467,1.245-1.674,2.052-3.003,2.034l-5.921-0.08c-1.757-0.024-3.202,1.382-3.226,3.14
		l-0.195,14.421c-0.024,1.758,1.382,3.202,3.14,3.226l5.929,0.08c1.33,0.018,2.516,0.858,2.948,2.116
		c1.417,4.122,3.563,8.004,6.388,11.435c0.844,1.025,0.936,2.474,0.257,3.615l-3.029,5.086c-0.899,1.51-0.404,3.463,1.106,4.363
		l12.392,7.38c1.51,0.899,3.464,0.404,4.363-1.106l3.029-5.086c0.679-1.141,1.998-1.75,3.301-1.496
		c4.362,0.849,8.798,0.887,13.097,0.169c1.312-0.219,2.615,0.423,3.265,1.583l2.896,5.176c0.858,1.534,2.797,2.082,4.332,1.224
		l12.587-7.042c1.534-0.858,2.082-2.797,1.224-4.332l-2.891-5.168c-0.649-1.161-0.515-2.606,0.358-3.61
		C270.039,213.019,271.333,211.244,272.478,209.323z M232.935,208.712c-12.006-5.244-15.805-20.229-7.746-30.559
		c5.491-7.038,15.295-9.523,23.476-5.951c12.006,5.244,15.805,20.229,7.746,30.559C250.92,209.8,241.115,212.285,232.935,208.712z"
		/>
	<path fill="#FFFFFF" stroke="#BEC8D2" stroke-miterlimit="10" d="M544.461,238.655c0-2.561-0.234-5.067-0.674-7.501
		c-0.271-1.499,0.444-3.001,1.764-3.763l5.874-3.392c1.743-1.007,2.341-3.236,1.334-4.98l-8.26-14.307
		c-1.007-1.744-3.237-2.341-4.98-1.334l-5.883,3.396c-1.319,0.762-2.979,0.629-4.142-0.355c-3.81-3.227-8.197-5.789-12.989-7.51
		c-1.431-0.514-2.371-1.887-2.371-3.407v-6.781c0-2.014-1.632-3.646-3.646-3.646h-16.521c-2.014,0-3.646,1.632-3.646,3.646v6.781
		c0,1.52-0.94,2.893-2.371,3.407c-4.791,1.721-9.179,4.283-12.989,7.51c-1.162,0.984-2.822,1.117-4.141,0.355l-5.883-3.396
		c-1.744-1.007-3.974-0.409-4.98,1.334l-8.261,14.307c-1.007,1.744-0.409,3.974,1.335,4.98l5.874,3.392
		c1.319,0.762,2.034,2.263,1.763,3.763c-0.439,2.435-0.673,4.94-0.673,7.501s0.233,5.067,0.673,7.501
		c0.271,1.499-0.443,3.001-1.763,3.763l-5.874,3.392c-1.744,1.007-2.342,3.236-1.335,4.98l8.261,14.307
		c1.007,1.744,3.236,2.341,4.98,1.334l5.882-3.396c1.319-0.762,2.979-0.629,4.142,0.355c3.811,3.227,8.198,5.789,12.989,7.51
		c1.431,0.514,2.371,1.886,2.371,3.406v6.781c0,2.014,1.633,3.646,3.646,3.646h16.521c2.014,0,3.646-1.632,3.646-3.646v-6.781
		c0-1.52,0.94-2.893,2.371-3.406c4.791-1.722,9.18-4.284,12.989-7.51c1.163-0.984,2.822-1.117,4.142-0.355l5.883,3.396
		c1.743,1.007,3.974,0.409,4.98-1.334l8.26-14.307c1.007-1.744,0.409-3.974-1.334-4.98l-5.874-3.392
		c-1.32-0.762-2.034-2.264-1.764-3.763C544.227,243.722,544.461,241.216,544.461,238.655z M505.187,261.23
		c-14.89,1.876-27.411-10.645-25.534-25.534c1.278-10.146,9.471-18.337,19.616-19.616c14.89-1.876,27.411,10.645,25.534,25.535
		C523.524,251.759,515.332,259.952,505.187,261.23z"/>
	<g>
		<g>
			<rect x="197.772" y="264.418" fill="#E5E9ED" width="304.456" height="195.164"/>
			<g>
				<rect x="197.772" y="272.236" fill="#BEC8D2" width="304.456" height="17.114"/>
				<g>
					<g>
						<path fill="#174159" d="M215.889,278.788l1.709,1.799v2.418h-3.419v-2.418L215.889,278.788 M215.889,277.583
							c-0.146,0-0.294,0.063-0.413,0.188l-2.075,2.183c-0.141,0.148-0.222,0.365-0.222,0.594v2.677c0,0.431,0.284,0.781,0.635,0.781
							h4.149c0.351,0,0.635-0.35,0.635-0.781v-2.677c0-0.229-0.081-0.445-0.222-0.594l-2.075-2.183
							C216.183,277.645,216.036,277.583,215.889,277.583L215.889,277.583z"/>
					</g>
					<g>
						<path fill="none" stroke="#174159" stroke-linecap="round" stroke-miterlimit="10" d="M223.94,282.642l2.395-1.542
							c0.274-0.176,0.274-0.437,0-0.613l-2.395-1.542"/>
						<path fill="none" stroke="#174159" stroke-linecap="round" stroke-miterlimit="10" d="M207.838,282.642l-2.395-1.542
							c-0.274-0.176-0.274-0.437,0-0.613l2.395-1.542"/>
					</g>
				</g>
				<g>
					<g>
						<path fill="#F2F2F2" d="M467.011,286.11H236.733c-1.438,0-2.604-1.166-2.604-2.603v-5.426c0-1.438,1.166-2.604,2.604-2.604
							h230.278c1.438,0,2.604,1.166,2.604,2.604v5.426C469.614,284.944,468.448,286.11,467.011,286.11z"/>
					</g>
					<rect x="313.079" y="279.188" fill="#BEC8D2" width="77.585" height="3.211"/>
					<g>
						<circle fill="none" stroke="#BEC8D2" stroke-miterlimit="10" cx="240.8" cy="280.794" r="2.271"/>
						
							<line fill="none" stroke="#BEC8D2" stroke-linecap="round" stroke-miterlimit="10" x1="242.406" y1="282.399" x2="243.77" y2="283.763"/>
					</g>
					<g>
						<path fill="none" stroke="#BEC8D2" stroke-linecap="round" stroke-miterlimit="10" d="M466.085,280.793
							c0,1.254-1.017,2.271-2.271,2.271c-1.255,0-2.271-1.017-2.271-2.271s1.017-2.271,2.271-2.271"/>
						<polygon fill="none" stroke="#BEC8D2" stroke-linecap="round" stroke-linejoin="round" stroke-miterlimit="10" points="
							463.814,277.888 465.022,278.704 463.814,279.521 						"/>
					</g>
				</g>
				<polygon fill="none" stroke="#174159" stroke-linecap="round" stroke-linejoin="round" stroke-miterlimit="10" points="
					479.392,277.573 480.19,280.033 482.777,280.033 480.685,281.554 481.484,284.014 479.392,282.494 477.298,284.014 
					478.098,281.554 476.005,280.033 478.592,280.033 				"/>
				<g>
					
						<line fill="none" stroke="#174159" stroke-linecap="round" stroke-linejoin="round" stroke-miterlimit="10" x1="488.246" y1="278.095" x2="496.696" y2="278.095"/>
					
						<line fill="none" stroke="#174159" stroke-linecap="round" stroke-linejoin="round" stroke-miterlimit="10" x1="488.246" y1="280.793" x2="496.696" y2="280.793"/>
					
						<line fill="none" stroke="#174159" stroke-linecap="round" stroke-linejoin="round" stroke-miterlimit="10" x1="488.246" y1="283.492" x2="496.696" y2="283.492"/>
				</g>
			</g>
			<polyline fill="none" stroke="#174159" stroke-width="0.75" stroke-miterlimit="10" points="502.228,264.418 502.228,459.582 
				197.772,459.582 			"/>
			<g>
				<rect x="197.772" y="264.418" fill="#174159" width="304.456" height="7.818"/>
				<g>
					<circle fill="#FAE54E" cx="203.873" cy="268.327" r="1.831"/>
					<circle fill="#2D80EA" cx="208.9" cy="268.327" r="1.831"/>
					<circle fill="#E148BE" cx="213.927" cy="268.327" r="1.831"/>
				</g>
			</g>
		</g>
		<g>
			<rect x="373.53" y="436.139" fill="#5620D8" width="105.251" height="11.898"/>
			<g>
				<g>
					<circle fill="#5620D8" cx="234.814" cy="311.5" r="13.872"/>
					<g>
						<rect x="255.592" y="305.678" fill="#BBA6EF" width="54.238" height="4.708"/>
						<rect x="255.592" y="312.616" fill="#BBA6EF" width="39.87" height="4.708"/>
					</g>
				</g>
				<g>
					<rect x="383.954" y="305.678" fill="#BEC8D2" width="27.119" height="4.708"/>
					<rect x="417.809" y="305.678" fill="#BEC8D2" width="27.118" height="4.708"/>
				</g>
				<line fill="none" stroke="#174159" stroke-miterlimit="10" x1="221.475" y1="330.587" x2="478.525" y2="330.587"/>
			</g>
			<g>
				<rect x="221.475" y="390.234" fill="#BBA6EF" width="88.355" height="7.107"/>
				<g>
					<rect x="221.475" y="404.156" fill="#BEC8D2" width="122.955" height="3.147"/>
					<rect x="221.475" y="410.249" fill="#BEC8D2" width="112.215" height="3.146"/>
					<rect x="221.475" y="416.341" fill="#BEC8D2" width="103.137" height="3.147"/>
					<rect x="221.475" y="422.433" fill="#BEC8D2" width="122.955" height="3.147"/>
				</g>
			</g>
			<g>
				<g>
					<g opacity="0.2">
						<path d="M259.1,449.037h-30.676c-3.286,0-5.949-2.664-5.949-5.949l0,0c0-3.286,2.664-5.949,5.949-5.949H259.1
							c3.286,0,5.949,2.663,5.949,5.949l0,0C265.049,446.373,262.386,449.037,259.1,449.037z"/>
					</g>
					<g>
						<path fill="#FAE54E" d="M258.1,448.037h-30.676c-3.286,0-5.949-2.664-5.949-5.949l0,0c0-3.286,2.664-5.949,5.949-5.949H258.1
							c3.286,0,5.949,2.663,5.949,5.949l0,0C264.049,445.373,261.386,448.037,258.1,448.037z"/>
					</g>
				</g>
				<g>
					<g opacity="0.2">
						<path d="M308.13,449.037h-30.676c-3.286,0-5.949-2.664-5.949-5.949l0,0c0-3.286,2.664-5.949,5.949-5.949h30.676
							c3.286,0,5.949,2.663,5.949,5.949l0,0C314.079,446.373,311.416,449.037,308.13,449.037z"/>
					</g>
					<g>
						<path fill="#174159" d="M307.13,448.037h-30.676c-3.286,0-5.949-2.664-5.949-5.949l0,0c0-3.286,2.664-5.949,5.949-5.949
							h30.676c3.286,0,5.949,2.663,5.949,5.949l0,0C313.079,445.373,310.416,448.037,307.13,448.037z"/>
					</g>
				</g>
			</g>
			<g>
				<g>
					<rect x="221.475" y="342.381" fill="#5620D8" width="17.952" height="17.952"/>
					
						<line fill="none" stroke="#F2F2F2" stroke-width="0.5" stroke-miterlimit="10" x1="221.475" y1="342.381" x2="239.426" y2="360.333"/>
					
						<line fill="none" stroke="#F2F2F2" stroke-width="0.5" stroke-miterlimit="10" x1="239.426" y1="342.381" x2="221.475" y2="360.333"/>
				</g>
				<g>
					<rect x="246.616" y="342.381" fill="#5620D8" width="17.952" height="17.952"/>
					
						<line fill="none" stroke="#F2F2F2" stroke-width="0.5" stroke-miterlimit="10" x1="246.616" y1="342.381" x2="264.568" y2="360.333"/>
					
						<line fill="none" stroke="#F2F2F2" stroke-width="0.5" stroke-miterlimit="10" x1="264.568" y1="342.381" x2="246.616" y2="360.333"/>
				</g>
				<g>
					<rect x="271.757" y="342.381" fill="#5620D8" width="17.952" height="17.952"/>
					
						<line fill="none" stroke="#F2F2F2" stroke-width="0.5" stroke-miterlimit="10" x1="271.757" y1="342.381" x2="289.709" y2="360.333"/>
					
						<line fill="none" stroke="#F2F2F2" stroke-width="0.5" stroke-miterlimit="10" x1="289.709" y1="342.381" x2="271.757" y2="360.333"/>
				</g>
			</g>
		</g>
		<g>
			<g opacity="0.2">
				
					<rect x="226.263" y="366.625" transform="matrix(-0.9999 -0.0159 0.0159 -0.9999 539.8887 753.3936)" width="93.36" height="15.846"/>
			</g>
			<g>
				
					<rect x="224.263" y="365.625" transform="matrix(-0.9999 -0.0159 0.0159 -0.9999 535.9049 751.3619)" fill="#5620D8" width="93.36" height="15.846"/>
			</g>
		</g>
		<g>
			<g>
				<g>
					
						<line fill="none" stroke="#BEC8D2" stroke-linecap="round" stroke-miterlimit="10" x1="417.452" y1="157.148" x2="417.452" y2="235.254"/>
					<path fill="#BEC8D2" d="M422.161,252.588c-0.721,0.024-1.285,0.627-1.261,1.348c0.055,1.637-1.245,3.192-2.875,3.453
						c-0.405,0.056-0.824,0.087-1.255-0.002c-0.409-0.056-0.778-0.2-1.138-0.408c-0.716-0.408-1.296-1.11-1.555-1.874
						c-0.272-0.776-0.336-1.743,0.029-2.478c1.853-3.725,5.547-6.098,5.547-9.828c2.679-0.918,4.613-3.457,4.613-6.444
						c0-3.758-3.058-6.816-6.815-6.816c-3.759,0-6.816,3.058-6.816,6.816c0,2.887,1.808,5.354,4.348,6.346
						c-0.237,2.613-3.284,4.959-4.564,8.479c-0.611,1.68-0.476,3.516,0.159,5.102c0.637,1.595,1.843,2.886,3.296,3.633
						c1.458,0.773,3.146,0.923,4.661,0.586c1.524-0.352,2.885-1.243,3.762-2.455c0.903-1.196,1.307-2.69,1.218-4.11l-0.008-0.127
						C423.462,253.107,422.868,252.564,422.161,252.588z M417.452,233.539c1.553,0,2.815,1.263,2.815,2.816
						c0,0.951-0.477,1.791-1.201,2.3c-0.48-0.446-1.136-0.701-1.841-0.636c-0.544,0.05-1.021,0.286-1.395,0.63
						c-0.721-0.51-1.195-1.347-1.195-2.295C414.636,234.802,415.899,233.539,417.452,233.539z"/>
				</g>
				<g>
					<g>
						<g opacity="0.2">
							
								<rect x="339.984" y="330.158" transform="matrix(0.9907 -0.1362 0.1362 0.9907 -47.9747 61.7097)" width="174.323" height="102.839"/>
							<polygon points="468.459,360.34 424.511,418.293 386.51,389.475 347.348,441.116 347.797,444.385 520.497,420.65 
								517.299,397.377 							"/>
							<path d="M503.077,323.276l12.912,93.956l-164.774,22.645l-12.913-93.955L503.077,323.276 M506.495,318.769l-172.7,23.735
								l14.002,101.881l172.7-23.734L506.495,318.769L506.495,318.769z"/>
							<circle cx="416.817" cy="362.314" r="14.508"/>
						</g>
						<g>
							<g>
								
									<rect x="329.984" y="313.158" transform="matrix(0.9907 -0.1362 0.1362 0.9907 -45.7532 60.1899)" fill="#BBA6EF" width="174.323" height="102.839"/>
								<polygon fill="#5620D8" points="458.459,343.34 414.511,401.293 376.51,372.475 337.348,424.116 337.797,427.385 
									510.497,403.65 507.299,380.377 								"/>
								<g>
									<path fill="#5620D8" d="M493.077,306.276l12.912,93.956l-164.774,22.645l-12.913-93.955L493.077,306.276 M496.495,301.769
										l-172.7,23.735l14.002,101.881l172.7-23.734L496.495,301.769L496.495,301.769z"/>
								</g>
								<g>
									<circle fill="#F2F2F2" cx="406.817" cy="345.314" r="14.508"/>
								</g>
							</g>
						</g>
					</g>
					<polyline fill="none" stroke="#BEC8D2" stroke-linecap="round" stroke-linejoin="round" stroke-miterlimit="10" points="
						335.029,323.961 327.214,350.382 336.785,323.719 					"/>
					<polyline fill="none" stroke="#BEC8D2" stroke-linecap="round" stroke-linejoin="round" stroke-miterlimit="10" points="
						479.713,303.688 500.133,328.236 477.956,303.446 					"/>
					<path fill="none" stroke="#BEC8D2" stroke-linecap="round" stroke-linejoin="round" stroke-miterlimit="10" d="
						M477.956,303.446l-57.736-44.726c-1.372-1.941-4.234-1.993-5.675-0.102l-77.76,65.1"/>
				</g>
			</g>
			<g>
				<circle fill="none" stroke="#BEC8D2" stroke-linecap="round" stroke-miterlimit="10" cx="408.931" cy="157.148" r="8.521"/>
				<circle fill="none" stroke="#BEC8D2" stroke-linecap="round" stroke-miterlimit="10" cx="408.931" cy="157.148" r="3.146"/>
			</g>
			<g>
				<g>
					<path fill="#174159" d="M473.183,422.166c-3.268,14.859-2.006,33.957,5.219,45.111c5.7,8.801,15.845,11.519,24.884,18.478
						l-0.419,4.353l3.982-4.753c0,0-5.012-4.981-19.572-20.017c-3.563-3.679-1.017-18.225-0.089-21.859
						c4.526-6.038-0.015-12.349-3.011-21.313H473.183z"/>
					<path fill="#2D80EA" d="M503.285,485.755l-0.419,4.353l3.982-4.753l-1.685-1.693
						C505.164,483.661,505.376,485.47,503.285,485.755z"/>
				</g>
				<g>
					<path fill="#2E546A" d="M469.006,422.166c-9.547,18.836-9.153,30.912,4.663,74.89l-4.412,2.734h6.729
						c0,0-0.287-46.484,2.416-57.08c4.527-6.037,4.595-11.58,1.599-20.544H469.006z"/>
					<path fill="#2D80EA" d="M469.257,499.79h6.729v-2.734c0,0-1.447,0.85-2.316,0L469.257,499.79z"/>
				</g>
				<path fill="#F2F2F2" d="M479.352,378.776c-1.678,5.138-6.408,7.644-8.873,7.181c-2.466-0.463-3.746-4.664-2.86-9.383
					c0.887-4.72,3.579-7.398,6.068-7.707C477.252,368.426,481.681,371.645,479.352,378.776z"/>
				<rect x="473.669" y="380.196" fill="#F2F2F2" width="4.633" height="11.629"/>
				<path fill="#2D80EA" d="M474.582,389.079c-6.081,1.106-10.171,11.084-10.772,14.655c-0.356,2.118-0.122,4.179,2.229,8.298
					c3.273,5.737,2.968,10.134,2.968,10.134h15.238c0-4.558,2.93-9.67,4.658-16.775S484.898,387.2,474.582,389.079z"/>
				<g>
					<path fill="#428DEC" d="M479.794,389.312c-0.021-0.001,8.839,1.065,12.479-0.232c8.578-3.059,12.301-10.433,12.594-18.031
						h2.321c0,0,3.108,22.44-18.122,30.453L479.794,389.312z"/>
					<path fill="#F2F2F2" d="M504.867,371.048c-1.549-1.707-0.57-3.113-1.182-4.458c-0.611-1.346,0.136-2.881,1.819,0.788
						l-0.699-5.142c0,0,2.01,1.006,2.383,8.812H504.867z"/>
				</g>
				<g>
					<path fill="#428DEC" d="M474.192,390.267c4.552,0.894,3.994,9.134-1.21,13.904c-4.911,4.502-18.771,8.442-37.424,10.854
						l-0.605-2.045c0,0,10.43-1.912,19.512-7.429C463.547,400.033,467.625,388.979,474.192,390.267z"/>
					<path fill="#F2F2F2" d="M434.953,412.979c-1.999-0.945-3.059,0.263-4.476,0.055s-2.115,0.754,1.754,1.335l-5.321,0.769
						c0,0,1.255,1.477,8.648-0.113L434.953,412.979z"/>
				</g>
				<path fill="#FAE54E" d="M468.322,369.486c-2.341,4.1,5.347,3.094,5.347,7.114c0,4.02-8.425,4.766-9.993,10.01
					c-1.791,5.989,10.429,4.394,8.589,10.609c-2.703,9.133-20.587,9.896-13.777,19.575c4.959,7.048,17.054,3.036,15.688,14.549
					c-1.325,11.175,19.08,8.923,20.836-0.241c1.167-6.095-10.209-9.798-3.839-14.398c7.796-5.631,17.655-13.176,9.221-19.562
					c-4.265-3.228-15.8-5.229-16.971-10.414c-1.17-5.185,5.644-13.147-2.458-18.448
					C472.658,362.846,468.322,369.486,468.322,369.486z"/>
			</g>
			<g>
				<g>
					<path fill="#174159" d="M263.731,248.195c0,0,3.983,16.21,12.452,16.21c19.404,0,24.951-7.428,32.716-6.916
						c4.119,0.272,14.442,6.916,14.442,6.916h5.825l-4.091-2.546c0,0-11.17-14.631-18.653-15.538
						c-9.479-1.148-22.034,8.256-28.767,1.874H263.731z"/>
					<path fill="#2D80EA" d="M323.34,264.405l-1.301-0.813c0,0,2.279,0.135,3.035-1.734l4.091,2.546H323.34z"/>
				</g>
				<polyline fill="none" stroke="#BEC8D2" stroke-linecap="round" stroke-miterlimit="10" points="404.533,149.859 
					314.434,206.688 301.48,219.032 301.48,261.858 				"/>
				<g>
					<path fill="#BEC8D2" d="M299.196,220.729c0.804-1.362,2.66-4.034,3.588-2.262c0.586,1.12,0.35,3.098-0.185,3.295
						s-1.92,0.32-1.92,0.32L299.196,220.729z"/>
					<path fill="#2D80EA" d="M261.288,218.061c7.382-4.165,19.336,9.165,22.958,9.852c5.858,1.112,14.209-6.582,14.95-7.183
						l1.483,1.353c0,0-9.143,13.12-17.792,13.367C274.237,235.697,251.87,223.374,261.288,218.061z"/>
					<path fill="#F2F2F2" d="M299.196,220.729c0.296-1.377,0.794-1.909,1.756-2.425c1.401-0.751,1.106-1.484,1.575-1.484
						c0.47,0,0.963,1.36-0.223,1.84c0,0,0.051,2.423-2.045,3.039L299.196,220.729z"/>
					<path fill="#F2F2F2" d="M302.784,218.467c0.06,0.513-0.503,0.435-1.051,0.412c-0.74-0.032-1.492-0.142-1.367,0.826
						c0.197,1.518-0.03,2.377,0.703,2.415s1.237,0.2,1.715-0.053S303.515,219.62,302.784,218.467z"/>
				</g>
				<g>
					<g>
						<path fill="#2E546A" d="M278.369,244.011c9.533,18.807,16.9,38.09,34.555,54.779l4.977-1.447l-4.496,4.993
							c0,0-36.92-21.602-46.939-34.847c-4.52-6.029-5.653-10.357-2.662-19.307L278.369,244.011z"/>
					</g>
					<path fill="#2D80EA" d="M313.405,302.336l4.496-4.993l-4.977,1.447c0,0,0.254,1.693-1.556,2.333L313.405,302.336z"/>
				</g>
				<path fill="#F2F2F2" d="M257.269,208.824c2.75,4.102,7.532,5.131,9.584,4.113c2.053-1.019,2.137-5.03,0.187-8.96
					s-4.982-5.619-7.248-5.272C256.547,199.2,253.451,203.13,257.269,208.824z"/>
				<polygon fill="#F2F2F2" points="258.98,220.729 265.504,218.889 262.619,208.663 255.553,204.588 				"/>
				<path fill="#428DEC" d="M263.932,216.7c-6.91,0.872-12.857,2.837-9.923,26.03c2.752,21.751,9.923,21.675,9.923,21.675
					s21.769,1.536,26.171-14.89c0,0-9.362-6.51-12.26-18.291C274.945,219.443,269.271,216.026,263.932,216.7z"/>
				<g>
					<path fill="#428DEC" d="M263.932,216.7l47.849-10.039l1.129,2.595c0,0-32.95,21.375-44.46,22.117
						C256.939,232.113,255.604,219.202,263.932,216.7z"/>
					<path fill="#F2F2F2" d="M311.781,206.661c0,0,1.992-2.714,3.137-2.531c1.145,0.184,2.657,2.795,2.016,3.803
						s-4.023,1.323-4.023,1.323L311.781,206.661z"/>
				</g>
				<path fill="#174159" d="M257.888,215.583c0,0,3.558-1.302,3.39-5.414c0,0-1.68,0.877-2.167-2.771
					c-0.222-1.668,1.417-2.002,2.172-0.166c1.055,0.389,2.479-0.332,2.26-2.266c-0.353-3.131,3.552-2.605,3.693-6.307
					c0.182-4.797-9.388-11.105-11.205-6.729c-1.484,3.576-1.047,5.724-5.58,5.768C242.11,197.78,250.65,217.256,257.888,215.583z"/>
			</g>
		</g>
		<g>
			<g>
				<g>
					<path fill="#174159" d="M230.093,422.166c3.267,14.859,2.006,33.957-5.219,45.111c-5.7,8.801-15.845,11.519-24.884,18.478
						l0.419,4.353l-3.983-4.753c0,0,5.012-4.981,19.573-20.017c3.563-3.679,1.016-18.225,0.088-21.859
						c-4.526-6.038,0.015-12.349,3.011-21.313H230.093z"/>
					<path fill="#2D80EA" d="M199.99,485.755l0.419,4.353l-3.983-4.753l1.685-1.693C198.111,483.661,197.899,485.47,199.99,485.755z
						"/>
				</g>
				<g>
					<path fill="#2E546A" d="M234.27,422.166c9.547,18.836,9.154,30.912-4.663,74.89l4.412,2.734h-6.729
						c0,0,0.287-46.484-2.417-57.08c-4.527-6.037-4.594-11.58-1.598-20.544H234.27z"/>
					<path fill="#2D80EA" d="M234.019,499.79h-6.729v-2.734c0,0,1.447,0.85,2.316,0L234.019,499.79z"/>
				</g>
				<path fill="#F2F2F2" d="M223.924,378.776c1.678,5.138,6.408,7.644,8.874,7.181c2.465-0.463,3.745-4.664,2.859-9.383
					c-0.886-4.72-3.579-7.398-6.068-7.707C226.023,368.426,221.594,371.645,223.924,378.776z"/>
				<rect x="221.475" y="380.196" fill="#F2F2F2" width="8.132" height="11.629"/>
				<g>
					<path fill="#428DEC" d="M223.481,389.312c0.021-0.001-8.839,1.065-12.479-0.232c-8.579-3.059-12.301-10.433-12.594-18.031
						h-2.321c0,0-3.109,22.44,18.122,30.453L223.481,389.312z"/>
					<path fill="#F2F2F2" d="M198.408,371.048c1.548-1.707,0.57-3.113,1.182-4.458c0.611-1.346-0.136-2.881-1.819,0.788l0.001-5.142
						c0,0-1.312,1.006-1.685,8.812H198.408z"/>
				</g>
			</g>
			<path fill="#428DEC" d="M232.986,390.939c-5.651-2.804-8.011-1.635-17.456-1.231c-9.445,0.402-1.417,23.192-1.417,48.842
				c0,0,8.21,4.768,28.649,0C242.762,438.55,241.96,395.392,232.986,390.939z"/>
			<path fill="#E148BE" d="M229.027,381.973c1.404,2.47-6.657,4.626-8.801,2.144s-9.373-4.426-4.062-14.104
				c2.312-4.213,3.19-10.391,6.618-10.985c8.229-1.427,12.186,4.893,12,8.616c-0.256,5.143-2.258,8.234-4.332,9.252
				C229.044,377.586,226.846,378.136,229.027,381.973z"/>
			<g>
				<path fill="#428DEC" d="M228.324,389.328c9.801-0.046,17.056,5.339,24.209,6.014c8.326,0.786,16.612-4.87,18.28-9.331
					l3.742-0.648c0,0-5.673,11.979-21.659,17.231c-8.034,2.64-17.859,3.048-23.813,0.307
					C223.13,400.159,221.451,389.361,228.324,389.328z"/>
				<path fill="#F2F2F2" d="M270.813,386.011c-1.178-1.753,0.613-3.553,0.861-4.866c0.248-1.313,0.925-2.283,1.578-2.421
					c1.112-0.235,0.779,1.314,0.42,2.798c-0.038,0.157,0.116,0.292,0.264,0.225c0.861-0.394,3.096-1.313,4.805-1.142
					c0.586,0.059,0.946,0.697-1.419,1.88c-2.3,1.15-2.767,2.878-2.767,2.878L270.813,386.011z"/>
			</g>
		</g>
	</g>
	<g>
		<g opacity="0.2">
			<rect x="270.878" y="455.404" width="111.252" height="29.628"/>
			<rect x="278.352" y="461.242" width="17.952" height="17.952"/>
			
				<line fill="none" stroke="#000000" stroke-width="0.5" stroke-miterlimit="10" x1="278.352" y1="461.242" x2="296.304" y2="479.194"/>
			
				<line fill="none" stroke="#000000" stroke-width="0.5" stroke-miterlimit="10" x1="296.304" y1="461.242" x2="278.352" y2="479.194"/>
			<rect x="302.555" y="465.215" width="67.048" height="2.111"/>
			<rect x="302.555" y="473.11" width="67.048" height="2.111"/>
			<rect x="302.555" y="469.162" width="59.817" height="2.112"/>
		</g>
		<g>
			<g>
				<rect x="269.878" y="454.404" fill="#5620D8" width="111.252" height="29.628"/>
				<g>
					<g>
						<rect x="277.352" y="460.242" fill="#784DE0" width="17.952" height="17.952"/>
						
							<line fill="none" stroke="#5620D8" stroke-width="0.5" stroke-miterlimit="10" x1="277.352" y1="460.242" x2="295.304" y2="478.194"/>
						
							<line fill="none" stroke="#5620D8" stroke-width="0.5" stroke-miterlimit="10" x1="295.304" y1="460.242" x2="277.352" y2="478.194"/>
					</g>
					<rect x="301.555" y="464.215" fill="#5799EE" width="67.048" height="2.111"/>
					<rect x="301.555" y="472.11" fill="#5799EE" width="67.048" height="2.111"/>
					<rect x="301.555" y="468.162" fill="#5799EE" width="59.817" height="2.112"/>
				</g>
			</g>
		</g>
	</g>
	<g>
		<g opacity="0.2">
			<rect x="252.203" y="468.162" width="111.252" height="29.628"/>
			<rect x="259.676" y="474" width="17.952" height="17.952"/>
			
				<line fill="none" stroke="#000000" stroke-width="0.5" stroke-miterlimit="10" x1="259.676" y1="474" x2="277.628" y2="491.952"/>
			
				<line fill="none" stroke="#000000" stroke-width="0.5" stroke-miterlimit="10" x1="277.628" y1="474" x2="259.676" y2="491.952"/>
			<rect x="283.878" y="477.973" width="67.048" height="2.111"/>
			<rect x="283.878" y="485.868" width="67.048" height="2.111"/>
			<rect x="283.878" y="481.92" width="59.817" height="2.112"/>
		</g>
		<g>
			<g>
				<rect x="251.203" y="467.162" fill="#2D80EA" width="111.252" height="29.628"/>
				<g>
					<g>
						<rect x="258.676" y="473" fill="#5620D8" width="17.952" height="17.952"/>
						
							<line fill="none" stroke="#2D80EA" stroke-width="0.5" stroke-miterlimit="10" x1="258.676" y1="473" x2="276.628" y2="490.952"/>
						
							<line fill="none" stroke="#2D80EA" stroke-width="0.5" stroke-miterlimit="10" x1="276.628" y1="473" x2="258.676" y2="490.952"/>
					</g>
					<rect x="282.878" y="476.973" fill="#5799EE" width="67.048" height="2.111"/>
					<rect x="282.878" y="484.868" fill="#5799EE" width="67.048" height="2.111"/>
					<rect x="282.878" y="480.92" fill="#5799EE" width="59.817" height="2.112"/>
				</g>
			</g>
		</g>
	</g>
	<circle fill="#FFFFFF" stroke="#BEC8D2" stroke-miterlimit="10" cx="353.633" cy="247.061" r="2.919"/>
	<circle fill="#FFFFFF" stroke="#BEC8D2" stroke-miterlimit="10" cx="343.076" cy="227.942" r="5.728"/>
	<circle fill="#FFFFFF" stroke="#BEC8D2" stroke-miterlimit="10" cx="371.889" cy="232.949" r="3.279"/>
	<circle fill="#FFFFFF" stroke="#BEC8D2" stroke-miterlimit="10" cx="159.222" cy="213.599" r="4.618"/>
	<circle fill="#FFFFFF" stroke="#BEC8D2" stroke-miterlimit="10" cx="170.625" cy="199.201" r="3.968"/>
	<circle fill="#FFFFFF" stroke="#BEC8D2" stroke-miterlimit="10" cx="531.883" cy="292.864" r="3.514"/>
	<circle fill="#FFFFFF" stroke="#BEC8D2" stroke-miterlimit="10" cx="556.858" cy="288.735" r="7.642"/>
</g>
</svg>
