<?xml version="1.0" encoding="utf-8"?>
<!-- Generator: Adobe Illustrator 26.0.0, SVG Export Plug-In . SVG Version: 6.00 Build 0)  -->
<svg version="1.1" id="OBJECTS" xmlns="http://www.w3.org/2000/svg" xmlns:xlink="http://www.w3.org/1999/xlink" x="0px" y="0px"
	 viewBox="0 0 171.18 235.67" style="enable-background:new 0 0 171.18 235.67;" xml:space="preserve">
<style type="text/css">
	.st0{fill:url(#SVGID_1_);}
	.st1{opacity:0.5;clip-path:url(#SVGID_00000088103439672429052550000001573195965755731876_);}
	.st2{fill:none;stroke:#FFFFFF;stroke-width:2;stroke-linecap:round;stroke-linejoin:round;stroke-dasharray:0,4.9837;}
	.st3{fill:none;stroke:#FFFFFF;stroke-width:1.9327;stroke-linecap:round;stroke-linejoin:round;stroke-dasharray:0,4.9923;}
	.st4{fill:none;stroke:#FFFFFF;stroke-width:1.8654;stroke-linecap:round;stroke-linejoin:round;stroke-dasharray:0,5.0015;}
	.st5{fill:none;stroke:#FFFFFF;stroke-width:1.7981;stroke-linecap:round;stroke-linejoin:round;stroke-dasharray:0,5.0114;}
	.st6{fill:none;stroke:#FFFFFF;stroke-width:1.7308;stroke-linecap:round;stroke-linejoin:round;stroke-dasharray:0,4.98;}
	.st7{fill:none;stroke:#FFFFFF;stroke-width:1.6635;stroke-linecap:round;stroke-linejoin:round;stroke-dasharray:0,4.9898;}
	.st8{fill:none;stroke:#FFFFFF;stroke-width:1.5962;stroke-linecap:round;stroke-linejoin:round;stroke-dasharray:0,5.0005;}
	.st9{fill:none;stroke:#FFFFFF;stroke-width:1.5288;stroke-linecap:round;stroke-linejoin:round;stroke-dasharray:0,5.0123;}
	.st10{fill:none;stroke:#FFFFFF;stroke-width:1.4615;stroke-linecap:round;stroke-linejoin:round;stroke-dasharray:0,4.9749;}
	.st11{fill:none;stroke:#FFFFFF;stroke-width:1.3942;stroke-linecap:round;stroke-linejoin:round;stroke-dasharray:0,4.9864;}
	.st12{fill:none;stroke:#FFFFFF;stroke-width:1.3269;stroke-linecap:round;stroke-linejoin:round;stroke-dasharray:0,4.9992;}
	.st13{fill:none;stroke:#FFFFFF;stroke-width:1.2596;stroke-linecap:round;stroke-linejoin:round;stroke-dasharray:0,5.0131;}
	.st14{fill:none;stroke:#FFFFFF;stroke-width:1.1923;stroke-linecap:round;stroke-linejoin:round;stroke-dasharray:0,5.0288;}
	.st15{fill:none;stroke:#FFFFFF;stroke-width:1.125;stroke-linecap:round;stroke-linejoin:round;stroke-dasharray:0,4.9803;}
	.st16{fill:none;stroke:#FFFFFF;stroke-width:1.0577;stroke-linecap:round;stroke-linejoin:round;stroke-dasharray:0,4.9957;}
	.st17{fill:none;stroke:#FFFFFF;stroke-width:0.9904;stroke-linecap:round;stroke-linejoin:round;stroke-dasharray:0,5.0139;}
	.st18{fill:none;stroke:#FFFFFF;stroke-width:0.9231;stroke-linecap:round;stroke-linejoin:round;stroke-dasharray:0,5.0351;}
	.st19{fill:none;stroke:#FFFFFF;stroke-width:0.8558;stroke-linecap:round;stroke-linejoin:round;stroke-dasharray:0,4.9714;}
	.st20{fill:none;stroke:#FFFFFF;stroke-width:0.7885;stroke-linecap:round;stroke-linejoin:round;stroke-dasharray:0,4.9922;}
	.st21{fill:none;stroke:#FFFFFF;stroke-width:0.7212;stroke-linecap:round;stroke-linejoin:round;stroke-dasharray:0,5.0174;}
	.st22{fill:none;stroke:#FFFFFF;stroke-width:0.6538;stroke-linecap:round;stroke-linejoin:round;stroke-dasharray:0,5.0486;}
	.st23{fill:none;stroke:#FFFFFF;stroke-width:0.5865;stroke-linecap:round;stroke-linejoin:round;stroke-dasharray:0,4.9544;}
	.st24{fill:none;stroke:#FFFFFF;stroke-width:0.5192;stroke-linecap:round;stroke-linejoin:round;stroke-dasharray:0,4.9846;}
	.st25{fill:none;stroke:#FFFFFF;stroke-width:0.4519;stroke-linecap:round;stroke-linejoin:round;stroke-dasharray:0,5.0256;}
	.st26{fill:none;stroke:#FFFFFF;stroke-width:0.3846;stroke-linecap:round;stroke-linejoin:round;stroke-dasharray:0,5.0844;}
	.st27{fill:none;stroke:#FFFFFF;stroke-width:0.3173;stroke-linecap:round;stroke-linejoin:round;stroke-dasharray:0,4.9035;}
	.st28{fill:none;stroke:#FFFFFF;stroke-width:0.25;stroke-linecap:round;stroke-linejoin:round;stroke-dasharray:0,4.9565;}
	.st29{fill:none;stroke:#FFFFFF;stroke-width:2;stroke-linecap:round;stroke-linejoin:round;stroke-dasharray:0,5.0177;}
	.st30{fill:none;stroke:#FFFFFF;stroke-width:1.9327;stroke-linecap:round;stroke-linejoin:round;stroke-dasharray:0,4.9955;}
	.st31{fill:none;stroke:#FFFFFF;stroke-width:1.8654;stroke-linecap:round;stroke-linejoin:round;stroke-dasharray:0,5.0124;}
	.st32{fill:none;stroke:#FFFFFF;stroke-width:1.7981;stroke-linecap:round;stroke-linejoin:round;stroke-dasharray:0,4.9884;}
	.st33{fill:none;stroke:#FFFFFF;stroke-width:1.7308;stroke-linecap:round;stroke-linejoin:round;stroke-dasharray:0,5.0063;}
	.st34{fill:none;stroke:#FFFFFF;stroke-width:1.6635;stroke-linecap:round;stroke-linejoin:round;stroke-dasharray:0,4.9801;}
	.st35{fill:none;stroke:#FFFFFF;stroke-width:1.5962;stroke-linecap:round;stroke-linejoin:round;stroke-dasharray:0,4.9992;}
	.st36{fill:none;stroke:#FFFFFF;stroke-width:1.5288;stroke-linecap:round;stroke-linejoin:round;stroke-dasharray:0,5.0201;}
	.st37{fill:none;stroke:#FFFFFF;stroke-width:1.4615;stroke-linecap:round;stroke-linejoin:round;stroke-dasharray:0,4.9907;}
	.st38{fill:none;stroke:#FFFFFF;stroke-width:1.3942;stroke-linecap:round;stroke-linejoin:round;stroke-dasharray:0,5.0132;}
	.st39{fill:none;stroke:#FFFFFF;stroke-width:1.3269;stroke-linecap:round;stroke-linejoin:round;stroke-dasharray:0,4.9804;}
	.st40{fill:none;stroke:#FFFFFF;stroke-width:1.2596;stroke-linecap:round;stroke-linejoin:round;stroke-dasharray:0,5.0043;}
	.st41{fill:none;stroke:#FFFFFF;stroke-width:1.1923;stroke-linecap:round;stroke-linejoin:round;stroke-dasharray:0,5.0314;}
	.st42{fill:none;stroke:#FFFFFF;stroke-width:1.125;stroke-linecap:round;stroke-linejoin:round;stroke-dasharray:0,4.9931;}
	.st43{fill:none;stroke:#FFFFFF;stroke-width:1.0577;stroke-linecap:round;stroke-linejoin:round;stroke-dasharray:0,5.0233;}
	.st44{fill:none;stroke:#FFFFFF;stroke-width:0.9904;stroke-linecap:round;stroke-linejoin:round;stroke-dasharray:0,4.9795;}
	.st45{fill:none;stroke:#FFFFFF;stroke-width:0.9231;stroke-linecap:round;stroke-linejoin:round;stroke-dasharray:0,5.0134;}
	.st46{fill:none;stroke:#FFFFFF;stroke-width:0.8558;stroke-linecap:round;stroke-linejoin:round;stroke-dasharray:0,4.9617;}
	.st47{fill:none;stroke:#FFFFFF;stroke-width:0.7885;stroke-linecap:round;stroke-linejoin:round;stroke-dasharray:0,4.9999;}
	.st48{fill:none;stroke:#FFFFFF;stroke-width:0.7212;stroke-linecap:round;stroke-linejoin:round;stroke-dasharray:0,5.0467;}
	.st49{fill:none;stroke:#FFFFFF;stroke-width:0.6538;stroke-linecap:round;stroke-linejoin:round;stroke-dasharray:0,4.9806;}
	.st50{fill:none;stroke:#FFFFFF;stroke-width:0.5865;stroke-linecap:round;stroke-linejoin:round;stroke-dasharray:0,5.0363;}
	.st51{fill:none;stroke:#FFFFFF;stroke-width:0.5192;stroke-linecap:round;stroke-linejoin:round;stroke-dasharray:0,4.9503;}
	.st52{fill:none;stroke:#FFFFFF;stroke-width:0.4519;stroke-linecap:round;stroke-linejoin:round;stroke-dasharray:0,5.0191;}
	.st53{fill:none;stroke:#FFFFFF;stroke-width:0.3846;stroke-linecap:round;stroke-linejoin:round;stroke-dasharray:0,4.8964;}
	.st54{fill:none;stroke:#FFFFFF;stroke-width:0.3173;stroke-linecap:round;stroke-linejoin:round;stroke-dasharray:0,4.9846;}
	.st55{fill:none;stroke:#FFFFFF;stroke-width:0.25;stroke-linecap:round;stroke-linejoin:round;stroke-dasharray:0,5.1404;}
	.st56{clip-path:url(#SVGID_00000088103439672429052550000001573195965755731876_);}
	.st57{fill:#FFFFFF;}
	.st58{font-family:'Montserrat-Bold';}
	.st59{font-size:22.8121px;}
	.st60{font-family:'Montserrat-Thin';}
	.st61{clip-path:url(#SVGID_00000088103439672429052550000001573195965755731876_);fill:#FFFFFF;}
	.st62{fill:none;}
	.st63{font-family:'Montserrat-Light';}
	.st64{font-size:4px;}
	.st65{display:none;}
	.st66{display:inline;fill:url(#SVGID_00000072989697072287325050000018360575274053512636_);}
	.st67{display:inline;}
	.st68{opacity:0.5;clip-path:url(#SVGID_00000077313358297628892220000005286255420845279154_);}
	.st69{fill:none;stroke:#FFFFFF;stroke-linecap:round;stroke-linejoin:round;stroke-miterlimit:10;stroke-dasharray:0,5;}
	.st70{font-size:24.3976px;}
	.st71{display:inline;fill:#FFFFFF;}
	.st72{display:inline;fill:url(#SVGID_00000119120084708072036700000014254538734609150080_);}
	.st73{opacity:0.6;clip-path:url(#SVGID_00000029740765115830984430000016131519864862617219_);}
	
		.st74{fill:none;stroke:#FFFFFF;stroke-width:2;stroke-linecap:round;stroke-linejoin:round;stroke-miterlimit:10;stroke-dasharray:0,5;}
	
		.st75{fill:none;stroke:#FFFFFF;stroke-width:1.8833;stroke-linecap:round;stroke-linejoin:round;stroke-miterlimit:10;stroke-dasharray:0,5;}
	
		.st76{fill:none;stroke:#FFFFFF;stroke-width:1.7667;stroke-linecap:round;stroke-linejoin:round;stroke-miterlimit:10;stroke-dasharray:0,5;}
	
		.st77{fill:none;stroke:#FFFFFF;stroke-width:1.65;stroke-linecap:round;stroke-linejoin:round;stroke-miterlimit:10;stroke-dasharray:0,5;}
	
		.st78{fill:none;stroke:#FFFFFF;stroke-width:1.5333;stroke-linecap:round;stroke-linejoin:round;stroke-miterlimit:10;stroke-dasharray:0,5;}
	
		.st79{fill:none;stroke:#FFFFFF;stroke-width:1.4167;stroke-linecap:round;stroke-linejoin:round;stroke-miterlimit:10;stroke-dasharray:0,5;}
	
		.st80{fill:none;stroke:#FFFFFF;stroke-width:1.3;stroke-linecap:round;stroke-linejoin:round;stroke-miterlimit:10;stroke-dasharray:0,5;}
	
		.st81{fill:none;stroke:#FFFFFF;stroke-width:1.1833;stroke-linecap:round;stroke-linejoin:round;stroke-miterlimit:10;stroke-dasharray:0,5;}
	
		.st82{fill:none;stroke:#FFFFFF;stroke-width:1.0667;stroke-linecap:round;stroke-linejoin:round;stroke-miterlimit:10;stroke-dasharray:0,5;}
	
		.st83{fill:none;stroke:#FFFFFF;stroke-width:0.95;stroke-linecap:round;stroke-linejoin:round;stroke-miterlimit:10;stroke-dasharray:0,5;}
	
		.st84{fill:none;stroke:#FFFFFF;stroke-width:0.8333;stroke-linecap:round;stroke-linejoin:round;stroke-miterlimit:10;stroke-dasharray:0,5;}
	
		.st85{fill:none;stroke:#FFFFFF;stroke-width:0.7167;stroke-linecap:round;stroke-linejoin:round;stroke-miterlimit:10;stroke-dasharray:0,5;}
	
		.st86{fill:none;stroke:#FFFFFF;stroke-width:0.6;stroke-linecap:round;stroke-linejoin:round;stroke-miterlimit:10;stroke-dasharray:0,5;}
	
		.st87{fill:none;stroke:#FFFFFF;stroke-width:0.4833;stroke-linecap:round;stroke-linejoin:round;stroke-miterlimit:10;stroke-dasharray:0,5;}
	
		.st88{fill:none;stroke:#FFFFFF;stroke-width:0.3667;stroke-linecap:round;stroke-linejoin:round;stroke-miterlimit:10;stroke-dasharray:0,5;}
	
		.st89{fill:none;stroke:#FFFFFF;stroke-width:0.25;stroke-linecap:round;stroke-linejoin:round;stroke-miterlimit:10;stroke-dasharray:0,5;}
	.st90{opacity:0.2;clip-path:url(#SVGID_00000029740765115830984430000016131519864862617219_);}
	.st91{font-size:16.6755px;}
	.st92{fill:url(#SVGID_00000090992068364657342940000003781757290047410324_);}
	.st93{clip-path:url(#SVGID_00000047028034906655904700000004769651374729802681_);}
	.st94{opacity:0.6;}
	.st95{opacity:0.26;}
	.st96{font-size:21.8008px;}
	.st97{clip-path:url(#SVGID_00000047028034906655904700000004769651374729802681_);fill:#FFFFFF;}
</style>
<g>
	<linearGradient id="SVGID_1_" gradientUnits="userSpaceOnUse" x1="18.5824" y1="0.6714" x2="155.8843" y2="240.1125">
		<stop  offset="0" style="stop-color:#FFB800"/>
		<stop  offset="1" style="stop-color:#FF0077"/>
	</linearGradient>
	<rect x="7.08" y="6.49" class="st0" width="157.01" height="222.06"/>
	<g>
		<defs>
			<rect id="SVGID_00000121243506666042321790000011763159332186659722_" x="7.08" y="6.49" width="157.01" height="222.06"/>
		</defs>
		<clipPath id="SVGID_00000039833512830952834580000003186111578289297829_">
			<use xlink:href="#SVGID_00000121243506666042321790000011763159332186659722_"  style="overflow:visible;"/>
		</clipPath>
		<g style="opacity:0.5;clip-path:url(#SVGID_00000039833512830952834580000003186111578289297829_);">
			<g>
				<path class="st2" d="M175.49,44.54c0,60.45-49,109.46-109.46,109.46c-145.19-5.77-145.15-213.17,0-218.91
					C126.49-64.92,175.49-15.91,175.49,44.54L175.49,44.54z"/>
			</g>
			<g>
				<path class="st3" d="M171.32,43.48c0,58.36-47.31,105.67-105.67,105.67c-140.17-5.57-140.13-205.8,0-211.34
					C124.01-62.19,171.32-14.88,171.32,43.48L171.32,43.48z"/>
			</g>
			<g>
				<path class="st4" d="M167.14,42.41c0,56.27-45.62,101.89-101.89,101.89c-135.15-5.37-135.11-198.42,0-203.77
					C121.52-59.47,167.14-13.86,167.14,42.41L167.14,42.41z"/>
			</g>
			<g>
				<path class="st5" d="M162.96,41.35c0,54.18-43.92,98.1-98.1,98.1c-130.13-5.17-130.09-191.05,0-196.2
					C119.04-56.75,162.96-12.83,162.96,41.35L162.96,41.35z"/>
			</g>
			<g>
				<path class="st6" d="M158.78,40.29c0,52.09-42.23,94.32-94.32,94.32c-125.11-4.97-125.07-183.68,0-188.63
					C116.56-54.03,158.78-11.8,158.78,40.29L158.78,40.29z"/>
			</g>
			<g>
				<path class="st7" d="M154.61,39.23c0,50-40.53,90.53-90.53,90.53c-120.09-4.77-120.05-176.31,0-181.06
					C114.07-51.3,154.61-10.77,154.61,39.23L154.61,39.23z"/>
			</g>
			<g>
				<path class="st8" d="M150.43,38.16c0,47.91-38.84,86.75-86.75,86.75c-115.07-4.57-115.03-168.94,0-173.49
					C111.59-48.58,150.43-9.75,150.43,38.16L150.43,38.16z"/>
			</g>
			<g>
				<path class="st9" d="M146.25,37.1c0,45.82-37.14,82.96-82.96,82.96c-110.05-4.37-110.01-161.57,0-165.92
					C109.11-45.86,146.25-8.72,146.25,37.1L146.25,37.1z"/>
			</g>
			<g>
				<path class="st10" d="M142.07,36.04c0,43.73-35.45,79.18-79.18,79.18c-105.02-4.17-104.99-154.2,0-158.35
					C106.63-43.14,142.07-7.69,142.07,36.04L142.07,36.04z"/>
			</g>
			<g>
				<path class="st11" d="M137.9,34.97c0,41.64-33.75,75.39-75.39,75.39c-100-3.97-99.98-146.83,0-150.78
					C104.14-40.42,137.9-6.66,137.9,34.97L137.9,34.97z"/>
			</g>
			<g>
				<path class="st12" d="M133.72,33.91c0,39.55-32.06,71.61-71.61,71.61c-94.98-3.77-94.96-139.45,0-143.21
					C101.66-37.69,133.72-5.63,133.72,33.91L133.72,33.91z"/>
			</g>
			<g>
				<path class="st13" d="M129.54,32.85c0,37.46-30.36,67.82-67.82,67.82c-89.96-3.57-89.94-132.08,0-135.64
					C99.18-34.97,129.54-4.61,129.54,32.85L129.54,32.85z"/>
			</g>
			<g>
				<path class="st14" d="M125.36,31.79c0,35.37-28.67,64.04-64.04,64.04c-84.94-3.37-84.92-124.71,0-128.07
					C96.69-32.25,125.36-3.58,125.36,31.79L125.36,31.79z"/>
			</g>
			<g>
				<path class="st15" d="M121.19,30.72c0,33.28-26.98,60.25-60.25,60.25c-79.92-3.17-79.9-117.34,0-120.5
					C94.21-29.53,121.19-2.55,121.19,30.72L121.19,30.72z"/>
			</g>
			<g>
				<path class="st16" d="M117.01,29.66c0,31.19-25.28,56.47-56.47,56.47c-74.9-2.97-74.88-109.97,0-112.93
					C91.73-26.8,117.01-1.52,117.01,29.66L117.01,29.66z"/>
			</g>
			<g>
				<path class="st17" d="M112.83,28.6c0,29.09-23.59,52.68-52.68,52.68c-69.88-2.77-69.86-102.6,0-105.36
					C89.24-24.08,112.83-0.5,112.83,28.6L112.83,28.6z"/>
			</g>
			<g>
				<path class="st18" d="M108.65,27.54c0,27-21.89,48.9-48.9,48.9c-64.86-2.58-64.84-95.23,0-97.79
					C86.76-21.36,108.65,0.53,108.65,27.54L108.65,27.54z"/>
			</g>
			<g>
				<path class="st19" d="M104.48,26.47c0,24.91-20.2,45.11-45.11,45.11c-59.84-2.38-59.82-87.86,0-90.22
					C84.28-18.64,104.48,1.56,104.48,26.47L104.48,26.47z"/>
			</g>
			<g>
				<path class="st20" d="M100.3,25.41c0,22.82-18.5,41.33-41.33,41.33c-54.82-2.18-54.8-80.48,0-82.65
					C81.8-15.92,100.3,2.59,100.3,25.41L100.3,25.41z"/>
			</g>
			<g>
				<path class="st21" d="M96.12,24.35c0,20.73-16.81,37.54-37.54,37.54c-49.8-1.98-49.78-73.11,0-75.08
					C79.31-13.19,96.12,3.61,96.12,24.35L96.12,24.35z"/>
			</g>
			<g>
				<path class="st22" d="M91.94,23.29c0,18.64-15.11,33.76-33.76,33.76c-44.78-1.78-44.76-65.74,0-67.51
					C76.83-10.47,91.94,4.64,91.94,23.29L91.94,23.29z"/>
			</g>
			<g>
				<path class="st23" d="M87.77,22.22c0,16.55-13.42,29.97-29.97,29.97c-39.76-1.58-39.75-58.37,0-59.94
					C74.35-7.75,87.77,5.67,87.77,22.22L87.77,22.22z"/>
			</g>
			<g>
				<path class="st24" d="M83.59,21.16c0,14.46-11.72,26.19-26.19,26.19c-34.74-1.38-34.73-51,0-52.37
					C71.86-5.03,83.59,6.7,83.59,21.16L83.59,21.16z"/>
			</g>
			<g>
				<path class="st25" d="M79.41,20.1c0,12.37-10.03,22.4-22.4,22.4c-29.72-1.18-29.71-43.63,0-44.8
					C69.38-2.3,79.41,7.72,79.41,20.1L79.41,20.1z"/>
			</g>
			<g>
				<path class="st26" d="M75.23,19.03c0,10.28-8.33,18.62-18.62,18.62c-24.69-0.98-24.69-36.26,0-37.23
					C66.9,0.42,75.23,8.75,75.23,19.03L75.23,19.03z"/>
			</g>
			<g>
				<path class="st27" d="M71.06,17.97c0,8.19-6.64,14.83-14.83,14.83c-19.67-0.78-19.67-28.89,0-29.66
					C64.42,3.14,71.06,9.78,71.06,17.97L71.06,17.97z"/>
			</g>
			<g>
				<path class="st28" d="M66.88,16.91c0,6.1-4.95,11.05-11.05,11.05c-14.65-0.58-14.65-21.51,0-22.09
					C61.93,5.86,66.88,10.81,66.88,16.91L66.88,16.91z"/>
			</g>
		</g>
		<g style="opacity:0.5;clip-path:url(#SVGID_00000039833512830952834580000003186111578289297829_);">
			<g>
				<path class="st29" d="M250.66,251.79c0,58.22-47.19,105.41-105.41,105.41c-139.82-5.55-139.78-205.29,0-210.82
					C203.47,146.38,250.66,193.57,250.66,251.79L250.66,251.79z"/>
			</g>
			<g>
				<path class="st30" d="M246.64,250.76c0,56.2-45.56,101.76-101.76,101.76C9.89,347.17,9.93,154.34,144.88,149
					C201.08,149,246.64,194.56,246.64,250.76L246.64,250.76z"/>
			</g>
			<g>
				<path class="st31" d="M242.62,249.74c0,54.19-43.93,98.12-98.12,98.12c-130.15-5.17-130.12-191.09,0-196.24
					C198.69,151.62,242.62,195.55,242.62,249.74L242.62,249.74z"/>
			</g>
			<g>
				<path class="st32" d="M238.59,248.72c0,52.18-42.3,94.47-94.47,94.47c-125.32-4.98-125.28-183.99,0-188.95
					C196.3,154.24,238.59,196.54,238.59,248.72L238.59,248.72z"/>
			</g>
			<g>
				<path class="st33" d="M234.57,247.69c0,50.16-40.67,90.83-90.83,90.83c-120.48-4.78-120.45-176.89,0-181.66
					C193.91,156.86,234.57,197.53,234.57,247.69L234.57,247.69z"/>
			</g>
			<g>
				<path class="st34" d="M230.55,246.67c0,48.15-39.03,87.18-87.18,87.18c-115.65-4.59-115.61-169.79,0-174.37
					C191.51,159.49,230.55,198.52,230.55,246.67L230.55,246.67z"/>
			</g>
			<g>
				<path class="st35" d="M226.52,245.65c0,46.14-37.4,83.54-83.54,83.54c-110.81-4.4-110.78-162.69,0-167.08
					C189.12,162.11,226.52,199.51,226.52,245.65L226.52,245.65z"/>
			</g>
			<g>
				<path class="st36" d="M222.5,244.62c0,44.12-35.77,79.89-79.89,79.89c-105.98-4.21-105.95-155.6,0-159.79
					C186.73,164.73,222.5,200.5,222.5,244.62L222.5,244.62z"/>
			</g>
			<g>
				<path class="st37" d="M218.48,243.6c0,42.11-34.14,76.25-76.25,76.25c-101.14-4.02-101.11-148.5,0-152.5
					C184.34,167.35,218.48,201.49,218.48,243.6L218.48,243.6z"/>
			</g>
			<g>
				<path class="st38" d="M214.46,242.58c0,40.1-32.51,72.6-72.6,72.6c-96.31-3.82-96.28-141.4,0-145.21
					C181.95,169.97,214.46,202.48,214.46,242.58L214.46,242.58z"/>
			</g>
			<g>
				<path class="st39" d="M210.43,241.55c0,38.08-30.87,68.96-68.96,68.96c-91.47-3.63-91.45-134.3,0-137.92
					C179.56,172.59,210.43,203.47,210.43,241.55L210.43,241.55z"/>
			</g>
			<g>
				<path class="st40" d="M206.41,240.53c0,36.07-29.24,65.31-65.31,65.31c-86.64-3.44-86.61-127.2,0-130.63
					C177.17,175.21,206.41,204.46,206.41,240.53L206.41,240.53z"/>
			</g>
			<g>
				<path class="st41" d="M202.39,239.51c0,34.06-27.61,61.67-61.67,61.67c-81.8-3.25-81.78-120.1,0-123.34
					C174.78,177.84,202.39,205.45,202.39,239.51L202.39,239.51z"/>
			</g>
			<g>
				<path class="st42" d="M198.36,238.48c0,32.05-25.98,58.02-58.02,58.02c-76.97-3.06-76.95-113,0-116.05
					C172.39,180.46,198.36,206.44,198.36,238.48L198.36,238.48z"/>
			</g>
			<g>
				<path class="st43" d="M194.34,237.46c0,30.03-24.35,54.38-54.38,54.38c-72.13-2.86-72.11-105.9,0-108.76
					C169.99,183.08,194.34,207.43,194.34,237.46L194.34,237.46z"/>
			</g>
			<g>
				<path class="st44" d="M190.32,236.43c0,28.02-22.71,50.73-50.73,50.73c-67.3-2.67-67.28-98.81,0-101.47
					C167.6,185.7,190.32,208.42,190.32,236.43L190.32,236.43z"/>
			</g>
			<g>
				<path class="st45" d="M186.29,235.41c0,26.01-21.08,47.09-47.09,47.09c-62.46-2.48-62.44-91.71,0-94.18
					C165.21,188.32,186.29,209.41,186.29,235.41L186.29,235.41z"/>
			</g>
			<g>
				<path class="st46" d="M182.27,234.39c0,23.99-19.45,43.44-43.44,43.44c-57.63-2.29-57.61-84.61,0-86.89
					C162.82,190.94,182.27,210.39,182.27,234.39L182.27,234.39z"/>
			</g>
			<g>
				<path class="st47" d="M178.25,233.36c0,21.98-17.82,39.8-39.8,39.8c-52.79-2.1-52.78-77.51,0-79.6
					C160.43,193.57,178.25,211.38,178.25,233.36L178.25,233.36z"/>
			</g>
			<g>
				<path class="st48" d="M174.23,232.34c0,19.97-16.19,36.15-36.15,36.15c-47.96-1.9-47.94-70.41,0-72.31
					C158.04,196.19,174.23,212.37,174.23,232.34L174.23,232.34z"/>
			</g>
			<g>
				<path class="st49" d="M170.2,231.32c0,17.95-14.55,32.51-32.51,32.51c-43.12-1.71-43.11-63.31,0-65.02
					C155.65,198.81,170.2,213.36,170.2,231.32L170.2,231.32z"/>
			</g>
			<g>
				<path class="st50" d="M166.18,230.29c0,15.94-12.92,28.86-28.86,28.86c-38.29-1.52-38.28-56.21,0-57.73
					C153.26,201.43,166.18,214.35,166.18,230.29L166.18,230.29z"/>
			</g>
			<g>
				<path class="st51" d="M162.16,229.27c0,13.93-11.29,25.22-25.22,25.22c-33.45-1.33-33.44-49.11,0-50.44
					C150.87,204.05,162.16,215.34,162.16,229.27L162.16,229.27z"/>
			</g>
			<g>
				<path class="st52" d="M158.13,228.25c0,11.91-9.66,21.57-21.57,21.57c-28.62-1.14-28.61-42.01,0-43.15
					C148.47,206.67,158.13,216.33,158.13,228.25L158.13,228.25z"/>
			</g>
			<g>
				<path class="st53" d="M154.11,227.22c0,9.9-8.03,17.93-17.93,17.93c-23.78-0.94-23.77-34.92,0-35.86
					C146.08,209.3,154.11,217.32,154.11,227.22L154.11,227.22z"/>
			</g>
			<g>
				<path class="st54" d="M150.09,226.2c0,7.89-6.39,14.28-14.28,14.28c-18.95-0.75-18.94-27.82,0-28.57
					C143.69,211.92,150.09,218.31,150.09,226.2L150.09,226.2z"/>
			</g>
			<g>
				<path class="st55" d="M146.06,225.18c0,5.88-4.76,10.64-10.64,10.64c-14.11-0.56-14.11-20.72,0-21.28
					C141.3,214.54,146.06,219.3,146.06,225.18L146.06,225.18z"/>
			</g>
		</g>
		<g style="clip-path:url(#SVGID_00000039833512830952834580000003186111578289297829_);">
			<text transform="matrix(1 0 0 1 59.5965 120.8025)" class="st57 st58 st59">DESIGN</text>
			<text transform="matrix(1 0 0 1 59.5965 100.1994)" class="st57 st60 st59">COVER</text>
		</g>
		
			<rect x="-1.34" y="132.78" style="clip-path:url(#SVGID_00000039833512830952834580000003186111578289297829_);fill:#FFFFFF;" width="83.72" height="3.35"/>
		<g style="clip-path:url(#SVGID_00000039833512830952834580000003186111578289297829_);">
			<rect x="30.89" y="164.88" class="st62" width="32.67" height="26.97"/>
			<text transform="matrix(1 0 0 1 30.8891 167.7234)"><tspan x="0" y="0" class="st57 st63 st64">Lorem ipsum dolor </tspan><tspan x="0" y="4.8" class="st57 st63 st64">sit amet, </tspan><tspan x="0" y="9.6" class="st57 st63 st64">consectetuer </tspan><tspan x="0" y="14.4" class="st57 st63 st64">adipiscing elit, sed </tspan><tspan x="0" y="19.2" class="st57 st63 st64">diam </tspan></text>
		</g>
	</g>
</g>
<g class="st65">
	
		<linearGradient id="SVGID_00000016038969853645923010000013933136240447687558_" gradientUnits="userSpaceOnUse" x1="-43.9387" y1="-12.0042" x2="186.7489" y2="218.6833">
		<stop  offset="0" style="stop-color:#00B8FF"/>
		<stop  offset="1" style="stop-color:#FF0077"/>
	</linearGradient>
	
		<rect x="7.08" y="6.49" style="display:inline;fill:url(#SVGID_00000016038969853645923010000013933136240447687558_);" width="157.01" height="222.06"/>
	<g class="st67">
		<defs>
			<rect id="SVGID_00000139257383692782024090000006387569198654704813_" x="7.08" y="6.49" width="157.01" height="222.06"/>
		</defs>
		<clipPath id="SVGID_00000126314681622491480280000000321257739664431238_">
			<use xlink:href="#SVGID_00000139257383692782024090000006387569198654704813_"  style="overflow:visible;"/>
		</clipPath>
		<g style="opacity:0.5;clip-path:url(#SVGID_00000126314681622491480280000000321257739664431238_);">
			<g>
				<g>
					<line class="st69" x1="-121.73" y1="110.57" x2="72.79" y2="-83.95"/>
					<line class="st69" x1="-119.03" y1="113.27" x2="75.49" y2="-81.25"/>
					<line class="st69" x1="-116.33" y1="115.97" x2="78.19" y2="-78.55"/>
					<line class="st69" x1="-113.63" y1="118.67" x2="80.89" y2="-75.85"/>
					<line class="st69" x1="-110.93" y1="121.38" x2="83.59" y2="-73.14"/>
				</g>
				<g>
					<polyline class="st69" points="89.32,-63.91 77.33,-63.91 77.33,-52.54 65.96,-52.54 65.96,-41.17 54.58,-41.17 54.58,-29.8 
						43.21,-29.8 43.21,-18.42 31.84,-18.42 31.84,-7.05 20.47,-7.05 20.47,4.32 9.1,4.32 9.1,15.69 -2.27,15.69 -2.27,27.06 
						-13.65,27.06 -13.65,38.43 -25.02,38.43 -25.02,49.81 -36.39,49.81 -36.39,61.18 -47.76,61.18 -47.76,72.55 -59.13,72.55 
						-59.13,83.92 -70.5,83.92 -70.5,95.29 -81.87,95.29 -81.87,106.66 -93.25,106.66 -93.25,118.04 -104.62,118.04 -104.62,130.03 
											"/>
					<polyline class="st69" points="91.08,-62.15 79.08,-62.15 79.08,-50.78 67.71,-50.78 67.71,-39.41 56.34,-39.41 56.34,-28.04 
						44.97,-28.04 44.97,-16.67 33.6,-16.67 33.6,-5.3 22.22,-5.3 22.22,6.07 10.85,6.07 10.85,17.45 -0.52,17.45 -0.52,28.82 
						-11.89,28.82 -11.89,40.19 -23.26,40.19 -23.26,51.56 -34.63,51.56 -34.63,62.93 -46,62.93 -46,74.3 -57.38,74.3 -57.38,85.68 
						-68.75,85.68 -68.75,97.05 -80.12,97.05 -80.12,108.42 -91.49,108.42 -91.49,119.79 -102.86,119.79 -102.86,131.79 					"/>
					<polyline class="st69" points="92.83,-60.4 80.84,-60.4 80.84,-49.03 69.47,-49.03 69.47,-37.66 58.09,-37.66 58.09,-26.28 
						46.72,-26.28 46.72,-14.91 35.35,-14.91 35.35,-3.54 23.98,-3.54 23.98,7.83 12.61,7.83 12.61,19.2 1.24,19.2 1.24,30.57 
						-10.13,30.57 -10.13,41.94 -21.51,41.94 -21.51,53.32 -32.88,53.32 -32.88,64.69 -44.25,64.69 -44.25,76.06 -55.62,76.06 
						-55.62,87.43 -66.99,87.43 -66.99,98.8 -78.36,98.8 -78.36,110.17 -89.74,110.17 -89.74,121.55 -101.11,121.55 -101.11,133.54 
											"/>
					<polyline class="st69" points="94.59,-58.64 82.59,-58.64 82.59,-47.27 71.22,-47.27 71.22,-35.9 59.85,-35.9 59.85,-24.53 
						48.48,-24.53 48.48,-13.16 37.11,-13.16 37.11,-1.79 25.73,-1.79 25.73,9.58 14.36,9.58 14.36,20.96 2.99,20.96 2.99,32.33 
						-8.38,32.33 -8.38,43.7 -19.75,43.7 -19.75,55.07 -31.12,55.07 -31.12,66.44 -42.49,66.44 -42.49,77.81 -53.87,77.81 
						-53.87,89.19 -65.24,89.19 -65.24,100.56 -76.61,100.56 -76.61,111.93 -87.98,111.93 -87.98,123.3 -99.35,123.3 -99.35,135.3 
											"/>
					<polyline class="st69" points="96.34,-56.89 84.35,-56.89 84.35,-45.52 72.98,-45.52 72.98,-34.15 61.6,-34.15 61.6,-22.77 
						50.23,-22.77 50.23,-11.4 38.86,-11.4 38.86,-0.03 27.49,-0.03 27.49,11.34 16.12,11.34 16.12,22.71 4.75,22.71 4.75,34.08 
						-6.62,34.08 -6.62,45.45 -18,45.45 -18,56.83 -29.37,56.83 -29.37,68.2 -40.74,68.2 -40.74,79.57 -52.11,79.57 -52.11,90.94 
						-63.48,90.94 -63.48,102.31 -74.85,102.31 -74.85,113.68 -86.23,113.68 -86.23,125.06 -97.6,125.06 -97.6,137.05 					"/>
				</g>
			</g>
			<g>
				<g>
					<line class="st69" x1="-95.24" y1="137.06" x2="99.28" y2="-57.46"/>
					<line class="st69" x1="-92.54" y1="139.76" x2="101.98" y2="-54.76"/>
					<line class="st69" x1="-89.84" y1="142.46" x2="104.68" y2="-52.06"/>
					<line class="st69" x1="-87.14" y1="145.16" x2="107.38" y2="-49.36"/>
					<line class="st69" x1="-84.44" y1="147.87" x2="110.08" y2="-46.65"/>
				</g>
				<g>
					<polyline class="st69" points="115.81,-37.42 103.82,-37.42 103.82,-26.05 92.45,-26.05 92.45,-14.68 81.07,-14.68 
						81.07,-3.31 69.7,-3.31 69.7,8.07 58.33,8.07 58.33,19.44 46.96,19.44 46.96,30.81 35.59,30.81 35.59,42.18 24.22,42.18 
						24.22,53.55 12.84,53.55 12.84,64.92 1.47,64.92 1.47,76.3 -9.9,76.3 -9.9,87.67 -21.27,87.67 -21.27,99.04 -32.64,99.04 
						-32.64,110.41 -44.01,110.41 -44.01,121.78 -55.38,121.78 -55.38,133.15 -66.76,133.15 -66.76,144.52 -78.13,144.52 
						-78.13,156.52 					"/>
					<polyline class="st69" points="117.57,-35.67 105.57,-35.67 105.57,-24.29 94.2,-24.29 94.2,-12.92 82.83,-12.92 82.83,-1.55 
						71.46,-1.55 71.46,9.82 60.09,9.82 60.09,21.19 48.71,21.19 48.71,32.56 37.34,32.56 37.34,43.94 25.97,43.94 25.97,55.31 
						14.6,55.31 14.6,66.68 3.23,66.68 3.23,78.05 -8.14,78.05 -8.14,89.42 -19.52,89.42 -19.52,100.79 -30.89,100.79 
						-30.89,112.16 -42.26,112.16 -42.26,123.54 -53.63,123.54 -53.63,134.91 -65,134.91 -65,146.28 -76.37,146.28 -76.37,158.28 
											"/>
					<polyline class="st69" points="119.32,-33.91 107.33,-33.91 107.33,-22.54 95.96,-22.54 95.96,-11.17 84.58,-11.17 84.58,0.2 
						73.21,0.2 73.21,11.58 61.84,11.58 61.84,22.95 50.47,22.95 50.47,34.32 39.1,34.32 39.1,45.69 27.73,45.69 27.73,57.06 
						16.35,57.06 16.35,68.43 4.98,68.43 4.98,79.81 -6.39,79.81 -6.39,91.18 -17.76,91.18 -17.76,102.55 -29.13,102.55 
						-29.13,113.92 -40.5,113.92 -40.5,125.29 -51.87,125.29 -51.87,136.66 -63.25,136.66 -63.25,148.03 -74.62,148.03 
						-74.62,160.03 					"/>
					<polyline class="st69" points="121.08,-32.15 109.08,-32.15 109.08,-20.78 97.71,-20.78 97.71,-9.41 86.34,-9.41 86.34,1.96 
						74.97,1.96 74.97,13.33 63.6,13.33 63.6,24.7 52.22,24.7 52.22,36.07 40.85,36.07 40.85,47.45 29.48,47.45 29.48,58.82 
						18.11,58.82 18.11,70.19 6.74,70.19 6.74,81.56 -4.63,81.56 -4.63,92.93 -16,92.93 -16,104.3 -27.38,104.3 -27.38,115.68 
						-38.75,115.68 -38.75,127.05 -50.12,127.05 -50.12,138.42 -61.49,138.42 -61.49,149.79 -72.86,149.79 -72.86,161.79 					"/>
					<polyline class="st69" points="122.83,-30.4 110.84,-30.4 110.84,-19.03 99.47,-19.03 99.47,-7.66 88.09,-7.66 88.09,3.71 
						76.72,3.71 76.72,15.09 65.35,15.09 65.35,26.46 53.98,26.46 53.98,37.83 42.61,37.83 42.61,49.2 31.24,49.2 31.24,60.57 
						19.86,60.57 19.86,71.94 8.49,71.94 8.49,83.32 -2.88,83.32 -2.88,94.69 -14.25,94.69 -14.25,106.06 -25.62,106.06 
						-25.62,117.43 -36.99,117.43 -36.99,128.8 -48.36,128.8 -48.36,140.17 -59.74,140.17 -59.74,151.55 -71.11,151.55 
						-71.11,163.54 					"/>
				</g>
			</g>
			<g>
				<g>
					<line class="st69" x1="-68.75" y1="163.55" x2="125.77" y2="-30.97"/>
					<line class="st69" x1="-66.05" y1="166.25" x2="128.47" y2="-28.27"/>
					<line class="st69" x1="-63.35" y1="168.95" x2="131.17" y2="-25.57"/>
					<line class="st69" x1="-60.65" y1="171.65" x2="133.87" y2="-22.87"/>
					<line class="st69" x1="-57.95" y1="174.36" x2="136.57" y2="-20.17"/>
				</g>
				<g>
					<polyline class="st69" points="142.3,-10.93 130.31,-10.93 130.31,0.44 118.93,0.44 118.93,11.81 107.56,11.81 107.56,23.18 
						96.19,23.18 96.19,34.56 84.82,34.56 84.82,45.93 73.45,45.93 73.45,57.3 62.08,57.3 62.08,68.67 50.71,68.67 50.71,80.04 
						39.33,80.04 39.33,91.41 27.96,91.41 27.96,102.78 16.59,102.78 16.59,114.16 5.22,114.16 5.22,125.53 -6.15,125.53 
						-6.15,136.9 -17.52,136.9 -17.52,148.27 -28.9,148.27 -28.9,159.64 -40.27,159.64 -40.27,171.01 -51.64,171.01 -51.64,183.01 
											"/>
					<polyline class="st69" points="144.06,-9.18 132.06,-9.18 132.06,2.2 120.69,2.2 120.69,13.57 109.32,13.57 109.32,24.94 
						97.95,24.94 97.95,36.31 86.58,36.31 86.58,47.68 75.2,47.68 75.2,59.05 63.83,59.05 63.83,70.43 52.46,70.43 52.46,81.8 
						41.09,81.8 41.09,93.17 29.72,93.17 29.72,104.54 18.35,104.54 18.35,115.91 6.97,115.91 6.97,127.28 -4.4,127.28 -4.4,138.65 
						-15.77,138.65 -15.77,150.03 -27.14,150.03 -27.14,161.4 -38.51,161.4 -38.51,172.77 -49.88,172.77 -49.88,184.77 					"/>
					<polyline class="st69" points="145.81,-7.42 133.82,-7.42 133.82,3.95 122.44,3.95 122.44,15.32 111.07,15.32 111.07,26.69 
						99.7,26.69 99.7,38.07 88.33,38.07 88.33,49.44 76.96,49.44 76.96,60.81 65.59,60.81 65.59,72.18 54.22,72.18 54.22,83.55 
						42.84,83.55 42.84,94.92 31.47,94.92 31.47,106.29 20.1,106.29 20.1,117.67 8.73,117.67 8.73,129.04 -2.64,129.04 
						-2.64,140.41 -14.01,140.41 -14.01,151.78 -25.39,151.78 -25.39,163.15 -36.76,163.15 -36.76,174.52 -48.13,174.52 
						-48.13,186.52 					"/>
					<polyline class="st69" points="147.57,-5.67 135.57,-5.67 135.57,5.71 124.2,5.71 124.2,17.08 112.83,17.08 112.83,28.45 
						101.46,28.45 101.46,39.82 90.09,39.82 90.09,51.19 78.71,51.19 78.71,62.56 67.34,62.56 67.34,73.94 55.97,73.94 55.97,85.31 
						44.6,85.31 44.6,96.68 33.23,96.68 33.23,108.05 21.86,108.05 21.86,119.42 10.48,119.42 10.48,130.79 -0.89,130.79 
						-0.89,142.16 -12.26,142.16 -12.26,153.54 -23.63,153.54 -23.63,164.91 -35,164.91 -35,176.28 -46.37,176.28 -46.37,188.28 
											"/>
					<polyline class="st69" points="149.32,-3.91 137.33,-3.91 137.33,7.46 125.96,7.46 125.96,18.83 114.58,18.83 114.58,30.2 
						103.21,30.2 103.21,41.58 91.84,41.58 91.84,52.95 80.47,52.95 80.47,64.32 69.1,64.32 69.1,75.69 57.73,75.69 57.73,87.06 
						46.35,87.06 46.35,98.43 34.98,98.43 34.98,109.81 23.61,109.81 23.61,121.18 12.24,121.18 12.24,132.55 0.87,132.55 
						0.87,143.92 -10.5,143.92 -10.5,155.29 -21.87,155.29 -21.87,166.66 -33.25,166.66 -33.25,178.03 -44.62,178.03 -44.62,190.03 
											"/>
				</g>
			</g>
			<g>
				<g>
					<line class="st69" x1="-42.26" y1="190.04" x2="152.26" y2="-4.48"/>
					<line class="st69" x1="-39.56" y1="192.74" x2="154.96" y2="-1.78"/>
					<line class="st69" x1="-36.86" y1="195.44" x2="157.66" y2="0.92"/>
					<line class="st69" x1="-34.16" y1="198.14" x2="160.36" y2="3.62"/>
					<line class="st69" x1="-31.46" y1="200.84" x2="163.06" y2="6.32"/>
				</g>
				<g>
					<polyline class="st69" points="168.79,15.56 156.8,15.56 156.8,26.93 145.42,26.93 145.42,38.3 134.05,38.3 134.05,49.67 
						122.68,49.67 122.68,61.04 111.31,61.04 111.31,72.42 99.94,72.42 99.94,83.79 88.57,83.79 88.57,95.16 77.19,95.16 
						77.19,106.53 65.82,106.53 65.82,117.9 54.45,117.9 54.45,129.27 43.08,129.27 43.08,140.65 31.71,140.65 31.71,152.02 
						20.34,152.02 20.34,163.39 8.97,163.39 8.97,174.76 -2.41,174.76 -2.41,186.13 -13.78,186.13 -13.78,197.5 -25.15,197.5 
						-25.15,209.5 					"/>
					<polyline class="st69" points="170.55,17.31 158.55,17.31 158.55,28.69 147.18,28.69 147.18,40.06 135.81,40.06 135.81,51.43 
						124.44,51.43 124.44,62.8 113.06,62.8 113.06,74.17 101.69,74.17 101.69,85.54 90.32,85.54 90.32,96.91 78.95,96.91 
						78.95,108.29 67.58,108.29 67.58,119.66 56.21,119.66 56.21,131.03 44.84,131.03 44.84,142.4 33.46,142.4 33.46,153.77 
						22.09,153.77 22.09,165.14 10.72,165.14 10.72,176.52 -0.65,176.52 -0.65,187.89 -12.02,187.89 -12.02,199.26 -23.39,199.26 
						-23.39,211.26 					"/>
					<polyline class="st69" points="172.3,19.07 160.31,19.07 160.31,30.44 148.93,30.44 148.93,41.81 137.56,41.81 137.56,53.18 
						126.19,53.18 126.19,64.56 114.82,64.56 114.82,75.93 103.45,75.93 103.45,87.3 92.08,87.3 92.08,98.67 80.71,98.67 
						80.71,110.04 69.33,110.04 69.33,121.41 57.96,121.41 57.96,132.78 46.59,132.78 46.59,144.16 35.22,144.16 35.22,155.53 
						23.85,155.53 23.85,166.9 12.48,166.9 12.48,178.27 1.1,178.27 1.1,189.64 -10.27,189.64 -10.27,201.01 -21.64,201.01 
						-21.64,213.01 					"/>
					<polyline class="st69" points="174.06,20.82 162.06,20.82 162.06,32.2 150.69,32.2 150.69,43.57 139.32,43.57 139.32,54.94 
						127.95,54.94 127.95,66.31 116.57,66.31 116.57,77.68 105.2,77.68 105.2,89.05 93.83,89.05 93.83,100.42 82.46,100.42 
						82.46,111.8 71.09,111.8 71.09,123.17 59.72,123.17 59.72,134.54 48.35,134.54 48.35,145.91 36.97,145.91 36.97,157.28 
						25.6,157.28 25.6,168.65 14.23,168.65 14.23,180.03 2.86,180.03 2.86,191.4 -8.51,191.4 -8.51,202.77 -19.88,202.77 
						-19.88,214.77 					"/>
					<polyline class="st69" points="175.81,22.58 163.82,22.58 163.82,33.95 152.44,33.95 152.44,45.32 141.07,45.32 141.07,56.69 
						129.7,56.69 129.7,68.07 118.33,68.07 118.33,79.44 106.96,79.44 106.96,90.81 95.59,90.81 95.59,102.18 84.22,102.18 
						84.22,113.55 72.84,113.55 72.84,124.92 61.47,124.92 61.47,136.29 50.1,136.29 50.1,147.67 38.73,147.67 38.73,159.04 
						27.36,159.04 27.36,170.41 15.99,170.41 15.99,181.78 4.61,181.78 4.61,193.15 -6.76,193.15 -6.76,204.52 -18.13,204.52 
						-18.13,216.52 					"/>
				</g>
			</g>
			<g>
				<g>
					<line class="st69" x1="-15.78" y1="216.53" x2="178.75" y2="22.01"/>
					<line class="st69" x1="-13.07" y1="219.23" x2="181.45" y2="24.71"/>
					<line class="st69" x1="-10.37" y1="221.93" x2="184.15" y2="27.41"/>
					<line class="st69" x1="-7.67" y1="224.63" x2="186.85" y2="30.11"/>
					<line class="st69" x1="-4.97" y1="227.33" x2="189.55" y2="32.81"/>
				</g>
				<g>
					<polyline class="st69" points="195.28,42.05 183.29,42.05 183.29,53.42 171.91,53.42 171.91,64.79 160.54,64.79 160.54,76.16 
						149.17,76.16 149.17,87.53 137.8,87.53 137.8,98.91 126.43,98.91 126.43,110.28 115.06,110.28 115.06,121.65 103.68,121.65 
						103.68,133.02 92.31,133.02 92.31,144.39 80.94,144.39 80.94,155.76 69.57,155.76 69.57,167.14 58.2,167.14 58.2,178.51 
						46.83,178.51 46.83,189.88 35.46,189.88 35.46,201.25 24.08,201.25 24.08,212.62 12.71,212.62 12.71,223.99 1.34,223.99 
						1.34,235.99 					"/>
					<polyline class="st69" points="197.04,43.8 185.04,43.8 185.04,55.17 173.67,55.17 173.67,66.55 162.3,66.55 162.3,77.92 
						150.93,77.92 150.93,89.29 139.55,89.29 139.55,100.66 128.18,100.66 128.18,112.03 116.81,112.03 116.81,123.4 105.44,123.4 
						105.44,134.78 94.07,134.78 94.07,146.15 82.7,146.15 82.7,157.52 71.32,157.52 71.32,168.89 59.95,168.89 59.95,180.26 
						48.58,180.26 48.58,191.63 37.21,191.63 37.21,203 25.84,203 25.84,214.38 14.47,214.38 14.47,225.75 3.1,225.75 3.1,237.74 
											"/>
					<polyline class="st69" points="198.79,45.56 186.8,45.56 186.8,56.93 175.42,56.93 175.42,68.3 164.05,68.3 164.05,79.67 
						152.68,79.67 152.68,91.04 141.31,91.04 141.31,102.42 129.94,102.42 129.94,113.79 118.57,113.79 118.57,125.16 
						107.19,125.16 107.19,136.53 95.82,136.53 95.82,147.9 84.45,147.9 84.45,159.27 73.08,159.27 73.08,170.65 61.71,170.65 
						61.71,182.02 50.34,182.02 50.34,193.39 38.97,193.39 38.97,204.76 27.59,204.76 27.59,216.13 16.22,216.13 16.22,227.5 
						4.85,227.5 4.85,239.5 					"/>
					<polyline class="st69" points="200.55,47.31 188.55,47.31 188.55,58.69 177.18,58.69 177.18,70.06 165.81,70.06 165.81,81.43 
						154.44,81.43 154.44,92.8 143.06,92.8 143.06,104.17 131.69,104.17 131.69,115.54 120.32,115.54 120.32,126.91 108.95,126.91 
						108.95,138.29 97.58,138.29 97.58,149.66 86.21,149.66 86.21,161.03 74.84,161.03 74.84,172.4 63.46,172.4 63.46,183.77 
						52.09,183.77 52.09,195.14 40.72,195.14 40.72,206.52 29.35,206.52 29.35,217.89 17.98,217.89 17.98,229.26 6.61,229.26 
						6.61,241.26 					"/>
					<polyline class="st69" points="202.3,49.07 190.31,49.07 190.31,60.44 178.93,60.44 178.93,71.81 167.56,71.81 167.56,83.18 
						156.19,83.18 156.19,94.55 144.82,94.55 144.82,105.93 133.45,105.93 133.45,117.3 122.08,117.3 122.08,128.67 110.7,128.67 
						110.7,140.04 99.33,140.04 99.33,151.41 87.96,151.41 87.96,162.78 76.59,162.78 76.59,174.16 65.22,174.16 65.22,185.53 
						53.85,185.53 53.85,196.9 42.48,196.9 42.48,208.27 31.1,208.27 31.1,219.64 19.73,219.64 19.73,231.01 8.36,231.01 
						8.36,243.01 					"/>
				</g>
			</g>
			<g>
				<g>
					<line class="st69" x1="10.71" y1="243.02" x2="205.23" y2="48.5"/>
					<line class="st69" x1="13.42" y1="245.72" x2="207.94" y2="51.2"/>
					<line class="st69" x1="16.12" y1="248.42" x2="210.64" y2="53.9"/>
					<line class="st69" x1="18.82" y1="251.12" x2="213.34" y2="56.6"/>
					<line class="st69" x1="21.52" y1="253.82" x2="216.04" y2="59.3"/>
				</g>
				<g>
					<polyline class="st69" points="221.77,68.54 209.77,68.54 209.77,79.91 198.4,79.91 198.4,91.28 187.03,91.28 187.03,102.65 
						175.66,102.65 175.66,114.02 164.29,114.02 164.29,125.4 152.92,125.4 152.92,136.77 141.55,136.77 141.55,148.14 
						130.17,148.14 130.17,159.51 118.8,159.51 118.8,170.88 107.43,170.88 107.43,182.25 96.06,182.25 96.06,193.62 84.69,193.62 
						84.69,205 73.32,205 73.32,216.37 61.94,216.37 61.94,227.74 50.57,227.74 50.57,239.11 39.2,239.11 39.2,250.48 27.83,250.48 
						27.83,262.48 					"/>
					<polyline class="st69" points="223.53,70.29 211.53,70.29 211.53,81.66 200.16,81.66 200.16,93.04 188.79,93.04 188.79,104.41 
						177.42,104.41 177.42,115.78 166.04,115.78 166.04,127.15 154.67,127.15 154.67,138.52 143.3,138.52 143.3,149.89 
						131.93,149.89 131.93,161.27 120.56,161.27 120.56,172.64 109.19,172.64 109.19,184.01 97.81,184.01 97.81,195.38 
						86.44,195.38 86.44,206.75 75.07,206.75 75.07,218.12 63.7,218.12 63.7,229.49 52.33,229.49 52.33,240.87 40.96,240.87 
						40.96,252.24 29.58,252.24 29.58,264.23 					"/>
					<polyline class="st69" points="225.28,72.05 213.28,72.05 213.28,83.42 201.91,83.42 201.91,94.79 190.54,94.79 190.54,106.16 
						179.17,106.16 179.17,117.53 167.8,117.53 167.8,128.91 156.43,128.91 156.43,140.28 145.06,140.28 145.06,151.65 
						133.68,151.65 133.68,163.02 122.31,163.02 122.31,174.39 110.94,174.39 110.94,185.76 99.57,185.76 99.57,197.13 88.2,197.13 
						88.2,208.51 76.83,208.51 76.83,219.88 65.45,219.88 65.45,231.25 54.08,231.25 54.08,242.62 42.71,242.62 42.71,253.99 
						31.34,253.99 31.34,265.99 					"/>
					<polyline class="st69" points="227.04,73.8 215.04,73.8 215.04,85.17 203.67,85.17 203.67,96.55 192.3,96.55 192.3,107.92 
						180.93,107.92 180.93,119.29 169.55,119.29 169.55,130.66 158.18,130.66 158.18,142.03 146.81,142.03 146.81,153.4 
						135.44,153.4 135.44,164.78 124.07,164.78 124.07,176.15 112.7,176.15 112.7,187.52 101.32,187.52 101.32,198.89 89.95,198.89 
						89.95,210.26 78.58,210.26 78.58,221.63 67.21,221.63 67.21,233 55.84,233 55.84,244.38 44.47,244.38 44.47,255.75 
						33.1,255.75 33.1,267.74 					"/>
					<polyline class="st69" points="228.79,75.56 216.8,75.56 216.8,86.93 205.42,86.93 205.42,98.3 194.05,98.3 194.05,109.67 
						182.68,109.67 182.68,121.04 171.31,121.04 171.31,132.42 159.94,132.42 159.94,143.79 148.57,143.79 148.57,155.16 
						137.19,155.16 137.19,166.53 125.82,166.53 125.82,177.9 114.45,177.9 114.45,189.27 103.08,189.27 103.08,200.65 
						91.71,200.65 91.71,212.02 80.34,212.02 80.34,223.39 68.97,223.39 68.97,234.76 57.59,234.76 57.59,246.13 46.22,246.13 
						46.22,257.5 34.85,257.5 34.85,269.5 					"/>
				</g>
			</g>
			<g>
				<g>
					<line class="st69" x1="37.2" y1="269.51" x2="231.72" y2="74.99"/>
					<line class="st69" x1="39.91" y1="272.21" x2="234.43" y2="77.69"/>
					<line class="st69" x1="42.61" y1="274.91" x2="237.13" y2="80.39"/>
					<line class="st69" x1="45.31" y1="277.61" x2="239.83" y2="83.09"/>
					<line class="st69" x1="48.01" y1="280.31" x2="242.53" y2="85.79"/>
				</g>
				<g>
					<polyline class="st69" points="248.26,95.03 236.26,95.03 236.26,106.4 224.89,106.4 224.89,117.77 213.52,117.77 
						213.52,129.14 202.15,129.14 202.15,140.51 190.78,140.51 190.78,151.88 179.41,151.88 179.41,163.26 168.03,163.26 
						168.03,174.63 156.66,174.63 156.66,186 145.29,186 145.29,197.37 133.92,197.37 133.92,208.74 122.55,208.74 122.55,220.11 
						111.18,220.11 111.18,231.49 99.81,231.49 99.81,242.86 88.43,242.86 88.43,254.23 77.06,254.23 77.06,265.6 65.69,265.6 
						65.69,276.97 54.32,276.97 54.32,288.97 					"/>
					<polyline class="st69" points="250.02,96.78 238.02,96.78 238.02,108.15 226.65,108.15 226.65,119.53 215.28,119.53 
						215.28,130.9 203.9,130.9 203.9,142.27 192.53,142.27 192.53,153.64 181.16,153.64 181.16,165.01 169.79,165.01 169.79,176.38 
						158.42,176.38 158.42,187.75 147.05,187.75 147.05,199.13 135.68,199.13 135.68,210.5 124.3,210.5 124.3,221.87 112.93,221.87 
						112.93,233.24 101.56,233.24 101.56,244.61 90.19,244.61 90.19,255.98 78.82,255.98 78.82,267.36 67.45,267.36 67.45,278.73 
						56.07,278.73 56.07,290.72 					"/>
					<polyline class="st69" points="251.77,98.54 239.77,98.54 239.77,109.91 228.4,109.91 228.4,121.28 217.03,121.28 
						217.03,132.65 205.66,132.65 205.66,144.02 194.29,144.02 194.29,155.4 182.92,155.4 182.92,166.77 171.55,166.77 
						171.55,178.14 160.17,178.14 160.17,189.51 148.8,189.51 148.8,200.88 137.43,200.88 137.43,212.25 126.06,212.25 
						126.06,223.62 114.69,223.62 114.69,235 103.32,235 103.32,246.37 91.94,246.37 91.94,257.74 80.57,257.74 80.57,269.11 
						69.2,269.11 69.2,280.48 57.83,280.48 57.83,292.48 					"/>
					<polyline class="st69" points="253.53,100.29 241.53,100.29 241.53,111.66 230.16,111.66 230.16,123.04 218.79,123.04 
						218.79,134.41 207.41,134.41 207.41,145.78 196.04,145.78 196.04,157.15 184.67,157.15 184.67,168.52 173.3,168.52 
						173.3,179.89 161.93,179.89 161.93,191.26 150.56,191.26 150.56,202.64 139.19,202.64 139.19,214.01 127.81,214.01 
						127.81,225.38 116.44,225.38 116.44,236.75 105.07,236.75 105.07,248.12 93.7,248.12 93.7,259.49 82.33,259.49 82.33,270.87 
						70.96,270.87 70.96,282.24 59.58,282.24 59.58,294.23 					"/>
					<polyline class="st69" points="255.28,102.05 243.28,102.05 243.28,113.42 231.91,113.42 231.91,124.79 220.54,124.79 
						220.54,136.16 209.17,136.16 209.17,147.53 197.8,147.53 197.8,158.91 186.43,158.91 186.43,170.28 175.06,170.28 
						175.06,181.65 163.68,181.65 163.68,193.02 152.31,193.02 152.31,204.39 140.94,204.39 140.94,215.76 129.57,215.76 
						129.57,227.13 118.2,227.13 118.2,238.51 106.83,238.51 106.83,249.88 95.45,249.88 95.45,261.25 84.08,261.25 84.08,272.62 
						72.71,272.62 72.71,283.99 61.34,283.99 61.34,295.99 					"/>
				</g>
			</g>
			<g>
				<g>
					<line class="st69" x1="63.69" y1="296" x2="258.21" y2="101.48"/>
					<line class="st69" x1="66.4" y1="298.7" x2="260.92" y2="104.18"/>
					<line class="st69" x1="69.1" y1="301.4" x2="263.62" y2="106.88"/>
					<line class="st69" x1="71.8" y1="304.1" x2="266.32" y2="109.58"/>
					<line class="st69" x1="74.5" y1="306.8" x2="269.02" y2="112.28"/>
				</g>
				<g>
					<polyline class="st69" points="274.75,121.52 262.75,121.52 262.75,132.89 251.38,132.89 251.38,144.26 240.01,144.26 
						240.01,155.63 228.64,155.63 228.64,167 217.27,167 217.27,178.37 205.9,178.37 205.9,189.75 194.52,189.75 194.52,201.12 
						183.15,201.12 183.15,212.49 171.78,212.49 171.78,223.86 160.41,223.86 160.41,235.23 149.04,235.23 149.04,246.6 
						137.67,246.6 137.67,257.98 126.29,257.98 126.29,269.35 114.92,269.35 114.92,280.72 103.55,280.72 103.55,292.09 
						92.18,292.09 92.18,303.46 80.81,303.46 80.81,315.46 					"/>
					<polyline class="st69" points="276.51,123.27 264.51,123.27 264.51,134.64 253.14,134.64 253.14,146.01 241.77,146.01 
						241.77,157.39 230.39,157.39 230.39,168.76 219.02,168.76 219.02,180.13 207.65,180.13 207.65,191.5 196.28,191.5 
						196.28,202.87 184.91,202.87 184.91,214.24 173.54,214.24 173.54,225.62 162.16,225.62 162.16,236.99 150.79,236.99 
						150.79,248.36 139.42,248.36 139.42,259.73 128.05,259.73 128.05,271.1 116.68,271.1 116.68,282.47 105.31,282.47 
						105.31,293.84 93.94,293.84 93.94,305.22 82.56,305.22 82.56,317.21 					"/>
					<polyline class="st69" points="278.26,125.03 266.26,125.03 266.26,136.4 254.89,136.4 254.89,147.77 243.52,147.77 
						243.52,159.14 232.15,159.14 232.15,170.51 220.78,170.51 220.78,181.88 209.41,181.88 209.41,193.26 198.03,193.26 
						198.03,204.63 186.66,204.63 186.66,216 175.29,216 175.29,227.37 163.92,227.37 163.92,238.74 152.55,238.74 152.55,250.11 
						141.18,250.11 141.18,261.49 129.81,261.49 129.81,272.86 118.43,272.86 118.43,284.23 107.06,284.23 107.06,295.6 
						95.69,295.6 95.69,306.97 84.32,306.97 84.32,318.97 					"/>
					<polyline class="st69" points="280.02,126.78 268.02,126.78 268.02,138.15 256.65,138.15 256.65,149.53 245.28,149.53 
						245.28,160.9 233.9,160.9 233.9,172.27 222.53,172.27 222.53,183.64 211.16,183.64 211.16,195.01 199.79,195.01 199.79,206.38 
						188.42,206.38 188.42,217.75 177.05,217.75 177.05,229.13 165.68,229.13 165.68,240.5 154.3,240.5 154.3,251.87 142.93,251.87 
						142.93,263.24 131.56,263.24 131.56,274.61 120.19,274.61 120.19,285.98 108.82,285.98 108.82,297.36 97.45,297.36 
						97.45,308.73 86.07,308.73 86.07,320.72 					"/>
					<polyline class="st69" points="281.77,128.54 269.77,128.54 269.77,139.91 258.4,139.91 258.4,151.28 247.03,151.28 
						247.03,162.65 235.66,162.65 235.66,174.02 224.29,174.02 224.29,185.39 212.92,185.39 212.92,196.77 201.54,196.77 
						201.54,208.14 190.17,208.14 190.17,219.51 178.8,219.51 178.8,230.88 167.43,230.88 167.43,242.25 156.06,242.25 
						156.06,253.62 144.69,253.62 144.69,265 133.32,265 133.32,276.37 121.94,276.37 121.94,287.74 110.57,287.74 110.57,299.11 
						99.2,299.11 99.2,310.48 87.83,310.48 87.83,322.48 					"/>
				</g>
			</g>
		</g>
	</g>
	<g class="st67">
		<text transform="matrix(0 1 -1 0 28.295 49.2009)" class="st57 st58 st70">DESIGN</text>
		<text transform="matrix(0 1 -1 0 50.3301 49.2009)" class="st57 st60 st70">COVER</text>
	</g>
	
		<rect x="52.63" y="69.61" transform="matrix(-1.836970e-16 1 -1 -1.836970e-16 146.0002 -3.4326)" class="st71" width="44.17" height="3.35"/>
	<g class="st67">
		<rect x="109.43" y="179.85" class="st62" width="32.67" height="26.97"/>
		<text transform="matrix(1 0 0 1 109.4337 182.6928)"><tspan x="0" y="0" class="st57 st63 st64">Lorem ipsum dolor </tspan><tspan x="0" y="4.8" class="st57 st63 st64">sit amet, </tspan><tspan x="0" y="9.6" class="st57 st63 st64">consectetuer </tspan><tspan x="0" y="14.4" class="st57 st63 st64">adipiscing elit, sed </tspan><tspan x="0" y="19.2" class="st57 st63 st64">diam </tspan></text>
	</g>
</g>
<g class="st65">
	
		<linearGradient id="SVGID_00000025428292703439130080000017816078715255718329_" gradientUnits="userSpaceOnUse" x1="-3.4006" y1="28.5339" x2="192.5716" y2="224.5061">
		<stop  offset="0" style="stop-color:#00E9FF"/>
		<stop  offset="1" style="stop-color:#0000AF"/>
	</linearGradient>
	
		<rect x="7.08" y="6.49" style="display:inline;fill:url(#SVGID_00000025428292703439130080000017816078715255718329_);" width="157.01" height="222.06"/>
	<g class="st67">
		<defs>
			<rect id="SVGID_00000150094770056579669790000015523632074604941452_" x="7.08" y="6.49" width="157.01" height="222.06"/>
		</defs>
		<clipPath id="SVGID_00000021108488004391725440000001898841042823447457_">
			<use xlink:href="#SVGID_00000150094770056579669790000015523632074604941452_"  style="overflow:visible;"/>
		</clipPath>
		<g style="opacity:0.6;clip-path:url(#SVGID_00000021108488004391725440000001898841042823447457_);">
			<path class="st74" d="M205.61,24.42c-11.76,1.54-20.04,12.32-18.5,24.08h0c1.54,11.76-35.49,0.46-47.24,2h0
				c-11.76,1.54-20.04,12.32-18.5,24.08l0,0c1.54,11.76,22,44.62,10.24,46.16h0c-58.94-3.61-2.2,27.98-0.66,39.74v0
				c1.54,11.76-6.74,22.54-18.5,24.08l0,0c-11.76,1.54-37.89-3.34-36.34,8.42l0,0c1.54,11.76-55.46-14.88-67.21-13.34h0
				c-11.76,1.54-20.04,12.32-18.5,24.08l0,0c1.54,11.76,41.97,59.96,30.21,61.5l0,0c-11.76,1.54-20.04,12.32-18.5,24.08"/>
			<path class="st75" d="M206.6,25.18c-11.76,1.54-20.04,12.32-18.5,24.08v0c1.54,11.76-33.57,1.93-45.33,3.47l0,0
				c-11.76,1.54-20.04,12.32-18.5,24.08l0,0c1.54,11.76,20.09,43.15,8.33,44.69l0,0c-55.79-3.27-0.37,29.26,1.17,41.02l0,0
				c1.54,11.76-6.74,22.54-18.5,24.08h0c-11.76,1.54-39.71-4.61-38.17,7.15v0c1.54,11.76-52.21-12.39-63.97-10.85h0
				c-11.76,1.54-20.04,12.32-18.5,24.08l0,0c1.54,11.76,38.73,57.47,26.97,59.01h0c-11.76,1.54-20.04,12.32-18.5,24.08"/>
			<path class="st76" d="M207.59,25.95c-11.76,1.54-20.04,12.32-18.5,24.08l0,0c1.54,11.76-31.65,3.4-43.41,4.94h0
				c-11.76,1.54-20.04,12.32-18.5,24.08v0c1.54,11.76,18.17,41.68,6.41,43.22h0c-52.65-2.92,1.46,30.53,3,42.29l0,0
				c1.54,11.76-6.74,22.54-18.5,24.08l0,0c-11.76,1.54-41.54-5.89-40,5.87h0c1.54,11.76-48.96-9.89-60.72-8.35h0
				c-11.76,1.54-20.04,12.32-18.5,24.08l0,0c1.54,11.76,35.48,54.97,23.72,56.51h0c-11.76,1.54-20.04,12.32-18.5,24.08"/>
			<path class="st77" d="M208.58,26.71c-11.76,1.54-20.04,12.32-18.5,24.08v0c1.54,11.76-29.74,4.87-41.49,6.42l0,0
				c-11.76,1.54-20.04,12.32-18.5,24.08l0,0c1.54,11.76,16.25,40.21,4.5,41.75l0,0c-49.5-2.58,3.29,31.81,4.83,43.56v0
				c1.54,11.76-6.74,22.54-18.5,24.08l0,0c-11.76,1.54-43.37-7.16-41.83,4.6l0,0c1.54,11.76-45.71-7.4-57.47-5.86h0
				c-11.76,1.54-20.04,12.32-18.5,24.08h0c1.54,11.76,32.23,52.48,20.47,54.02l0,0c-11.76,1.54-20.04,12.32-18.5,24.08"/>
			<path class="st78" d="M209.57,27.47c-11.76,1.54-20.04,12.32-18.5,24.08l0,0c1.54,11.76-27.82,6.35-39.58,7.89h0
				c-11.76,1.54-20.04,12.32-18.5,24.08v0c1.54,11.76,14.34,38.73,2.58,40.27l0,0c-46.36-2.24,5.11,33.08,6.66,44.84l0,0
				c1.54,11.76-6.74,22.54-18.5,24.08h0c-11.76,1.54-45.2-8.43-43.65,3.32v0c1.54,11.76-42.46-4.9-54.22-3.36h0
				C14.09,194.22,5.81,205,7.35,216.76h0c1.54,11.76,28.98,49.98,17.22,51.52h0c-11.76,1.54-20.04,12.32-18.5,24.08"/>
			<path class="st79" d="M210.56,28.23c-11.76,1.54-20.04,12.32-18.5,24.08l0,0c1.54,11.76-25.9,7.82-37.66,9.36v0
				c-11.76,1.54-20.04,12.32-18.5,24.08v0c1.54,11.76,12.42,37.26,0.66,38.8h0c-43.21-1.89,6.94,34.35,8.48,46.11l0,0
				c1.54,11.76-6.74,22.54-18.5,24.08l0,0c-11.76,1.54-47.02-9.71-45.48,2.05l0,0c1.54,11.76-39.22-2.41-50.98-0.87l0,0
				c-11.76,1.54-20.04,12.32-18.5,24.08l0,0c1.54,11.76,25.73,47.49,13.98,49.03h0c-11.76,1.54-20.04,12.32-18.5,24.08"/>
			<path class="st80" d="M211.56,28.99c-11.76,1.54-20.04,12.32-18.5,24.08v0c1.54,11.76-23.99,9.29-35.75,10.83h0
				c-11.76,1.54-20.04,12.32-18.5,24.08l0,0c1.54,11.76,10.51,35.79-1.25,37.33l0,0c-40.07-1.55,8.77,35.63,10.31,47.39v0
				c1.54,11.76-6.74,22.54-18.5,24.08l0,0c-11.76,1.54-48.85-10.98-47.31,0.78v0c1.54,11.76-35.97,0.09-47.73,1.63h0
				c-11.76,1.54-20.04,12.32-18.5,24.08v0c1.54,11.76,22.49,44.99,10.73,46.53h0c-11.76,1.54-20.04,12.32-18.5,24.08"/>
			<path class="st81" d="M212.55,29.76c-11.76,1.54-20.04,12.32-18.5,24.08l0,0c1.54,11.76-22.07,10.76-33.83,12.3l0,0
				c-11.76,1.54-20.04,12.32-18.5,24.08v0c1.54,11.76,8.59,34.32-3.17,35.86h0c-36.92-1.21,10.6,36.9,12.14,48.66l0,0
				c1.54,11.76-6.74,22.54-18.5,24.08h0c-11.76,1.54-50.68-12.26-49.14-0.5l0,0c1.54,11.76-32.72,2.58-44.48,4.12l0,0
				c-11.76,1.54-20.04,12.32-18.5,24.08v0c1.54,11.76,19.24,42.5,7.48,44.04h0c-11.76,1.54-20.04,12.32-18.5,24.08"/>
			<path class="st82" d="M213.54,30.52c-11.76,1.54-20.04,12.32-18.5,24.08v0c1.54,11.76-20.16,12.23-31.91,13.78l0,0
				c-11.76,1.54-20.04,12.32-18.5,24.08l0,0c1.54,11.76,6.67,32.84-5.09,34.39l0,0c-33.78-0.86,12.43,38.18,13.97,49.93v0
				c1.54,11.76-6.74,22.54-18.5,24.08l0,0c-11.76,1.54-52.51-13.53-50.97-1.77l0,0c1.54,11.76-29.47,5.08-41.23,6.62l0,0
				c-11.76,1.54-20.04,12.32-18.5,24.08v0c1.54,11.76,15.99,40,4.23,41.55l0,0c-11.76,1.54-20.04,12.32-18.5,24.08"/>
			<path class="st83" d="M214.53,31.28c-11.76,1.54-20.04,12.32-18.5,24.08l0,0c1.54,11.76-18.24,13.71-30,15.25h0
				c-11.76,1.54-20.04,12.32-18.5,24.08l0,0c1.54,11.76,4.76,31.37-7,32.91l0,0c-30.63-0.52,14.25,39.45,15.79,51.21l0,0
				c1.54,11.76-6.74,22.54-18.5,24.08l0,0c-11.76,1.54-54.34-14.8-52.79-3.05v0c1.54,11.76-26.23,7.57-37.99,9.11l0,0
				c-11.76,1.54-20.04,12.32-18.5,24.08l0,0c1.54,11.76,12.74,37.51,0.99,39.05h0c-11.76,1.54-20.04,12.32-18.5,24.08"/>
			<path class="st84" d="M215.52,32.04c-11.76,1.54-20.04,12.32-18.5,24.08l0,0c1.54,11.76-16.32,15.18-28.08,16.72h0
				c-11.76,1.54-20.04,12.32-18.5,24.08v0c1.54,11.76,2.84,29.9-8.92,31.44h0c-27.48-0.18,16.08,40.72,17.62,52.48v0
				c1.54,11.76-6.74,22.54-18.5,24.08h0c-11.76,1.54-56.16-16.08-54.62-4.32l0,0c1.54,11.76-22.98,10.07-34.74,11.61h0
				c-11.76,1.54-20.04,12.32-18.5,24.08v0c1.54,11.76,9.5,35.01-2.26,36.56h0c-11.76,1.54-20.04,12.32-18.5,24.08"/>
			<path class="st85" d="M216.52,32.8c-11.76,1.54-20.04,12.32-18.5,24.08v0c1.54,11.76-14.41,16.65-26.16,18.19l0,0
				c-11.76,1.54-20.04,12.32-18.5,24.08l0,0c1.54,11.76,0.92,28.43-10.83,29.97l0,0c-24.34,0.17,17.91,42,19.45,53.76v0
				c1.54,11.76-6.74,22.54-18.5,24.08l0,0c-11.76,1.54-57.99-17.35-56.45-5.59v0c1.54,11.76-19.73,12.56-31.49,14.1h0
				c-11.76,1.54-20.04,12.32-18.5,24.08v0c1.54,11.76,6.25,32.52-5.51,34.06l0,0c-11.76,1.54-20.04,12.32-18.5,24.08"/>
			<path class="st86" d="M217.51,33.57c-11.76,1.54-20.04,12.32-18.5,24.08l0,0c1.54,11.76-12.49,18.12-24.25,19.66h0
				c-11.76,1.54-20.04,12.32-18.5,24.08l0,0c1.54,11.76-0.99,26.96-12.75,28.5l0,0c-21.19,0.51,19.74,43.27,21.28,55.03l0,0
				c1.54,11.76-6.74,22.54-18.5,24.08l0,0c-11.76,1.54-59.82-18.63-58.28-6.87l0,0c1.54,11.76-16.48,15.06-28.24,16.6l0,0
				c-11.76,1.54-20.04,12.32-18.5,24.08v0c1.54,11.76,3,30.02-8.76,31.57h0c-11.76,1.54-20.04,12.32-18.5,24.08"/>
			<path class="st87" d="M218.5,34.33c-11.76,1.54-20.04,12.32-18.5,24.08v0c1.54,11.76-10.57,19.6-22.33,21.14h0
				c-11.76,1.54-20.04,12.32-18.5,24.08v0c1.54,11.76-2.91,25.48-14.67,27.03h0c-18.05,0.85,21.56,44.55,23.11,56.3v0
				c1.54,11.76-6.74,22.54-18.5,24.08h0c-11.76,1.54-61.65-19.9-60.11-8.14l0,0c1.54,11.76-13.24,17.55-24.99,19.09h0
				c-11.76,1.54-20.04,12.32-18.5,24.08v0c1.54,11.76-0.25,27.53-12,29.07l0,0c-11.76,1.54-20.04,12.32-18.5,24.08"/>
			<path class="st88" d="M219.49,35.09c-11.76,1.54-20.04,12.32-18.5,24.08l0,0c1.54,11.76-8.66,21.07-20.42,22.61h0
				c-11.76,1.54-20.04,12.32-18.5,24.08l0,0c1.54,11.76-4.82,24.01-16.58,25.55l0,0c-14.9,1.2,23.39,45.82,24.93,57.58v0
				c1.54,11.76-6.74,22.54-18.5,24.08h0c-11.76,1.54-63.47-21.17-61.93-9.42v0c1.54,11.76-9.99,20.04-21.75,21.59h0
				c-11.76,1.54-20.04,12.32-18.5,24.08v0c1.54,11.76-3.49,25.03-15.25,26.58h0c-11.76,1.54-20.04,12.32-18.5,24.08"/>
			<path class="st89" d="M220.48,35.85c-11.76,1.54-20.04,12.32-18.5,24.08v0c1.54,11.76-6.74,22.54-18.5,24.08h0
				c-11.76,1.54-20.04,12.32-18.5,24.08l0,0c1.54,11.76-6.74,22.54-18.5,24.08h0c-11.76,1.54,25.22,47.09,26.76,58.85l0,0
				c1.54,11.76-6.74,22.54-18.5,24.08l0,0c-11.76,1.54-65.3-22.45-63.76-10.69l0,0c1.54,11.76-6.74,22.54-18.5,24.08h0
				c-11.76,1.54-20.04,12.32-18.5,24.08v0c1.54,11.76-6.74,22.54-18.5,24.08l0,0c-11.76,1.54-20.04,12.32-18.5,24.08"/>
		</g>
		<g style="opacity:0.2;clip-path:url(#SVGID_00000021108488004391725440000001898841042823447457_);">
			<path class="st74" d="M0.12,153.48c8.95-1.17,15.26-9.38,14.09-18.34l0,0c-1.17-8.95,27.02-0.35,35.97-1.52l0,0
				c8.95-1.17,15.26-9.38,14.09-18.34l0,0c-1.17-8.95-16.75-33.98-7.8-35.15l0,0c19.09-19.39,1.67-21.31,0.5-30.26l0,0
				c-1.17-8.95,5.13-17.16,14.09-18.34l0,0c8.95-1.17,28.85,2.54,27.67-6.41v0c-1.17-8.95,42.23,11.33,51.18,10.16h0
				c8.95-1.17,15.26-9.38,14.09-18.34l0,0c-1.17-8.95-31.96-45.66-23.01-46.83l0,0c8.95-1.17,15.26-9.38,14.09-18.34"/>
			<path class="st75" d="M-0.64,152.9c8.95-1.17,15.26-9.38,14.09-18.34h0c-1.17-8.95,25.56-1.47,34.51-2.64h0
				c8.95-1.17,15.26-9.38,14.09-18.34l0,0c-1.17-8.95-15.29-32.86-6.34-34.03l0,0c18.41-18.17,0.28-22.28-0.89-31.23l0,0
				c-1.17-8.95,5.13-17.16,14.09-18.34h0c8.95-1.17,30.24,3.51,29.07-5.44l0,0c-1.17-8.95,39.75,9.43,48.71,8.26l0,0
				c8.95-1.17,15.26-9.38,14.09-18.34l0,0c-1.17-8.95-29.49-43.76-20.53-44.93l0,0c8.95-1.17,15.26-9.38,14.09-18.34"/>
			<path class="st76" d="M-1.39,152.32c8.95-1.17,15.26-9.38,14.09-18.34v0c-1.17-8.95,24.1-2.59,33.05-3.76l0,0
				c8.95-1.17,15.26-9.38,14.09-18.34v0c-1.17-8.95-13.84-31.73-4.88-32.91l0,0c17.73-16.96-1.11-23.25-2.28-32.2l0,0
				c-1.17-8.95,5.13-17.16,14.09-18.34l0,0c8.95-1.17,31.63,4.48,30.46-4.47v0c-1.17-8.95,37.28,7.53,46.23,6.36h0
				c8.95-1.17,15.26-9.38,14.09-18.34v0c-1.17-8.95-27.01-41.86-18.06-43.03l0,0c8.95-1.17,15.26-9.38,14.09-18.34"/>
			<path class="st77" d="M-2.15,151.74c8.95-1.17,15.26-9.38,14.09-18.34l0,0c-1.17-8.95,22.64-3.71,31.6-4.89h0
				c8.95-1.17,15.26-9.38,14.09-18.34l0,0c-1.17-8.95-12.38-30.61-3.42-31.79h0c17.06-15.74-2.5-24.22-3.68-33.17l0,0
				c-1.17-8.95,5.13-17.16,14.09-18.34l0,0c8.95-1.17,33.02,5.45,31.85-3.5l0,0c-1.17-8.95,34.81,5.63,43.76,4.46l0,0
				c8.95-1.17,15.26-9.38,14.09-18.34v0c-1.17-8.95-24.54-39.96-15.59-41.13l0,0c8.95-1.17,15.26-9.38,14.09-18.34"/>
			<path class="st78" d="M-2.9,151.16c8.95-1.17,15.26-9.38,14.09-18.34h0c-1.17-8.95,21.18-4.83,30.14-6.01l0,0
				c8.95-1.17,15.26-9.38,14.09-18.34l0,0c-1.17-8.95-10.92-29.49-1.96-30.67h0c16.38-14.53-3.89-25.19-5.07-34.14l0,0
				c-1.17-8.95,5.13-17.16,14.09-18.34h0c8.95-1.17,34.41,6.42,33.24-2.53l0,0c-1.17-8.95,32.33,3.73,41.29,2.56h0
				c8.95-1.17,15.26-9.38,14.09-18.34v0c-1.17-8.95-22.07-38.06-13.12-39.23h0c8.95-1.17,15.26-9.38,14.09-18.34"/>
			<path class="st79" d="M-3.66,150.58c8.95-1.17,15.26-9.38,14.09-18.34l0,0c-1.17-8.95,19.72-5.95,28.68-7.13l0,0
				c8.95-1.17,15.26-9.38,14.09-18.34l0,0c-1.17-8.95-9.46-28.37-0.51-29.55l0,0c15.71-13.32-5.29-26.16-6.46-35.11l0,0
				c-1.17-8.95,5.13-17.16,14.09-18.34l0,0c8.95-1.17,35.81,7.39,34.63-1.56l0,0c-1.17-8.95,29.86,1.83,38.81,0.66l0,0
				c8.95-1.17,15.26-9.38,14.09-18.34l0,0c-1.17-8.95-19.6-36.16-10.64-37.33h0c8.95-1.17,15.26-9.38,14.09-18.34"/>
			<path class="st80" d="M-4.41,150c8.95-1.17,15.26-9.38,14.09-18.34h0c-1.17-8.95,18.27-7.07,27.22-8.25h0
				c8.95-1.17,15.26-9.38,14.09-18.34l0,0c-1.17-8.95-8-27.25,0.95-28.42l0,0c15.03-12.1-6.68-27.13-7.85-36.08v0
				c-1.17-8.95,5.13-17.16,14.09-18.34v0c8.95-1.17,37.2,8.36,36.02-0.59l0,0c-1.17-8.95,27.39-0.07,36.34-1.24h0
				c8.95-1.17,15.26-9.38,14.09-18.34l0,0c-1.17-8.95-17.12-34.26-8.17-35.43h0c8.95-1.17,15.26-9.38,14.09-18.34"/>
			<path class="st81" d="M-5.17,149.42c8.95-1.17,15.26-9.38,14.09-18.34l0,0c-1.17-8.95,16.81-8.2,25.76-9.37l0,0
				c8.95-1.17,15.26-9.38,14.09-18.34l0,0c-1.17-8.95-6.54-26.13,2.41-27.3l0,0c14.36-10.89-8.07-28.1-9.24-37.05v0
				c-1.17-8.95,5.13-17.16,14.09-18.34h0c8.95-1.17,38.59,9.33,37.42,0.38v0c-1.17-8.95,24.92-1.97,33.87-3.14l0,0
				c8.95-1.17,15.26-9.38,14.09-18.34l0,0c-1.17-8.95-14.65-32.36-5.7-33.53l0,0c8.95-1.17,15.26-9.38,14.09-18.34"/>
			<path class="st82" d="M-5.92,148.84c8.95-1.17,15.26-9.38,14.09-18.34h0c-1.17-8.95,15.35-9.32,24.3-10.49h0
				c8.95-1.17,15.26-9.38,14.09-18.34v0c-1.17-8.95-5.08-25.01,3.87-26.18l0,0c13.68-9.67-9.46-29.07-10.63-38.02v0
				c-1.17-8.95,5.13-17.16,14.09-18.34l0,0c8.95-1.17,39.98,10.3,38.81,1.35l0,0c-1.17-8.95,22.44-3.86,31.4-5.04h0
				c8.95-1.17,15.26-9.38,14.09-18.34v0c-1.17-8.95-12.18-30.46-3.22-31.63l0,0c8.95-1.17,15.26-9.38,14.09-18.34"/>
			<path class="st83" d="M-6.68,148.26c8.95-1.17,15.26-9.38,14.09-18.34v0c-1.17-8.95,13.89-10.44,22.84-11.61l0,0
				c8.95-1.17,15.26-9.38,14.09-18.34l0,0c-1.17-8.95-3.62-23.89,5.33-25.06l0,0c13.01-8.46-10.85-30.04-12.03-38.99v0
				c-1.17-8.95,5.13-17.16,14.09-18.34l0,0c8.95-1.17,41.37,11.27,40.2,2.32v0c-1.17-8.95,19.97-5.76,28.92-6.94l0,0
				c8.95-1.17,15.26-9.38,14.09-18.34v0c-1.17-8.95-9.7-28.56-0.75-29.73l0,0c8.95-1.17,15.26-9.38,14.09-18.34"/>
			<path class="st84" d="M-7.43,147.68c8.95-1.17,15.26-9.38,14.09-18.34h0c-1.17-8.95,12.43-11.56,21.38-12.73h0
				c8.95-1.17,15.26-9.38,14.09-18.34l0,0c-1.17-8.95-2.16-22.77,6.79-23.94h0c12.33-7.24-12.24-31.01-13.42-39.96v0
				c-1.17-8.95,5.13-17.16,14.09-18.34h0c8.95-1.17,42.76,12.24,41.59,3.29l0,0c-1.17-8.95,17.5-7.66,26.45-8.84h0
				c8.95-1.17,15.26-9.38,14.09-18.34v0c-1.17-8.95-7.23-26.66,1.72-27.83v0c8.95-1.17,15.26-9.38,14.09-18.34"/>
			<path class="st85" d="M-8.19,147.1c8.95-1.17,15.26-9.38,14.09-18.34h0c-1.17-8.95,10.97-12.68,19.92-13.85h0
				c8.95-1.17,15.26-9.38,14.09-18.34v0c-1.17-8.95-0.7-21.65,8.25-22.82h0c11.66-6.03-13.64-31.98-14.81-40.93v0
				c-1.17-8.95,5.13-17.16,14.09-18.34l0,0c8.95-1.17,44.16,13.21,42.98,4.26v0c-1.17-8.95,15.02-9.56,23.98-10.74l0,0
				c8.95-1.17,15.26-9.38,14.09-18.34h0c-1.17-8.95-4.76-24.76,4.19-25.93h0c8.95-1.17,15.26-9.38,14.09-18.34"/>
			<path class="st86" d="M-8.94,146.52c8.95-1.17,15.26-9.38,14.09-18.34v0c-1.17-8.95,9.51-13.8,18.46-14.97l0,0
				c8.95-1.17,15.26-9.38,14.09-18.34l0,0c-1.17-8.95,0.76-20.53,9.71-21.7h0c10.98-4.82-15.03-32.95-16.2-41.9v0
				c-1.17-8.95,5.13-17.16,14.09-18.34l0,0c8.95-1.17,45.55,14.18,44.37,5.23l0,0c-1.17-8.95,12.55-11.46,21.5-12.64h0
				c8.95-1.17,15.26-9.38,14.09-18.34l0,0c-1.17-8.95-2.29-22.86,6.67-24.04h0c8.95-1.17,15.26-9.38,14.09-18.34"/>
			<path class="st87" d="M-9.7,145.94c8.95-1.17,15.26-9.38,14.09-18.34h0c-1.17-8.95,8.05-14.92,17-16.09h0
				c8.95-1.17,15.26-9.38,14.09-18.34l0,0c-1.17-8.95,2.21-19.4,11.17-20.58l0,0c10.3-3.6-16.42-33.92-17.59-42.87l0,0
				c-1.17-8.95,5.13-17.16,14.09-18.34h0c8.95-1.17,46.94,15.15,45.77,6.2l0,0C87.73,8.63,98.98,4.22,107.94,3.05h0
				c8.95-1.17,15.26-9.38,14.09-18.34l0,0c-1.17-8.95,0.19-20.96,9.14-22.14h0c8.95-1.17,15.26-9.38,14.09-18.34"/>
			<path class="st88" d="M-10.45,145.36c8.95-1.17,15.26-9.38,14.09-18.34l0,0c-1.17-8.95,6.59-16.04,15.55-17.22l0,0
				c8.95-1.17,15.26-9.38,14.09-18.34v0c-1.17-8.95,3.67-18.28,12.63-19.46l0,0c9.63-2.39-17.81-34.89-18.99-43.84l0,0
				c-1.17-8.95,5.13-17.16,14.09-18.34l0,0C49.94,8.66,89.32,25.96,88.15,17v0c-1.17-8.95,7.61-15.26,16.56-16.44h0
				c8.95-1.17,15.26-9.38,14.09-18.34l0,0c-1.17-8.95,2.66-19.06,11.61-20.24h0c8.95-1.17,15.26-9.38,14.09-18.34"/>
			<path class="st89" d="M-11.21,144.78c8.95-1.17,15.26-9.38,14.09-18.34l0,0c-1.17-8.95,5.13-17.16,14.09-18.34h0
				c8.95-1.17,15.26-9.38,14.09-18.34l0,0c-1.17-8.95,5.13-17.16,14.09-18.34v0c8.95-1.17-19.2-35.86-20.38-44.81l0,0
				c-1.17-8.95,5.13-17.16,14.09-18.34l0,0c8.95-1.17,49.72,17.09,48.55,8.14l0,0c-1.17-8.95,5.13-17.16,14.09-18.34h0
				c8.95-1.17,15.26-9.38,14.09-18.34v0c-1.17-8.95,5.13-17.16,14.09-18.34l0,0c8.95-1.17,15.26-9.38,14.09-18.34"/>
		</g>
	</g>
	<g class="st67">
		<text transform="matrix(1 0 0 1 52.7793 126.6911)" class="st57 st58 st91">DESIGN</text>
		<text transform="matrix(1 0 0 1 56.5058 111.632)" class="st57 st60 st91">COVER</text>
	</g>
	<g class="st67">
		<rect x="71.37" y="89.44" class="st57" width="28.43" height="2.16"/>
		<rect x="71.37" y="134.25" class="st57" width="28.43" height="2.16"/>
	</g>
	<g class="st67">
		<rect x="55.61" y="155.17" class="st62" width="59.95" height="15.57"/>
		<text transform="matrix(1 0 0 1 62.2764 158.0073)"><tspan x="0" y="0" class="st57 st63 st64">Lorem ipsum dolor sit amet, </tspan><tspan x="-3.33" y="4.8" class="st57 st63 st64">consectetuer adipiscing elit, sed </tspan><tspan x="19.08" y="9.6" class="st57 st63 st64">diam </tspan></text>
	</g>
</g>
<g class="st65">
	<g class="st67">
		
			<linearGradient id="SVGID_00000049909199364546817710000007951767553233228418_" gradientUnits="userSpaceOnUse" x1="-40.0558" y1="-9.2068" x2="152.5673" y2="183.4163">
			<stop  offset="0" style="stop-color:#FFF807"/>
			<stop  offset="1" style="stop-color:#00A0FD"/>
		</linearGradient>
		
			<rect x="8.17" y="6.49" style="fill:url(#SVGID_00000049909199364546817710000007951767553233228418_);" width="157.01" height="222.06"/>
		<g>
			<defs>
				<rect id="SVGID_00000085232446383264105240000006675957172779587492_" x="8.17" y="6.49" width="157.01" height="222.06"/>
			</defs>
			<clipPath id="SVGID_00000039120190187174687720000007513570080655635634_">
				<use xlink:href="#SVGID_00000085232446383264105240000006675957172779587492_"  style="overflow:visible;"/>
			</clipPath>
			<g style="clip-path:url(#SVGID_00000039120190187174687720000007513570080655635634_);">
				<g class="st94">
					
						<rect x="-4.33" y="-73.61" transform="matrix(0.7071 -0.7071 0.7071 0.7071 12.1477 68.6413)" class="st74" width="186.53" height="186.53"/>
					
						<rect x="-0.42" y="-69.69" transform="matrix(0.7071 -0.7071 0.7071 0.7071 12.1477 68.6413)" class="st75" width="178.69" height="178.69"/>
					
						<rect x="3.5" y="-65.77" transform="matrix(0.7071 -0.7071 0.7071 0.7071 12.1477 68.6413)" class="st76" width="170.86" height="170.86"/>
					
						<rect x="7.42" y="-61.85" transform="matrix(0.7071 -0.7071 0.7071 0.7071 12.1477 68.6413)" class="st77" width="163.02" height="163.02"/>
					
						<rect x="11.34" y="-57.93" transform="matrix(0.7071 -0.7071 0.7071 0.7071 12.1477 68.6413)" class="st78" width="155.18" height="155.18"/>
					
						<rect x="15.26" y="-54.02" transform="matrix(0.7071 -0.7071 0.7071 0.7071 12.1477 68.6413)" class="st79" width="147.35" height="147.35"/>
					
						<rect x="19.18" y="-50.1" transform="matrix(0.7071 -0.7071 0.7071 0.7071 12.1477 68.6414)" class="st80" width="139.51" height="139.51"/>
					
						<rect x="23.09" y="-46.18" transform="matrix(0.7071 -0.7071 0.7071 0.7071 12.1477 68.6414)" class="st81" width="131.67" height="131.67"/>
					
						<rect x="27.01" y="-42.26" transform="matrix(0.7071 -0.7071 0.7071 0.7071 12.1477 68.6414)" class="st82" width="123.84" height="123.84"/>
					
						<rect x="30.93" y="-38.34" transform="matrix(0.7071 -0.7071 0.7071 0.7071 12.1477 68.6414)" class="st83" width="116" height="116"/>
					
						<rect x="34.85" y="-34.42" transform="matrix(0.7071 -0.7071 0.7071 0.7071 12.1477 68.6414)" class="st84" width="108.16" height="108.16"/>
					
						<rect x="38.77" y="-30.51" transform="matrix(0.7071 -0.7071 0.7071 0.7071 12.1477 68.6414)" class="st85" width="100.33" height="100.33"/>
					
						<rect x="42.69" y="-26.59" transform="matrix(0.7071 -0.7071 0.7071 0.7071 12.1477 68.6414)" class="st86" width="92.49" height="92.49"/>
					
						<rect x="46.61" y="-22.67" transform="matrix(0.7071 -0.7071 0.7071 0.7071 12.1477 68.6414)" class="st87" width="84.65" height="84.65"/>
					
						<rect x="50.52" y="-18.75" transform="matrix(0.7071 -0.7071 0.7071 0.7071 12.1477 68.6414)" class="st88" width="76.82" height="76.82"/>
					
						<rect x="54.44" y="-14.83" transform="matrix(0.7071 -0.7071 0.7071 0.7071 12.1477 68.6414)" class="st89" width="68.98" height="68.98"/>
				</g>
				<g class="st95">
					
						<rect x="-4.33" y="1.18" transform="matrix(0.7071 -0.7071 0.7071 0.7071 -40.7372 90.547)" class="st74" width="186.53" height="186.53"/>
					
						<rect x="-0.42" y="5.1" transform="matrix(0.7071 -0.7071 0.7071 0.7071 -40.7372 90.547)" class="st75" width="178.69" height="178.69"/>
					
						<rect x="3.5" y="9.02" transform="matrix(0.7071 -0.7071 0.7071 0.7071 -40.7372 90.547)" class="st76" width="170.86" height="170.86"/>
					
						<rect x="7.42" y="12.94" transform="matrix(0.7071 -0.7071 0.7071 0.7071 -40.7372 90.547)" class="st77" width="163.02" height="163.02"/>
					
						<rect x="11.34" y="16.86" transform="matrix(0.7071 -0.7071 0.7071 0.7071 -40.7372 90.547)" class="st78" width="155.18" height="155.18"/>
					
						<rect x="15.26" y="20.77" transform="matrix(0.7071 -0.7071 0.7071 0.7071 -40.7372 90.547)" class="st79" width="147.35" height="147.35"/>
					
						<rect x="19.18" y="24.69" transform="matrix(0.7071 -0.7071 0.7071 0.7071 -40.7372 90.5471)" class="st80" width="139.51" height="139.51"/>
					
						<rect x="23.09" y="28.61" transform="matrix(0.7071 -0.7071 0.7071 0.7071 -40.7372 90.5471)" class="st81" width="131.67" height="131.67"/>
					
						<rect x="27.01" y="32.53" transform="matrix(0.7071 -0.7071 0.7071 0.7071 -40.7372 90.5471)" class="st82" width="123.84" height="123.84"/>
					
						<rect x="30.93" y="36.45" transform="matrix(0.7071 -0.7071 0.7071 0.7071 -40.7372 90.547)" class="st83" width="116" height="116"/>
					
						<rect x="34.85" y="40.37" transform="matrix(0.7071 -0.7071 0.7071 0.7071 -40.7372 90.547)" class="st84" width="108.16" height="108.16"/>
					
						<rect x="38.77" y="44.28" transform="matrix(0.7071 -0.7071 0.7071 0.7071 -40.7372 90.547)" class="st85" width="100.33" height="100.33"/>
					
						<rect x="42.69" y="48.2" transform="matrix(0.7071 -0.7071 0.7071 0.7071 -40.7372 90.547)" class="st86" width="92.49" height="92.49"/>
					
						<rect x="46.61" y="52.12" transform="matrix(0.7071 -0.7071 0.7071 0.7071 -40.7372 90.547)" class="st87" width="84.65" height="84.65"/>
					
						<rect x="50.52" y="56.04" transform="matrix(0.7071 -0.7071 0.7071 0.7071 -40.7372 90.547)" class="st88" width="76.82" height="76.82"/>
					
						<rect x="54.44" y="59.96" transform="matrix(0.7071 -0.7071 0.7071 0.7071 -40.7372 90.5471)" class="st89" width="68.98" height="68.98"/>
				</g>
			</g>
			<g style="clip-path:url(#SVGID_00000039120190187174687720000007513570080655635634_);">
				<text transform="matrix(0 1 -1 0 116.8618 44.4381)" class="st57 st58 st96">DESIGN</text>
				<text transform="matrix(0 1 -1 0 136.5503 44.4381)" class="st57 st60 st96">COVER</text>
			</g>
			
				<rect x="116.42" y="37.69" style="clip-path:url(#SVGID_00000039120190187174687720000007513570080655635634_);fill:#FFFFFF;" width="61.99" height="1.84"/>
		</g>
	</g>
	<g class="st67">
		<rect x="29.82" y="182.8" class="st62" width="32.67" height="26.97"/>
		<text transform="matrix(1 0 0 1 29.8176 185.6354)"><tspan x="0" y="0" class="st57 st63 st64">Lorem ipsum dolor </tspan><tspan x="0" y="4.8" class="st57 st63 st64">sit amet, </tspan><tspan x="0" y="9.6" class="st57 st63 st64">consectetuer </tspan><tspan x="0" y="14.4" class="st57 st63 st64">adipiscing elit, sed </tspan><tspan x="0" y="19.2" class="st57 st63 st64">diam </tspan></text>
	</g>
</g>
</svg>
