<?xml version="1.0" encoding="utf-8"?>
<!-- Generator: Adobe Illustrator 26.0.0, SVG Export Plug-In . SVG Version: 6.00 Build 0)  -->
<svg version="1.1" id="OBJECTS" xmlns="http://www.w3.org/2000/svg" xmlns:xlink="http://www.w3.org/1999/xlink" x="0px" y="0px"
	 viewBox="0 0 171.18 235.67" style="enable-background:new 0 0 171.18 235.67;" xml:space="preserve">
<style type="text/css">
	.st0{display:none;}
	.st1{display:inline;fill:url(#SVGID_1_);}
	.st2{display:inline;}
	.st3{opacity:0.5;clip-path:url(#SVGID_00000139289241519658945180000002129976584394228634_);}
	.st4{fill:none;stroke:#FFFFFF;stroke-width:2;stroke-linecap:round;stroke-linejoin:round;stroke-dasharray:0,4.9837;}
	.st5{fill:none;stroke:#FFFFFF;stroke-width:1.9327;stroke-linecap:round;stroke-linejoin:round;stroke-dasharray:0,4.9923;}
	.st6{fill:none;stroke:#FFFFFF;stroke-width:1.8654;stroke-linecap:round;stroke-linejoin:round;stroke-dasharray:0,5.0015;}
	.st7{fill:none;stroke:#FFFFFF;stroke-width:1.7981;stroke-linecap:round;stroke-linejoin:round;stroke-dasharray:0,5.0114;}
	.st8{fill:none;stroke:#FFFFFF;stroke-width:1.7308;stroke-linecap:round;stroke-linejoin:round;stroke-dasharray:0,4.98;}
	.st9{fill:none;stroke:#FFFFFF;stroke-width:1.6635;stroke-linecap:round;stroke-linejoin:round;stroke-dasharray:0,4.9898;}
	.st10{fill:none;stroke:#FFFFFF;stroke-width:1.5962;stroke-linecap:round;stroke-linejoin:round;stroke-dasharray:0,5.0005;}
	.st11{fill:none;stroke:#FFFFFF;stroke-width:1.5288;stroke-linecap:round;stroke-linejoin:round;stroke-dasharray:0,5.0123;}
	.st12{fill:none;stroke:#FFFFFF;stroke-width:1.4615;stroke-linecap:round;stroke-linejoin:round;stroke-dasharray:0,4.9749;}
	.st13{fill:none;stroke:#FFFFFF;stroke-width:1.3942;stroke-linecap:round;stroke-linejoin:round;stroke-dasharray:0,4.9864;}
	.st14{fill:none;stroke:#FFFFFF;stroke-width:1.3269;stroke-linecap:round;stroke-linejoin:round;stroke-dasharray:0,4.9992;}
	.st15{fill:none;stroke:#FFFFFF;stroke-width:1.2596;stroke-linecap:round;stroke-linejoin:round;stroke-dasharray:0,5.0132;}
	.st16{fill:none;stroke:#FFFFFF;stroke-width:1.1923;stroke-linecap:round;stroke-linejoin:round;stroke-dasharray:0,5.0289;}
	.st17{fill:none;stroke:#FFFFFF;stroke-width:1.125;stroke-linecap:round;stroke-linejoin:round;stroke-dasharray:0,4.9803;}
	.st18{fill:none;stroke:#FFFFFF;stroke-width:1.0577;stroke-linecap:round;stroke-linejoin:round;stroke-dasharray:0,4.9957;}
	.st19{fill:none;stroke:#FFFFFF;stroke-width:0.9904;stroke-linecap:round;stroke-linejoin:round;stroke-dasharray:0,5.0139;}
	.st20{fill:none;stroke:#FFFFFF;stroke-width:0.9231;stroke-linecap:round;stroke-linejoin:round;stroke-dasharray:0,5.0351;}
	.st21{fill:none;stroke:#FFFFFF;stroke-width:0.8558;stroke-linecap:round;stroke-linejoin:round;stroke-dasharray:0,4.9714;}
	.st22{fill:none;stroke:#FFFFFF;stroke-width:0.7885;stroke-linecap:round;stroke-linejoin:round;stroke-dasharray:0,4.9922;}
	.st23{fill:none;stroke:#FFFFFF;stroke-width:0.7212;stroke-linecap:round;stroke-linejoin:round;stroke-dasharray:0,5.0174;}
	.st24{fill:none;stroke:#FFFFFF;stroke-width:0.6538;stroke-linecap:round;stroke-linejoin:round;stroke-dasharray:0,5.0486;}
	.st25{fill:none;stroke:#FFFFFF;stroke-width:0.5865;stroke-linecap:round;stroke-linejoin:round;stroke-dasharray:0,4.9544;}
	.st26{fill:none;stroke:#FFFFFF;stroke-width:0.5192;stroke-linecap:round;stroke-linejoin:round;stroke-dasharray:0,4.9846;}
	.st27{fill:none;stroke:#FFFFFF;stroke-width:0.4519;stroke-linecap:round;stroke-linejoin:round;stroke-dasharray:0,5.0256;}
	.st28{fill:none;stroke:#FFFFFF;stroke-width:0.3846;stroke-linecap:round;stroke-linejoin:round;stroke-dasharray:0,5.0844;}
	.st29{fill:none;stroke:#FFFFFF;stroke-width:0.3173;stroke-linecap:round;stroke-linejoin:round;stroke-dasharray:0,4.9035;}
	.st30{fill:none;stroke:#FFFFFF;stroke-width:0.25;stroke-linecap:round;stroke-linejoin:round;stroke-dasharray:0,4.9565;}
	.st31{fill:none;stroke:#FFFFFF;stroke-width:2;stroke-linecap:round;stroke-linejoin:round;stroke-dasharray:0,5.0177;}
	.st32{fill:none;stroke:#FFFFFF;stroke-width:1.9327;stroke-linecap:round;stroke-linejoin:round;stroke-dasharray:0,4.9955;}
	.st33{fill:none;stroke:#FFFFFF;stroke-width:1.8654;stroke-linecap:round;stroke-linejoin:round;stroke-dasharray:0,5.0124;}
	.st34{fill:none;stroke:#FFFFFF;stroke-width:1.7981;stroke-linecap:round;stroke-linejoin:round;stroke-dasharray:0,4.9884;}
	.st35{fill:none;stroke:#FFFFFF;stroke-width:1.7308;stroke-linecap:round;stroke-linejoin:round;stroke-dasharray:0,5.0063;}
	.st36{fill:none;stroke:#FFFFFF;stroke-width:1.6635;stroke-linecap:round;stroke-linejoin:round;stroke-dasharray:0,4.9801;}
	.st37{fill:none;stroke:#FFFFFF;stroke-width:1.5962;stroke-linecap:round;stroke-linejoin:round;stroke-dasharray:0,4.9991;}
	.st38{fill:none;stroke:#FFFFFF;stroke-width:1.5288;stroke-linecap:round;stroke-linejoin:round;stroke-dasharray:0,5.0201;}
	.st39{fill:none;stroke:#FFFFFF;stroke-width:1.4615;stroke-linecap:round;stroke-linejoin:round;stroke-dasharray:0,4.9907;}
	.st40{fill:none;stroke:#FFFFFF;stroke-width:1.3942;stroke-linecap:round;stroke-linejoin:round;stroke-dasharray:0,5.0132;}
	.st41{fill:none;stroke:#FFFFFF;stroke-width:1.3269;stroke-linecap:round;stroke-linejoin:round;stroke-dasharray:0,4.9804;}
	.st42{fill:none;stroke:#FFFFFF;stroke-width:1.2596;stroke-linecap:round;stroke-linejoin:round;stroke-dasharray:0,5.0043;}
	.st43{fill:none;stroke:#FFFFFF;stroke-width:1.1923;stroke-linecap:round;stroke-linejoin:round;stroke-dasharray:0,5.0314;}
	.st44{fill:none;stroke:#FFFFFF;stroke-width:1.125;stroke-linecap:round;stroke-linejoin:round;stroke-dasharray:0,4.9931;}
	.st45{fill:none;stroke:#FFFFFF;stroke-width:1.0577;stroke-linecap:round;stroke-linejoin:round;stroke-dasharray:0,5.0233;}
	.st46{fill:none;stroke:#FFFFFF;stroke-width:0.9904;stroke-linecap:round;stroke-linejoin:round;stroke-dasharray:0,4.9795;}
	.st47{fill:none;stroke:#FFFFFF;stroke-width:0.9231;stroke-linecap:round;stroke-linejoin:round;stroke-dasharray:0,5.0134;}
	.st48{fill:none;stroke:#FFFFFF;stroke-width:0.8558;stroke-linecap:round;stroke-linejoin:round;stroke-dasharray:0,4.9617;}
	.st49{fill:none;stroke:#FFFFFF;stroke-width:0.7885;stroke-linecap:round;stroke-linejoin:round;stroke-dasharray:0,4.9999;}
	.st50{fill:none;stroke:#FFFFFF;stroke-width:0.7212;stroke-linecap:round;stroke-linejoin:round;stroke-dasharray:0,5.0467;}
	.st51{fill:none;stroke:#FFFFFF;stroke-width:0.6538;stroke-linecap:round;stroke-linejoin:round;stroke-dasharray:0,4.9806;}
	.st52{fill:none;stroke:#FFFFFF;stroke-width:0.5865;stroke-linecap:round;stroke-linejoin:round;stroke-dasharray:0,5.0363;}
	.st53{fill:none;stroke:#FFFFFF;stroke-width:0.5192;stroke-linecap:round;stroke-linejoin:round;stroke-dasharray:0,4.9503;}
	.st54{fill:none;stroke:#FFFFFF;stroke-width:0.4519;stroke-linecap:round;stroke-linejoin:round;stroke-dasharray:0,5.0191;}
	.st55{fill:none;stroke:#FFFFFF;stroke-width:0.3846;stroke-linecap:round;stroke-linejoin:round;stroke-dasharray:0,4.8965;}
	.st56{fill:none;stroke:#FFFFFF;stroke-width:0.3173;stroke-linecap:round;stroke-linejoin:round;stroke-dasharray:0,4.9845;}
	.st57{fill:none;stroke:#FFFFFF;stroke-width:0.25;stroke-linecap:round;stroke-linejoin:round;stroke-dasharray:0,5.1404;}
	.st58{clip-path:url(#SVGID_00000139289241519658945180000002129976584394228634_);}
	.st59{clip-path:url(#SVGID_00000139289241519658945180000002129976584394228634_);fill:#FFFFFF;}
	.st60{display:inline;fill:url(#SVGID_00000111895782971652011000000010761335520007322775_);}
	.st61{opacity:0.5;clip-path:url(#SVGID_00000017501074859117169780000011924046616682463670_);}
	.st62{fill:none;stroke:#FFFFFF;stroke-linecap:round;stroke-linejoin:round;stroke-miterlimit:10;stroke-dasharray:0,5;}
	.st63{display:inline;fill:#FFFFFF;}
	.st64{display:inline;fill:url(#SVGID_00000095318837001110094620000004755565233889222273_);}
	.st65{opacity:0.6;clip-path:url(#SVGID_00000086677919932943774510000014802286737191855549_);}
	
		.st66{fill:none;stroke:#FFFFFF;stroke-width:2;stroke-linecap:round;stroke-linejoin:round;stroke-miterlimit:10;stroke-dasharray:0,5;}
	
		.st67{fill:none;stroke:#FFFFFF;stroke-width:1.8833;stroke-linecap:round;stroke-linejoin:round;stroke-miterlimit:10;stroke-dasharray:0,5;}
	
		.st68{fill:none;stroke:#FFFFFF;stroke-width:1.7667;stroke-linecap:round;stroke-linejoin:round;stroke-miterlimit:10;stroke-dasharray:0,5;}
	
		.st69{fill:none;stroke:#FFFFFF;stroke-width:1.65;stroke-linecap:round;stroke-linejoin:round;stroke-miterlimit:10;stroke-dasharray:0,5;}
	
		.st70{fill:none;stroke:#FFFFFF;stroke-width:1.5333;stroke-linecap:round;stroke-linejoin:round;stroke-miterlimit:10;stroke-dasharray:0,5;}
	
		.st71{fill:none;stroke:#FFFFFF;stroke-width:1.4167;stroke-linecap:round;stroke-linejoin:round;stroke-miterlimit:10;stroke-dasharray:0,5;}
	
		.st72{fill:none;stroke:#FFFFFF;stroke-width:1.3;stroke-linecap:round;stroke-linejoin:round;stroke-miterlimit:10;stroke-dasharray:0,5;}
	
		.st73{fill:none;stroke:#FFFFFF;stroke-width:1.1833;stroke-linecap:round;stroke-linejoin:round;stroke-miterlimit:10;stroke-dasharray:0,5;}
	
		.st74{fill:none;stroke:#FFFFFF;stroke-width:1.0667;stroke-linecap:round;stroke-linejoin:round;stroke-miterlimit:10;stroke-dasharray:0,5;}
	
		.st75{fill:none;stroke:#FFFFFF;stroke-width:0.95;stroke-linecap:round;stroke-linejoin:round;stroke-miterlimit:10;stroke-dasharray:0,5;}
	
		.st76{fill:none;stroke:#FFFFFF;stroke-width:0.8333;stroke-linecap:round;stroke-linejoin:round;stroke-miterlimit:10;stroke-dasharray:0,5;}
	
		.st77{fill:none;stroke:#FFFFFF;stroke-width:0.7167;stroke-linecap:round;stroke-linejoin:round;stroke-miterlimit:10;stroke-dasharray:0,5;}
	
		.st78{fill:none;stroke:#FFFFFF;stroke-width:0.6;stroke-linecap:round;stroke-linejoin:round;stroke-miterlimit:10;stroke-dasharray:0,5;}
	
		.st79{fill:none;stroke:#FFFFFF;stroke-width:0.4833;stroke-linecap:round;stroke-linejoin:round;stroke-miterlimit:10;stroke-dasharray:0,5;}
	
		.st80{fill:none;stroke:#FFFFFF;stroke-width:0.3667;stroke-linecap:round;stroke-linejoin:round;stroke-miterlimit:10;stroke-dasharray:0,5;}
	
		.st81{fill:none;stroke:#FFFFFF;stroke-width:0.25;stroke-linecap:round;stroke-linejoin:round;stroke-miterlimit:10;stroke-dasharray:0,5;}
	.st82{opacity:0.2;clip-path:url(#SVGID_00000086677919932943774510000014802286737191855549_);}
	.st83{fill:#FFFFFF;}
	.st84{fill:url(#SVGID_00000049196711822408179120000006974741634160258970_);}
	.st85{clip-path:url(#SVGID_00000080892390674813835300000012051818338163180964_);}
	.st86{opacity:0.6;}
	.st87{opacity:0.26;}
	.st88{font-family:'Montserrat-Bold';}
	.st89{font-size:21.8008px;}
	.st90{font-family:'Montserrat-Thin';}
	.st91{clip-path:url(#SVGID_00000080892390674813835300000012051818338163180964_);fill:#FFFFFF;}
	.st92{fill:none;}
	.st93{font-family:'Montserrat-Light';}
	.st94{font-size:4px;}
</style>
<g class="st0">
	<linearGradient id="SVGID_1_" gradientUnits="userSpaceOnUse" x1="-494.6137" y1="0.6714" x2="-357.3118" y2="240.1125">
		<stop  offset="0" style="stop-color:#FFB800"/>
		<stop  offset="1" style="stop-color:#FF0077"/>
	</linearGradient>
	<rect x="-506.11" y="6.49" class="st1" width="157.01" height="222.06"/>
	<g class="st2">
		<defs>
			<rect id="SVGID_00000109020755648148017790000002966908773106304406_" x="-506.11" y="6.49" width="157.01" height="222.06"/>
		</defs>
		<clipPath id="SVGID_00000152244011779516148500000005468033193068742799_">
			<use xlink:href="#SVGID_00000109020755648148017790000002966908773106304406_"  style="overflow:visible;"/>
		</clipPath>
		<g style="opacity:0.5;clip-path:url(#SVGID_00000152244011779516148500000005468033193068742799_);">
			<g>
				
					<ellipse transform="matrix(0.7071 -0.7071 0.7071 0.7071 -162.4638 -303.1433)" class="st4" cx="-447.16" cy="44.54" rx="109.46" ry="109.46"/>
			</g>
			<g>
				<circle class="st5" cx="-447.55" cy="43.48" r="105.67"/>
			</g>
			<g>
				<circle class="st6" cx="-447.94" cy="42.41" r="101.89"/>
			</g>
			<g>
				
					<ellipse transform="matrix(0.7071 -0.7071 0.7071 0.7071 -160.5543 -304.9098)" class="st7" cx="-448.34" cy="41.35" rx="98.1" ry="98.1"/>
			</g>
			<g>
				<circle class="st8" cx="-448.73" cy="40.29" r="94.32"/>
			</g>
			<g>
				<circle class="st9" cx="-449.12" cy="39.23" r="90.53"/>
			</g>
			<g>
				<circle class="st10" cx="-449.51" cy="38.16" r="86.75"/>
			</g>
			<g>
				<circle class="st11" cx="-449.91" cy="37.1" r="82.96"/>
			</g>
			<g>
				
					<ellipse transform="matrix(0.7071 -0.7071 0.7071 0.7071 -157.3719 -307.8539)" class="st12" cx="-450.3" cy="36.04" rx="79.18" ry="79.18"/>
			</g>
			<g>
				
					<ellipse transform="matrix(0.2298 -0.9732 0.9732 0.2298 -381.1828 -411.6952)" class="st13" cx="-450.69" cy="34.97" rx="75.39" ry="75.39"/>
			</g>
			<g>
				<circle class="st14" cx="-451.08" cy="33.91" r="71.61"/>
			</g>
			<g>
				<circle class="st15" cx="-451.48" cy="32.85" r="67.82"/>
			</g>
			<g>
				
					<ellipse transform="matrix(0.7071 -0.7071 0.7071 0.7071 -154.8259 -310.2092)" class="st16" cx="-451.87" cy="31.79" rx="64.04" ry="64.04"/>
			</g>
			<g>
				<circle class="st17" cx="-452.26" cy="30.72" r="60.25"/>
			</g>
			<g>
				<circle class="st18" cx="-452.65" cy="29.66" r="56.47"/>
			</g>
			<g>
				
					<ellipse transform="matrix(0.2298 -0.9732 0.9732 0.2298 -376.7909 -418.8987)" class="st19" cx="-453.05" cy="28.6" rx="52.68" ry="52.68"/>
			</g>
			<g>
				
					<ellipse transform="matrix(0.3827 -0.9239 0.9239 0.3827 -305.3551 -401.9243)" class="st20" cx="-453.44" cy="27.54" rx="48.9" ry="48.9"/>
			</g>
			<g>
				
					<ellipse transform="matrix(0.9239 -0.3827 0.3827 0.9239 -44.6767 -171.6585)" class="st21" cx="-453.83" cy="26.47" rx="45.11" ry="45.11"/>
			</g>
			<g>
				<circle class="st22" cx="-454.22" cy="25.41" r="41.33"/>
			</g>
			<g>
				<circle class="st23" cx="-454.62" cy="24.35" r="37.54"/>
			</g>
			<g>
				
					<ellipse transform="matrix(0.2298 -0.9732 0.9732 0.2298 -373.1311 -424.9016)" class="st24" cx="-455.01" cy="23.29" rx="33.76" ry="33.76"/>
			</g>
			<g>
				
					<ellipse transform="matrix(0.2298 -0.9732 0.9732 0.2298 -372.3994 -426.1022)" class="st25" cx="-455.4" cy="22.22" rx="29.97" ry="29.97"/>
			</g>
			<g>
				<circle class="st26" cx="-455.79" cy="21.16" r="26.19"/>
			</g>
			<g>
				
					<ellipse transform="matrix(0.1602 -0.9871 0.9871 0.1602 -402.9506 -433.4181)" class="st27" cx="-456.19" cy="20.1" rx="22.4" ry="22.4"/>
			</g>
			<g>
				
					<ellipse transform="matrix(0.2298 -0.9732 0.9732 0.2298 -370.2032 -429.7039)" class="st28" cx="-456.58" cy="19.03" rx="18.62" ry="18.62"/>
			</g>
			<g>
				<circle class="st29" cx="-456.97" cy="17.97" r="14.83"/>
			</g>
			<g>
				<circle class="st30" cx="-457.36" cy="16.91" r="11.05"/>
			</g>
		</g>
		<g style="opacity:0.5;clip-path:url(#SVGID_00000152244011779516148500000005468033193068742799_);">
			<g>
				<circle class="st31" cx="-367.94" cy="251.79" r="105.41"/>
			</g>
			<g>
				
					<ellipse transform="matrix(0.7071 -0.7071 0.7071 0.7071 -285.1948 -186.9948)" class="st32" cx="-368.32" cy="250.76" rx="101.76" ry="101.76"/>
			</g>
			<g>
				<circle class="st33" cx="-368.7" cy="249.74" r="98.12"/>
			</g>
			<g>
				<circle class="st34" cx="-369.08" cy="248.72" r="94.47"/>
			</g>
			<g>
				
					<ellipse transform="matrix(0.7071 -0.7071 0.7071 0.7071 -283.3558 -188.696)" class="st35" cx="-369.45" cy="247.69" rx="90.83" ry="90.83"/>
			</g>
			<g>
				
					<ellipse transform="matrix(0.7071 -0.7071 0.7071 0.7071 -282.7429 -189.263)" class="st36" cx="-369.83" cy="246.67" rx="87.18" ry="87.18"/>
			</g>
			<g>
				<circle class="st37" cx="-370.21" cy="245.65" r="83.54"/>
			</g>
			<g>
				<circle class="st38" cx="-370.59" cy="244.62" r="79.89"/>
			</g>
			<g>
				
					<ellipse transform="matrix(0.1602 -0.9871 0.9871 0.1602 -551.9975 -161.5973)" class="st39" cx="-370.97" cy="243.6" rx="76.25" ry="76.25"/>
			</g>
			<g>
				
					<ellipse transform="matrix(0.2298 -0.9732 0.9732 0.2298 -522.1132 -174.5672)" class="st40" cx="-371.34" cy="242.58" rx="72.6" ry="72.6"/>
			</g>
			<g>
				<circle class="st41" cx="-371.72" cy="241.55" r="68.96"/>
			</g>
			<g>
				
					<ellipse transform="matrix(0.3827 -0.9239 0.9239 0.3827 -451.9232 -195.2934)" class="st42" cx="-372.1" cy="240.53" rx="65.31" ry="65.31"/>
			</g>
			<g>
				<circle class="st43" cx="-372.48" cy="239.51" r="61.67"/>
			</g>
			<g>
				
					<ellipse transform="matrix(0.7071 -0.7071 0.7071 0.7071 -277.8391 -193.7995)" class="st44" cx="-372.86" cy="238.48" rx="58.02" ry="58.02"/>
			</g>
			<g>
				
					<ellipse transform="matrix(0.2298 -0.9732 0.9732 0.2298 -518.5888 -180.3483)" class="st45" cx="-373.23" cy="237.46" rx="54.38" ry="54.38"/>
			</g>
			<g>
				
					<ellipse transform="matrix(0.7071 -0.7071 0.7071 0.7071 -276.6132 -194.9336)" class="st46" cx="-373.61" cy="236.43" rx="50.73" ry="50.73"/>
			</g>
			<g>
				
					<ellipse transform="matrix(0.1602 -0.9871 0.9871 0.1602 -546.4554 -171.4584)" class="st47" cx="-373.99" cy="235.41" rx="47.09" ry="47.09"/>
			</g>
			<g>
				<circle class="st48" cx="-374.37" cy="234.39" r="43.44"/>
			</g>
			<g>
				
					<ellipse transform="matrix(0.1602 -0.9871 0.9871 0.1602 -545.0698 -173.9236)" class="st49" cx="-374.75" cy="233.36" rx="39.8" ry="39.8"/>
			</g>
			<g>
				
					<ellipse transform="matrix(0.7071 -0.7071 0.7071 0.7071 -274.1614 -197.2018)" class="st50" cx="-375.12" cy="232.34" rx="36.15" ry="36.15"/>
			</g>
			<g>
				
					<ellipse transform="matrix(0.2298 -0.9732 0.9732 0.2298 -514.3592 -187.2855)" class="st51" cx="-375.5" cy="231.32" rx="32.51" ry="32.51"/>
			</g>
			<g>
				<circle class="st52" cx="-375.88" cy="230.29" r="28.86"/>
			</g>
			<g>
				<circle class="st53" cx="-376.26" cy="229.27" r="25.22"/>
			</g>
			<g>
				
					<ellipse transform="matrix(0.9239 -0.3827 0.3827 0.9239 -116.0161 -126.7581)" class="st54" cx="-376.64" cy="228.25" rx="21.57" ry="21.57"/>
			</g>
			<g>
				
					<ellipse transform="matrix(0.2298 -0.9732 0.9732 0.2298 -511.5399 -191.9102)" class="st55" cx="-377.01" cy="227.22" rx="17.93" ry="17.93"/>
			</g>
			<g>
				<circle class="st56" cx="-377.39" cy="226.2" r="14.28"/>
			</g>
			<g>
				<circle class="st57" cx="-377.77" cy="225.18" r="10.64"/>
			</g>
		</g>
		<g style="clip-path:url(#SVGID_00000152244011779516148500000005468033193068742799_);">
			<text transform="matrix(1 0 0 1 -453.5996 120.8025)" class="st83 st88" style="font-size:22.8121px;">DESIGN</text>
			<text transform="matrix(1 0 0 1 -453.5996 100.1994)" class="st83 st90" style="font-size:22.8121px;">COVER</text>
		</g>
		
			<rect x="-514.53" y="132.78" style="clip-path:url(#SVGID_00000152244011779516148500000005468033193068742799_);fill:#FFFFFF;" width="83.72" height="3.35"/>
		<g style="clip-path:url(#SVGID_00000152244011779516148500000005468033193068742799_);">
			<rect x="-482.31" y="164.88" class="st92" width="32.67" height="26.97"/>
			<text transform="matrix(1 0 0 1 -482.3071 167.7234)"><tspan x="0" y="0" class="st83 st93 st94">Lorem ipsum dolor </tspan><tspan x="0" y="4.8" class="st83 st93 st94">sit amet, </tspan><tspan x="0" y="9.6" class="st83 st93 st94">consectetuer </tspan><tspan x="0" y="14.4" class="st83 st93 st94">adipiscing elit, sed </tspan><tspan x="0" y="19.2" class="st83 st93 st94">diam </tspan></text>
		</g>
	</g>
</g>
<g class="st0">
	
		<linearGradient id="SVGID_00000090278820437094426610000001127150974539050412_" gradientUnits="userSpaceOnUse" x1="-385.3743" y1="-12.0042" x2="-154.6868" y2="218.6833">
		<stop  offset="0" style="stop-color:#00B8FF"/>
		<stop  offset="1" style="stop-color:#FF0077"/>
	</linearGradient>
	
		<rect x="-334.35" y="6.49" style="display:inline;fill:url(#SVGID_00000090278820437094426610000001127150974539050412_);" width="157.01" height="222.06"/>
	<g class="st2">
		<defs>
			<rect id="SVGID_00000027584566580372617310000010435138424461884317_" x="-334.35" y="6.49" width="157.01" height="222.06"/>
		</defs>
		<clipPath id="SVGID_00000031924732704242796950000002584125951892235677_">
			<use xlink:href="#SVGID_00000027584566580372617310000010435138424461884317_"  style="overflow:visible;"/>
		</clipPath>
		<g style="opacity:0.5;clip-path:url(#SVGID_00000031924732704242796950000002584125951892235677_);">
			<g>
				<g>
					<line class="st62" x1="-463.17" y1="110.57" x2="-268.65" y2="-83.95"/>
					<line class="st62" x1="-460.47" y1="113.27" x2="-265.95" y2="-81.25"/>
					<line class="st62" x1="-457.77" y1="115.97" x2="-263.24" y2="-78.55"/>
					<line class="st62" x1="-455.06" y1="118.67" x2="-260.54" y2="-75.85"/>
					<line class="st62" x1="-452.36" y1="121.38" x2="-257.84" y2="-73.14"/>
				</g>
				<g>
					<polyline class="st62" points="-252.11,-63.91 -264.11,-63.91 -264.11,-52.54 -275.48,-52.54 -275.48,-41.17 -286.85,-41.17 
						-286.85,-29.8 -298.22,-29.8 -298.22,-18.42 -309.59,-18.42 -309.59,-7.05 -320.97,-7.05 -320.97,4.32 -332.34,4.32 
						-332.34,15.69 -343.71,15.69 -343.71,27.06 -355.08,27.06 -355.08,38.43 -366.45,38.43 -366.45,49.81 -377.82,49.81 
						-377.82,61.18 -389.2,61.18 -389.2,72.55 -400.57,72.55 -400.57,83.92 -411.94,83.92 -411.94,95.29 -423.31,95.29 
						-423.31,106.66 -434.68,106.66 -434.68,118.04 -446.05,118.04 -446.05,130.03 					"/>
					<polyline class="st62" points="-250.36,-62.15 -262.35,-62.15 -262.35,-50.78 -273.72,-50.78 -273.72,-39.41 -285.1,-39.41 
						-285.1,-28.04 -296.47,-28.04 -296.47,-16.67 -307.84,-16.67 -307.84,-5.3 -319.21,-5.3 -319.21,6.07 -330.58,6.07 
						-330.58,17.45 -341.95,17.45 -341.95,28.82 -353.33,28.82 -353.33,40.19 -364.7,40.19 -364.7,51.56 -376.07,51.56 
						-376.07,62.93 -387.44,62.93 -387.44,74.3 -398.81,74.3 -398.81,85.68 -410.18,85.68 -410.18,97.05 -421.55,97.05 
						-421.55,108.42 -432.93,108.42 -432.93,119.79 -444.3,119.79 -444.3,131.79 					"/>
					<polyline class="st62" points="-248.6,-60.4 -260.6,-60.4 -260.6,-49.03 -271.97,-49.03 -271.97,-37.66 -283.34,-37.66 
						-283.34,-26.28 -294.71,-26.28 -294.71,-14.91 -306.08,-14.91 -306.08,-3.54 -317.46,-3.54 -317.46,7.83 -328.83,7.83 
						-328.83,19.2 -340.2,19.2 -340.2,30.57 -351.57,30.57 -351.57,41.94 -362.94,41.94 -362.94,53.32 -374.31,53.32 -374.31,64.69 
						-385.69,64.69 -385.69,76.06 -397.06,76.06 -397.06,87.43 -408.43,87.43 -408.43,98.8 -419.8,98.8 -419.8,110.17 
						-431.17,110.17 -431.17,121.55 -442.54,121.55 -442.54,133.54 					"/>
					<polyline class="st62" points="-246.85,-58.64 -258.84,-58.64 -258.84,-47.27 -270.21,-47.27 -270.21,-35.9 -281.59,-35.9 
						-281.59,-24.53 -292.96,-24.53 -292.96,-13.16 -304.33,-13.16 -304.33,-1.79 -315.7,-1.79 -315.7,9.58 -327.07,9.58 
						-327.07,20.96 -338.44,20.96 -338.44,32.33 -349.82,32.33 -349.82,43.7 -361.19,43.7 -361.19,55.07 -372.56,55.07 
						-372.56,66.44 -383.93,66.44 -383.93,77.81 -395.3,77.81 -395.3,89.19 -406.67,89.19 -406.67,100.56 -418.04,100.56 
						-418.04,111.93 -429.42,111.93 -429.42,123.3 -440.79,123.3 -440.79,135.3 					"/>
					<polyline class="st62" points="-245.09,-56.89 -257.09,-56.89 -257.09,-45.52 -268.46,-45.52 -268.46,-34.15 -279.83,-34.15 
						-279.83,-22.77 -291.2,-22.77 -291.2,-11.4 -302.57,-11.4 -302.57,-0.03 -313.95,-0.03 -313.95,11.34 -325.32,11.34 
						-325.32,22.71 -336.69,22.71 -336.69,34.08 -348.06,34.08 -348.06,45.45 -359.43,45.45 -359.43,56.83 -370.8,56.83 
						-370.8,68.2 -382.17,68.2 -382.17,79.57 -393.55,79.57 -393.55,90.94 -404.92,90.94 -404.92,102.31 -416.29,102.31 
						-416.29,113.68 -427.66,113.68 -427.66,125.06 -439.03,125.06 -439.03,137.05 					"/>
				</g>
			</g>
			<g>
				<g>
					<line class="st62" x1="-436.68" y1="137.06" x2="-242.16" y2="-57.46"/>
					<line class="st62" x1="-433.98" y1="139.76" x2="-239.46" y2="-54.76"/>
					<line class="st62" x1="-431.28" y1="142.46" x2="-236.76" y2="-52.06"/>
					<line class="st62" x1="-428.57" y1="145.16" x2="-234.05" y2="-49.36"/>
					<line class="st62" x1="-425.87" y1="147.87" x2="-231.35" y2="-46.65"/>
				</g>
				<g>
					<polyline class="st62" points="-225.62,-37.42 -237.62,-37.42 -237.62,-26.05 -248.99,-26.05 -248.99,-14.68 -260.36,-14.68 
						-260.36,-3.31 -271.73,-3.31 -271.73,8.07 -283.11,8.07 -283.11,19.44 -294.48,19.44 -294.48,30.81 -305.85,30.81 
						-305.85,42.18 -317.22,42.18 -317.22,53.55 -328.59,53.55 -328.59,64.92 -339.96,64.92 -339.96,76.3 -351.33,76.3 
						-351.33,87.67 -362.71,87.67 -362.71,99.04 -374.08,99.04 -374.08,110.41 -385.45,110.41 -385.45,121.78 -396.82,121.78 
						-396.82,133.15 -408.19,133.15 -408.19,144.52 -419.56,144.52 -419.56,156.52 					"/>
					<polyline class="st62" points="-223.87,-35.67 -235.86,-35.67 -235.86,-24.29 -247.24,-24.29 -247.24,-12.92 -258.61,-12.92 
						-258.61,-1.55 -269.98,-1.55 -269.98,9.82 -281.35,9.82 -281.35,21.19 -292.72,21.19 -292.72,32.56 -304.09,32.56 
						-304.09,43.94 -315.46,43.94 -315.46,55.31 -326.84,55.31 -326.84,66.68 -338.21,66.68 -338.21,78.05 -349.58,78.05 
						-349.58,89.42 -360.95,89.42 -360.95,100.79 -372.32,100.79 -372.32,112.16 -383.69,112.16 -383.69,123.54 -395.07,123.54 
						-395.07,134.91 -406.44,134.91 -406.44,146.28 -417.81,146.28 -417.81,158.28 					"/>
					<polyline class="st62" points="-222.11,-33.91 -234.11,-33.91 -234.11,-22.54 -245.48,-22.54 -245.48,-11.17 -256.85,-11.17 
						-256.85,0.2 -268.22,0.2 -268.22,11.58 -279.59,11.58 -279.59,22.95 -290.97,22.95 -290.97,34.32 -302.34,34.32 -302.34,45.69 
						-313.71,45.69 -313.71,57.06 -325.08,57.06 -325.08,68.43 -336.45,68.43 -336.45,79.81 -347.82,79.81 -347.82,91.18 
						-359.2,91.18 -359.2,102.55 -370.57,102.55 -370.57,113.92 -381.94,113.92 -381.94,125.29 -393.31,125.29 -393.31,136.66 
						-404.68,136.66 -404.68,148.03 -416.05,148.03 -416.05,160.03 					"/>
					<polyline class="st62" points="-220.36,-32.15 -232.35,-32.15 -232.35,-20.78 -243.73,-20.78 -243.73,-9.41 -255.1,-9.41 
						-255.1,1.96 -266.47,1.96 -266.47,13.33 -277.84,13.33 -277.84,24.7 -289.21,24.7 -289.21,36.07 -300.58,36.07 -300.58,47.45 
						-311.95,47.45 -311.95,58.82 -323.33,58.82 -323.33,70.19 -334.7,70.19 -334.7,81.56 -346.07,81.56 -346.07,92.93 
						-357.44,92.93 -357.44,104.3 -368.81,104.3 -368.81,115.68 -380.18,115.68 -380.18,127.05 -391.56,127.05 -391.56,138.42 
						-402.93,138.42 -402.93,149.79 -414.3,149.79 -414.3,161.79 					"/>
					<polyline class="st62" points="-218.6,-30.4 -230.6,-30.4 -230.6,-19.03 -241.97,-19.03 -241.97,-7.66 -253.34,-7.66 
						-253.34,3.71 -264.71,3.71 -264.71,15.09 -276.08,15.09 -276.08,26.46 -287.46,26.46 -287.46,37.83 -298.83,37.83 
						-298.83,49.2 -310.2,49.2 -310.2,60.57 -321.57,60.57 -321.57,71.94 -332.94,71.94 -332.94,83.32 -344.31,83.32 -344.31,94.69 
						-355.69,94.69 -355.69,106.06 -367.06,106.06 -367.06,117.43 -378.43,117.43 -378.43,128.8 -389.8,128.8 -389.8,140.17 
						-401.17,140.17 -401.17,151.55 -412.54,151.55 -412.54,163.54 					"/>
				</g>
			</g>
			<g>
				<g>
					<line class="st62" x1="-410.19" y1="163.55" x2="-215.67" y2="-30.97"/>
					<line class="st62" x1="-407.49" y1="166.25" x2="-212.97" y2="-28.27"/>
					<line class="st62" x1="-404.79" y1="168.95" x2="-210.27" y2="-25.57"/>
					<line class="st62" x1="-402.08" y1="171.65" x2="-207.56" y2="-22.87"/>
					<line class="st62" x1="-399.38" y1="174.36" x2="-204.86" y2="-20.17"/>
				</g>
				<g>
					<polyline class="st62" points="-199.13,-10.93 -211.13,-10.93 -211.13,0.44 -222.5,0.44 -222.5,11.81 -233.87,11.81 
						-233.87,23.18 -245.24,23.18 -245.24,34.56 -256.62,34.56 -256.62,45.93 -267.99,45.93 -267.99,57.3 -279.36,57.3 
						-279.36,68.67 -290.73,68.67 -290.73,80.04 -302.1,80.04 -302.1,91.41 -313.47,91.41 -313.47,102.78 -324.84,102.78 
						-324.84,114.16 -336.22,114.16 -336.22,125.53 -347.59,125.53 -347.59,136.9 -358.96,136.9 -358.96,148.27 -370.33,148.27 
						-370.33,159.64 -381.7,159.64 -381.7,171.01 -393.07,171.01 -393.07,183.01 					"/>
					<polyline class="st62" points="-197.38,-9.18 -209.37,-9.18 -209.37,2.2 -220.75,2.2 -220.75,13.57 -232.12,13.57 
						-232.12,24.94 -243.49,24.94 -243.49,36.31 -254.86,36.31 -254.86,47.68 -266.23,47.68 -266.23,59.05 -277.6,59.05 
						-277.6,70.43 -288.98,70.43 -288.98,81.8 -300.35,81.8 -300.35,93.17 -311.72,93.17 -311.72,104.54 -323.09,104.54 
						-323.09,115.91 -334.46,115.91 -334.46,127.28 -345.83,127.28 -345.83,138.65 -357.2,138.65 -357.2,150.03 -368.58,150.03 
						-368.58,161.4 -379.95,161.4 -379.95,172.77 -391.32,172.77 -391.32,184.77 					"/>
					<polyline class="st62" points="-195.62,-7.42 -207.62,-7.42 -207.62,3.95 -218.99,3.95 -218.99,15.32 -230.36,15.32 
						-230.36,26.69 -241.73,26.69 -241.73,38.07 -253.11,38.07 -253.11,49.44 -264.48,49.44 -264.48,60.81 -275.85,60.81 
						-275.85,72.18 -287.22,72.18 -287.22,83.55 -298.59,83.55 -298.59,94.92 -309.96,94.92 -309.96,106.29 -321.33,106.29 
						-321.33,117.67 -332.71,117.67 -332.71,129.04 -344.08,129.04 -344.08,140.41 -355.45,140.41 -355.45,151.78 -366.82,151.78 
						-366.82,163.15 -378.19,163.15 -378.19,174.52 -389.56,174.52 -389.56,186.52 					"/>
					<polyline class="st62" points="-193.87,-5.67 -205.86,-5.67 -205.86,5.71 -217.24,5.71 -217.24,17.08 -228.61,17.08 
						-228.61,28.45 -239.98,28.45 -239.98,39.82 -251.35,39.82 -251.35,51.19 -262.72,51.19 -262.72,62.56 -274.09,62.56 
						-274.09,73.94 -285.46,73.94 -285.46,85.31 -296.84,85.31 -296.84,96.68 -308.21,96.68 -308.21,108.05 -319.58,108.05 
						-319.58,119.42 -330.95,119.42 -330.95,130.79 -342.32,130.79 -342.32,142.16 -353.69,142.16 -353.69,153.54 -365.07,153.54 
						-365.07,164.91 -376.44,164.91 -376.44,176.28 -387.81,176.28 -387.81,188.28 					"/>
					<polyline class="st62" points="-192.11,-3.91 -204.11,-3.91 -204.11,7.46 -215.48,7.46 -215.48,18.83 -226.85,18.83 
						-226.85,30.2 -238.22,30.2 -238.22,41.58 -249.6,41.58 -249.6,52.95 -260.97,52.95 -260.97,64.32 -272.34,64.32 -272.34,75.69 
						-283.71,75.69 -283.71,87.06 -295.08,87.06 -295.08,98.43 -306.45,98.43 -306.45,109.81 -317.82,109.81 -317.82,121.18 
						-329.2,121.18 -329.2,132.55 -340.57,132.55 -340.57,143.92 -351.94,143.92 -351.94,155.29 -363.31,155.29 -363.31,166.66 
						-374.68,166.66 -374.68,178.03 -386.05,178.03 -386.05,190.03 					"/>
				</g>
			</g>
			<g>
				<g>
					<line class="st62" x1="-383.7" y1="190.04" x2="-189.18" y2="-4.48"/>
					<line class="st62" x1="-381" y1="192.74" x2="-186.48" y2="-1.78"/>
					<line class="st62" x1="-378.3" y1="195.44" x2="-183.78" y2="0.92"/>
					<line class="st62" x1="-375.6" y1="198.14" x2="-181.07" y2="3.62"/>
					<line class="st62" x1="-372.89" y1="200.84" x2="-178.37" y2="6.32"/>
				</g>
				<g>
					<polyline class="st62" points="-172.64,15.56 -184.64,15.56 -184.64,26.93 -196.01,26.93 -196.01,38.3 -207.38,38.3 
						-207.38,49.67 -218.75,49.67 -218.75,61.04 -230.13,61.04 -230.13,72.42 -241.5,72.42 -241.5,83.79 -252.87,83.79 
						-252.87,95.16 -264.24,95.16 -264.24,106.53 -275.61,106.53 -275.61,117.9 -286.98,117.9 -286.98,129.27 -298.36,129.27 
						-298.36,140.65 -309.73,140.65 -309.73,152.02 -321.1,152.02 -321.1,163.39 -332.47,163.39 -332.47,174.76 -343.84,174.76 
						-343.84,186.13 -355.21,186.13 -355.21,197.5 -366.58,197.5 -366.58,209.5 					"/>
					<polyline class="st62" points="-170.89,17.31 -182.88,17.31 -182.88,28.69 -194.26,28.69 -194.26,40.06 -205.63,40.06 
						-205.63,51.43 -217,51.43 -217,62.8 -228.37,62.8 -228.37,74.17 -239.74,74.17 -239.74,85.54 -251.11,85.54 -251.11,96.91 
						-262.49,96.91 -262.49,108.29 -273.86,108.29 -273.86,119.66 -285.23,119.66 -285.23,131.03 -296.6,131.03 -296.6,142.4 
						-307.97,142.4 -307.97,153.77 -319.34,153.77 -319.34,165.14 -330.71,165.14 -330.71,176.52 -342.09,176.52 -342.09,187.89 
						-353.46,187.89 -353.46,199.26 -364.83,199.26 -364.83,211.26 					"/>
					<polyline class="st62" points="-169.13,19.07 -181.13,19.07 -181.13,30.44 -192.5,30.44 -192.5,41.81 -203.87,41.81 
						-203.87,53.18 -215.24,53.18 -215.24,64.56 -226.62,64.56 -226.62,75.93 -237.99,75.93 -237.99,87.3 -249.36,87.3 
						-249.36,98.67 -260.73,98.67 -260.73,110.04 -272.1,110.04 -272.1,121.41 -283.47,121.41 -283.47,132.78 -294.85,132.78 
						-294.85,144.16 -306.22,144.16 -306.22,155.53 -317.59,155.53 -317.59,166.9 -328.96,166.9 -328.96,178.27 -340.33,178.27 
						-340.33,189.64 -351.7,189.64 -351.7,201.01 -363.07,201.01 -363.07,213.01 					"/>
					<polyline class="st62" points="-167.38,20.82 -179.37,20.82 -179.37,32.2 -190.75,32.2 -190.75,43.57 -202.12,43.57 
						-202.12,54.94 -213.49,54.94 -213.49,66.31 -224.86,66.31 -224.86,77.68 -236.23,77.68 -236.23,89.05 -247.6,89.05 
						-247.6,100.42 -258.98,100.42 -258.98,111.8 -270.35,111.8 -270.35,123.17 -281.72,123.17 -281.72,134.54 -293.09,134.54 
						-293.09,145.91 -304.46,145.91 -304.46,157.28 -315.83,157.28 -315.83,168.65 -327.2,168.65 -327.2,180.03 -338.58,180.03 
						-338.58,191.4 -349.95,191.4 -349.95,202.77 -361.32,202.77 -361.32,214.77 					"/>
					<polyline class="st62" points="-165.62,22.58 -177.62,22.58 -177.62,33.95 -188.99,33.95 -188.99,45.32 -200.36,45.32 
						-200.36,56.69 -211.73,56.69 -211.73,68.07 -223.11,68.07 -223.11,79.44 -234.48,79.44 -234.48,90.81 -245.85,90.81 
						-245.85,102.18 -257.22,102.18 -257.22,113.55 -268.59,113.55 -268.59,124.92 -279.96,124.92 -279.96,136.29 -291.33,136.29 
						-291.33,147.67 -302.71,147.67 -302.71,159.04 -314.08,159.04 -314.08,170.41 -325.45,170.41 -325.45,181.78 -336.82,181.78 
						-336.82,193.15 -348.19,193.15 -348.19,204.52 -359.56,204.52 -359.56,216.52 					"/>
				</g>
			</g>
			<g>
				<g>
					<line class="st62" x1="-357.21" y1="216.53" x2="-162.69" y2="22.01"/>
					<line class="st62" x1="-354.51" y1="219.23" x2="-159.99" y2="24.71"/>
					<line class="st62" x1="-351.81" y1="221.93" x2="-157.29" y2="27.41"/>
					<line class="st62" x1="-349.11" y1="224.63" x2="-154.59" y2="30.11"/>
					<line class="st62" x1="-346.4" y1="227.33" x2="-151.88" y2="32.81"/>
				</g>
				<g>
					<polyline class="st62" points="-146.15,42.05 -158.15,42.05 -158.15,53.42 -169.52,53.42 -169.52,64.79 -180.89,64.79 
						-180.89,76.16 -192.27,76.16 -192.27,87.53 -203.64,87.53 -203.64,98.91 -215.01,98.91 -215.01,110.28 -226.38,110.28 
						-226.38,121.65 -237.75,121.65 -237.75,133.02 -249.12,133.02 -249.12,144.39 -260.49,144.39 -260.49,155.76 -271.87,155.76 
						-271.87,167.14 -283.24,167.14 -283.24,178.51 -294.61,178.51 -294.61,189.88 -305.98,189.88 -305.98,201.25 -317.35,201.25 
						-317.35,212.62 -328.72,212.62 -328.72,223.99 -340.1,223.99 -340.1,235.99 					"/>
					<polyline class="st62" points="-144.4,43.8 -156.4,43.8 -156.4,55.17 -167.77,55.17 -167.77,66.55 -179.14,66.55 
						-179.14,77.92 -190.51,77.92 -190.51,89.29 -201.88,89.29 -201.88,100.66 -213.25,100.66 -213.25,112.03 -224.62,112.03 
						-224.62,123.4 -236,123.4 -236,134.78 -247.37,134.78 -247.37,146.15 -258.74,146.15 -258.74,157.52 -270.11,157.52 
						-270.11,168.89 -281.48,168.89 -281.48,180.26 -292.85,180.26 -292.85,191.63 -304.23,191.63 -304.23,203 -315.6,203 
						-315.6,214.38 -326.97,214.38 -326.97,225.75 -338.34,225.75 -338.34,237.74 					"/>
					<polyline class="st62" points="-142.64,45.56 -154.64,45.56 -154.64,56.93 -166.01,56.93 -166.01,68.3 -177.38,68.3 
						-177.38,79.67 -188.75,79.67 -188.75,91.04 -200.13,91.04 -200.13,102.42 -211.5,102.42 -211.5,113.79 -222.87,113.79 
						-222.87,125.16 -234.24,125.16 -234.24,136.53 -245.61,136.53 -245.61,147.9 -256.98,147.9 -256.98,159.27 -268.36,159.27 
						-268.36,170.65 -279.73,170.65 -279.73,182.02 -291.1,182.02 -291.1,193.39 -302.47,193.39 -302.47,204.76 -313.84,204.76 
						-313.84,216.13 -325.21,216.13 -325.21,227.5 -336.58,227.5 -336.58,239.5 					"/>
					<polyline class="st62" points="-140.89,47.31 -152.89,47.31 -152.89,58.69 -164.26,58.69 -164.26,70.06 -175.63,70.06 
						-175.63,81.43 -187,81.43 -187,92.8 -198.37,92.8 -198.37,104.17 -209.74,104.17 -209.74,115.54 -221.11,115.54 
						-221.11,126.91 -232.49,126.91 -232.49,138.29 -243.86,138.29 -243.86,149.66 -255.23,149.66 -255.23,161.03 -266.6,161.03 
						-266.6,172.4 -277.97,172.4 -277.97,183.77 -289.34,183.77 -289.34,195.14 -300.72,195.14 -300.72,206.52 -312.09,206.52 
						-312.09,217.89 -323.46,217.89 -323.46,229.26 -334.83,229.26 -334.83,241.26 					"/>
					<polyline class="st62" points="-139.13,49.07 -151.13,49.07 -151.13,60.44 -162.5,60.44 -162.5,71.81 -173.87,71.81 
						-173.87,83.18 -185.24,83.18 -185.24,94.55 -196.62,94.55 -196.62,105.93 -207.99,105.93 -207.99,117.3 -219.36,117.3 
						-219.36,128.67 -230.73,128.67 -230.73,140.04 -242.1,140.04 -242.1,151.41 -253.47,151.41 -253.47,162.78 -264.85,162.78 
						-264.85,174.16 -276.22,174.16 -276.22,185.53 -287.59,185.53 -287.59,196.9 -298.96,196.9 -298.96,208.27 -310.33,208.27 
						-310.33,219.64 -321.7,219.64 -321.7,231.01 -333.07,231.01 -333.07,243.01 					"/>
				</g>
			</g>
			<g>
				<g>
					<line class="st62" x1="-330.72" y1="243.02" x2="-136.2" y2="48.5"/>
					<line class="st62" x1="-328.02" y1="245.72" x2="-133.5" y2="51.2"/>
					<line class="st62" x1="-325.32" y1="248.42" x2="-130.8" y2="53.9"/>
					<line class="st62" x1="-322.62" y1="251.12" x2="-128.1" y2="56.6"/>
					<line class="st62" x1="-319.91" y1="253.82" x2="-125.39" y2="59.3"/>
				</g>
				<g>
					<polyline class="st62" points="-119.66,68.54 -131.66,68.54 -131.66,79.91 -143.03,79.91 -143.03,91.28 -154.4,91.28 
						-154.4,102.65 -165.78,102.65 -165.78,114.02 -177.15,114.02 -177.15,125.4 -188.52,125.4 -188.52,136.77 -199.89,136.77 
						-199.89,148.14 -211.26,148.14 -211.26,159.51 -222.63,159.51 -222.63,170.88 -234,170.88 -234,182.25 -245.38,182.25 
						-245.38,193.62 -256.75,193.62 -256.75,205 -268.12,205 -268.12,216.37 -279.49,216.37 -279.49,227.74 -290.86,227.74 
						-290.86,239.11 -302.23,239.11 -302.23,250.48 -313.61,250.48 -313.61,262.48 					"/>
					<polyline class="st62" points="-117.91,70.29 -129.91,70.29 -129.91,81.66 -141.28,81.66 -141.28,93.04 -152.65,93.04 
						-152.65,104.41 -164.02,104.41 -164.02,115.78 -175.39,115.78 -175.39,127.15 -186.76,127.15 -186.76,138.52 -198.14,138.52 
						-198.14,149.89 -209.51,149.89 -209.51,161.27 -220.88,161.27 -220.88,172.64 -232.25,172.64 -232.25,184.01 -243.62,184.01 
						-243.62,195.38 -254.99,195.38 -254.99,206.75 -266.36,206.75 -266.36,218.12 -277.74,218.12 -277.74,229.49 -289.11,229.49 
						-289.11,240.87 -300.48,240.87 -300.48,252.24 -311.85,252.24 -311.85,264.23 					"/>
					<polyline class="st62" points="-116.15,72.05 -128.15,72.05 -128.15,83.42 -139.52,83.42 -139.52,94.79 -150.89,94.79 
						-150.89,106.16 -162.27,106.16 -162.27,117.53 -173.64,117.53 -173.64,128.91 -185.01,128.91 -185.01,140.28 -196.38,140.28 
						-196.38,151.65 -207.75,151.65 -207.75,163.02 -219.12,163.02 -219.12,174.39 -230.49,174.39 -230.49,185.76 -241.87,185.76 
						-241.87,197.13 -253.24,197.13 -253.24,208.51 -264.61,208.51 -264.61,219.88 -275.98,219.88 -275.98,231.25 -287.35,231.25 
						-287.35,242.62 -298.72,242.62 -298.72,253.99 -310.1,253.99 -310.1,265.99 					"/>
					<polyline class="st62" points="-114.4,73.8 -126.4,73.8 -126.4,85.17 -137.77,85.17 -137.77,96.55 -149.14,96.55 
						-149.14,107.92 -160.51,107.92 -160.51,119.29 -171.88,119.29 -171.88,130.66 -183.25,130.66 -183.25,142.03 -194.62,142.03 
						-194.62,153.4 -206,153.4 -206,164.78 -217.37,164.78 -217.37,176.15 -228.74,176.15 -228.74,187.52 -240.11,187.52 
						-240.11,198.89 -251.48,198.89 -251.48,210.26 -262.85,210.26 -262.85,221.63 -274.23,221.63 -274.23,233 -285.6,233 
						-285.6,244.38 -296.97,244.38 -296.97,255.75 -308.34,255.75 -308.34,267.74 					"/>
					<polyline class="st62" points="-112.64,75.56 -124.64,75.56 -124.64,86.93 -136.01,86.93 -136.01,98.3 -147.38,98.3 
						-147.38,109.67 -158.76,109.67 -158.76,121.04 -170.13,121.04 -170.13,132.42 -181.5,132.42 -181.5,143.79 -192.87,143.79 
						-192.87,155.16 -204.24,155.16 -204.24,166.53 -215.61,166.53 -215.61,177.9 -226.98,177.9 -226.98,189.27 -238.36,189.27 
						-238.36,200.65 -249.73,200.65 -249.73,212.02 -261.1,212.02 -261.1,223.39 -272.47,223.39 -272.47,234.76 -283.84,234.76 
						-283.84,246.13 -295.21,246.13 -295.21,257.5 -306.59,257.5 -306.59,269.5 					"/>
				</g>
			</g>
			<g>
				<g>
					<line class="st62" x1="-304.23" y1="269.51" x2="-109.71" y2="74.99"/>
					<line class="st62" x1="-301.53" y1="272.21" x2="-107.01" y2="77.69"/>
					<line class="st62" x1="-298.83" y1="274.91" x2="-104.31" y2="80.39"/>
					<line class="st62" x1="-296.13" y1="277.61" x2="-101.61" y2="83.09"/>
					<line class="st62" x1="-293.43" y1="280.31" x2="-98.9" y2="85.79"/>
				</g>
				<g>
					<polyline class="st62" points="-93.17,95.03 -105.17,95.03 -105.17,106.4 -116.54,106.4 -116.54,117.77 -127.91,117.77 
						-127.91,129.14 -139.29,129.14 -139.29,140.51 -150.66,140.51 -150.66,151.88 -162.03,151.88 -162.03,163.26 -173.4,163.26 
						-173.4,174.63 -184.77,174.63 -184.77,186 -196.14,186 -196.14,197.37 -207.52,197.37 -207.52,208.74 -218.89,208.74 
						-218.89,220.11 -230.26,220.11 -230.26,231.49 -241.63,231.49 -241.63,242.86 -253,242.86 -253,254.23 -264.37,254.23 
						-264.37,265.6 -275.74,265.6 -275.74,276.97 -287.12,276.97 -287.12,288.97 					"/>
					<polyline class="st62" points="-91.42,96.78 -103.42,96.78 -103.42,108.15 -114.79,108.15 -114.79,119.53 -126.16,119.53 
						-126.16,130.9 -137.53,130.9 -137.53,142.27 -148.9,142.27 -148.9,153.64 -160.27,153.64 -160.27,165.01 -171.65,165.01 
						-171.65,176.38 -183.02,176.38 -183.02,187.75 -194.39,187.75 -194.39,199.13 -205.76,199.13 -205.76,210.5 -217.13,210.5 
						-217.13,221.87 -228.5,221.87 -228.5,233.24 -239.88,233.24 -239.88,244.61 -251.25,244.61 -251.25,255.98 -262.62,255.98 
						-262.62,267.36 -273.99,267.36 -273.99,278.73 -285.36,278.73 -285.36,290.72 					"/>
					<polyline class="st62" points="-89.66,98.54 -101.66,98.54 -101.66,109.91 -113.03,109.91 -113.03,121.28 -124.4,121.28 
						-124.4,132.65 -135.78,132.65 -135.78,144.02 -147.15,144.02 -147.15,155.4 -158.52,155.4 -158.52,166.77 -169.89,166.77 
						-169.89,178.14 -181.26,178.14 -181.26,189.51 -192.63,189.51 -192.63,200.88 -204.01,200.88 -204.01,212.25 -215.38,212.25 
						-215.38,223.62 -226.75,223.62 -226.75,235 -238.12,235 -238.12,246.37 -249.49,246.37 -249.49,257.74 -260.86,257.74 
						-260.86,269.11 -272.23,269.11 -272.23,280.48 -283.61,280.48 -283.61,292.48 					"/>
					<polyline class="st62" points="-87.91,100.29 -99.91,100.29 -99.91,111.66 -111.28,111.66 -111.28,123.04 -122.65,123.04 
						-122.65,134.41 -134.02,134.41 -134.02,145.78 -145.39,145.78 -145.39,157.15 -156.76,157.15 -156.76,168.52 -168.14,168.52 
						-168.14,179.89 -179.51,179.89 -179.51,191.26 -190.88,191.26 -190.88,202.64 -202.25,202.64 -202.25,214.01 -213.62,214.01 
						-213.62,225.38 -224.99,225.38 -224.99,236.75 -236.36,236.75 -236.36,248.12 -247.74,248.12 -247.74,259.49 -259.11,259.49 
						-259.11,270.87 -270.48,270.87 -270.48,282.24 -281.85,282.24 -281.85,294.23 					"/>
					<polyline class="st62" points="-86.15,102.05 -98.15,102.05 -98.15,113.42 -109.52,113.42 -109.52,124.79 -120.89,124.79 
						-120.89,136.16 -132.27,136.16 -132.27,147.53 -143.64,147.53 -143.64,158.91 -155.01,158.91 -155.01,170.28 -166.38,170.28 
						-166.38,181.65 -177.75,181.65 -177.75,193.02 -189.12,193.02 -189.12,204.39 -200.49,204.39 -200.49,215.76 -211.87,215.76 
						-211.87,227.13 -223.24,227.13 -223.24,238.51 -234.61,238.51 -234.61,249.88 -245.98,249.88 -245.98,261.25 -257.35,261.25 
						-257.35,272.62 -268.72,272.62 -268.72,283.99 -280.1,283.99 -280.1,295.99 					"/>
				</g>
			</g>
			<g>
				<g>
					<line class="st62" x1="-277.74" y1="296" x2="-83.22" y2="101.48"/>
					<line class="st62" x1="-275.04" y1="298.7" x2="-80.52" y2="104.18"/>
					<line class="st62" x1="-272.34" y1="301.4" x2="-77.82" y2="106.88"/>
					<line class="st62" x1="-269.64" y1="304.1" x2="-75.12" y2="109.58"/>
					<line class="st62" x1="-266.94" y1="306.8" x2="-72.42" y2="112.28"/>
				</g>
				<g>
					<polyline class="st62" points="-66.69,121.52 -78.68,121.52 -78.68,132.89 -90.05,132.89 -90.05,144.26 -101.43,144.26 
						-101.43,155.63 -112.8,155.63 -112.8,167 -124.17,167 -124.17,178.37 -135.54,178.37 -135.54,189.75 -146.91,189.75 
						-146.91,201.12 -158.28,201.12 -158.28,212.49 -169.65,212.49 -169.65,223.86 -181.03,223.86 -181.03,235.23 -192.4,235.23 
						-192.4,246.6 -203.77,246.6 -203.77,257.98 -215.14,257.98 -215.14,269.35 -226.51,269.35 -226.51,280.72 -237.88,280.72 
						-237.88,292.09 -249.26,292.09 -249.26,303.46 -260.63,303.46 -260.63,315.46 					"/>
					<polyline class="st62" points="-64.93,123.27 -76.93,123.27 -76.93,134.64 -88.3,134.64 -88.3,146.01 -99.67,146.01 
						-99.67,157.39 -111.04,157.39 -111.04,168.76 -122.41,168.76 -122.41,180.13 -133.78,180.13 -133.78,191.5 -145.16,191.5 
						-145.16,202.87 -156.53,202.87 -156.53,214.24 -167.9,214.24 -167.9,225.62 -179.27,225.62 -179.27,236.99 -190.64,236.99 
						-190.64,248.36 -202.01,248.36 -202.01,259.73 -213.39,259.73 -213.39,271.1 -224.76,271.1 -224.76,282.47 -236.13,282.47 
						-236.13,293.84 -247.5,293.84 -247.5,305.22 -258.87,305.22 -258.87,317.21 					"/>
					<polyline class="st62" points="-63.18,125.03 -75.17,125.03 -75.17,136.4 -86.54,136.4 -86.54,147.77 -97.91,147.77 
						-97.91,159.14 -109.29,159.14 -109.29,170.51 -120.66,170.51 -120.66,181.88 -132.03,181.88 -132.03,193.26 -143.4,193.26 
						-143.4,204.63 -154.77,204.63 -154.77,216 -166.14,216 -166.14,227.37 -177.52,227.37 -177.52,238.74 -188.89,238.74 
						-188.89,250.11 -200.26,250.11 -200.26,261.49 -211.63,261.49 -211.63,272.86 -223,272.86 -223,284.23 -234.37,284.23 
						-234.37,295.6 -245.75,295.6 -245.75,306.97 -257.12,306.97 -257.12,318.97 					"/>
					<polyline class="st62" points="-61.42,126.78 -73.42,126.78 -73.42,138.15 -84.79,138.15 -84.79,149.53 -96.16,149.53 
						-96.16,160.9 -107.53,160.9 -107.53,172.27 -118.9,172.27 -118.9,183.64 -130.27,183.64 -130.27,195.01 -141.65,195.01 
						-141.65,206.38 -153.02,206.38 -153.02,217.75 -164.39,217.75 -164.39,229.13 -175.76,229.13 -175.76,240.5 -187.13,240.5 
						-187.13,251.87 -198.5,251.87 -198.5,263.24 -209.88,263.24 -209.88,274.61 -221.25,274.61 -221.25,285.98 -232.62,285.98 
						-232.62,297.36 -243.99,297.36 -243.99,308.73 -255.36,308.73 -255.36,320.72 					"/>
					<polyline class="st62" points="-59.66,128.54 -71.66,128.54 -71.66,139.91 -83.03,139.91 -83.03,151.28 -94.4,151.28 
						-94.4,162.65 -105.78,162.65 -105.78,174.02 -117.15,174.02 -117.15,185.39 -128.52,185.39 -128.52,196.77 -139.89,196.77 
						-139.89,208.14 -151.26,208.14 -151.26,219.51 -162.63,219.51 -162.63,230.88 -174.01,230.88 -174.01,242.25 -185.38,242.25 
						-185.38,253.62 -196.75,253.62 -196.75,265 -208.12,265 -208.12,276.37 -219.49,276.37 -219.49,287.74 -230.86,287.74 
						-230.86,299.11 -242.23,299.11 -242.23,310.48 -253.61,310.48 -253.61,322.48 					"/>
				</g>
			</g>
		</g>
	</g>
	<g class="st2">
		<text transform="matrix(0 1 -1 0 -313.1406 49.2009)" class="st83 st88" style="font-size:24.3976px;">DESIGN</text>
		<text transform="matrix(0 1 -1 0 -291.1055 49.2009)" class="st83 st90" style="font-size:24.3976px;">COVER</text>
	</g>
	
		<rect x="-288.8" y="69.61" transform="matrix(-1.836970e-16 1 -1 -1.836970e-16 -195.4354 338.003)" class="st63" width="44.17" height="3.35"/>
	<g class="st2">
		<rect x="-232" y="179.85" class="st92" width="32.67" height="26.97"/>
		<text transform="matrix(1 0 0 1 -232.002 182.6928)"><tspan x="0" y="0" class="st83 st93 st94">Lorem ipsum dolor </tspan><tspan x="0" y="4.8" class="st83 st93 st94">sit amet, </tspan><tspan x="0" y="9.6" class="st83 st93 st94">consectetuer </tspan><tspan x="0" y="14.4" class="st83 st93 st94">adipiscing elit, sed </tspan><tspan x="0" y="19.2" class="st83 st93 st94">diam </tspan></text>
	</g>
</g>
<g class="st0">
	
		<linearGradient id="SVGID_00000142138069378448892820000017861237043004660394_" gradientUnits="userSpaceOnUse" x1="-173.0756" y1="28.5339" x2="22.8966" y2="224.5061">
		<stop  offset="0" style="stop-color:#00E9FF"/>
		<stop  offset="1" style="stop-color:#0000AF"/>
	</linearGradient>
	
		<rect x="-162.59" y="6.49" style="display:inline;fill:url(#SVGID_00000142138069378448892820000017861237043004660394_);" width="157.01" height="222.06"/>
	<g class="st2">
		<defs>
			<rect id="SVGID_00000106129533303835841910000011308180840442656649_" x="-162.59" y="6.49" width="157.01" height="222.06"/>
		</defs>
		<clipPath id="SVGID_00000111179447057826198610000005487422514282421400_">
			<use xlink:href="#SVGID_00000106129533303835841910000011308180840442656649_"  style="overflow:visible;"/>
		</clipPath>
		<g style="opacity:0.6;clip-path:url(#SVGID_00000111179447057826198610000005487422514282421400_);">
			<path class="st66" d="M35.93,24.42c-11.76,1.54-20.04,12.32-18.5,24.08h0c1.54,11.76-35.49,0.46-47.24,2h0
				c-11.76,1.54-20.04,12.32-18.5,24.08l0,0c1.54,11.76,22,44.62,10.24,46.16h0c-58.94-3.61-2.2,27.98-0.66,39.74v0
				c1.54,11.76-6.74,22.54-18.5,24.08l0,0c-11.76,1.54-37.88-3.34-36.34,8.42l0,0c1.54,11.76-55.46-14.88-67.21-13.34h0
				c-11.76,1.54-20.04,12.32-18.5,24.08l0,0c1.54,11.76,41.97,59.96,30.21,61.5l0,0c-11.76,1.54-20.04,12.32-18.5,24.08"/>
			<path class="st67" d="M36.92,25.18c-11.76,1.54-20.04,12.32-18.5,24.08v0c1.54,11.76-33.57,1.93-45.33,3.47l0,0
				c-11.76,1.54-20.04,12.32-18.5,24.08l0,0c1.54,11.76,20.09,43.15,8.33,44.69l0,0c-55.79-3.27-0.37,29.26,1.17,41.02l0,0
				c1.54,11.76-6.74,22.54-18.5,24.08h0c-11.76,1.54-39.71-4.61-38.17,7.15v0c1.54,11.76-52.21-12.39-63.97-10.85h0
				c-11.76,1.54-20.04,12.32-18.5,24.08l0,0c1.54,11.76,38.73,57.47,26.97,59.01h0c-11.76,1.54-20.04,12.32-18.5,24.08"/>
			<path class="st68" d="M37.91,25.95c-11.76,1.54-20.04,12.32-18.5,24.08l0,0c1.54,11.76-31.65,3.4-43.41,4.94h0
				c-11.76,1.54-20.04,12.32-18.5,24.08v0c1.54,11.76,18.17,41.68,6.41,43.22h0c-52.65-2.92,1.46,30.53,3,42.29l0,0
				c1.54,11.76-6.74,22.54-18.5,24.08l0,0c-11.76,1.54-41.54-5.89-40,5.87h0c1.54,11.76-48.96-9.89-60.72-8.35h0
				c-11.76,1.54-20.04,12.32-18.5,24.08l0,0c1.54,11.76,35.48,54.97,23.72,56.51h0c-11.76,1.54-20.04,12.32-18.5,24.08"/>
			<path class="st69" d="M38.91,26.71c-11.76,1.54-20.04,12.32-18.5,24.08v0c1.54,11.76-29.74,4.87-41.49,6.42l0,0
				c-11.76,1.54-20.04,12.32-18.5,24.08l0,0c1.54,11.76,16.25,40.21,4.5,41.75l0,0c-49.5-2.58,3.29,31.81,4.83,43.56v0
				c1.54,11.76-6.74,22.54-18.5,24.08l0,0c-11.76,1.54-43.37-7.16-41.83,4.6l0,0c1.54,11.76-45.71-7.4-57.47-5.86h0
				c-11.76,1.54-20.04,12.32-18.5,24.08h0c1.54,11.76,32.23,52.48,20.47,54.02l0,0c-11.76,1.54-20.04,12.32-18.5,24.08"/>
			<path class="st70" d="M39.9,27.47c-11.76,1.54-20.04,12.32-18.5,24.08l0,0c1.54,11.76-27.82,6.35-39.58,7.89h0
				c-11.76,1.54-20.04,12.32-18.5,24.08v0c1.54,11.76,14.34,38.73,2.58,40.27l0,0c-46.36-2.24,5.11,33.08,6.66,44.84l0,0
				c1.54,11.76-6.74,22.54-18.5,24.08h0c-11.76,1.54-45.2-8.43-43.65,3.32v0c1.54,11.76-42.46-4.9-54.22-3.36h0
				c-11.76,1.54-20.04,12.32-18.5,24.08h0c1.54,11.76,28.98,49.98,17.22,51.52h0c-11.76,1.54-20.04,12.32-18.5,24.08"/>
			<path class="st71" d="M40.89,28.23c-11.76,1.54-20.04,12.32-18.5,24.08l0,0c1.54,11.76-25.9,7.82-37.66,9.36v0
				C-27.03,63.21-35.31,74-33.77,85.75v0c1.54,11.76,12.42,37.26,0.66,38.8h0c-43.21-1.89,6.94,34.35,8.48,46.11l0,0
				c1.54,11.76-6.74,22.54-18.5,24.08l0,0c-11.76,1.54-47.02-9.71-45.48,2.05l0,0c1.54,11.76-39.22-2.41-50.98-0.87l0,0
				c-11.76,1.54-20.04,12.32-18.5,24.08l0,0c1.54,11.76,25.73,47.49,13.98,49.03h0c-11.76,1.54-20.04,12.32-18.5,24.08"/>
			<path class="st72" d="M41.88,28.99c-11.76,1.54-20.04,12.32-18.5,24.08v0c1.54,11.76-23.99,9.29-35.75,10.83h0
				c-11.76,1.54-20.04,12.32-18.5,24.08l0,0c1.54,11.76,10.51,35.79-1.25,37.33l0,0c-40.07-1.55,8.77,35.63,10.31,47.39v0
				c1.54,11.76-6.74,22.54-18.5,24.08l0,0c-11.76,1.54-48.85-10.98-47.31,0.78v0c1.54,11.76-35.97,0.09-47.73,1.63h0
				c-11.76,1.54-20.04,12.32-18.5,24.08v0c1.54,11.76,22.49,44.99,10.73,46.53h0c-11.76,1.54-20.04,12.32-18.5,24.08"/>
			<path class="st73" d="M42.87,29.76c-11.76,1.54-20.04,12.32-18.5,24.08l0,0C25.92,65.6,2.3,64.6-9.46,66.14l0,0
				c-11.76,1.54-20.04,12.32-18.5,24.08v0c1.54,11.76,8.59,34.32-3.17,35.86h0c-36.92-1.21,10.6,36.9,12.14,48.66l0,0
				c1.54,11.76-6.74,22.54-18.5,24.08h0c-11.76,1.54-50.68-12.26-49.14-0.5l0,0c1.54,11.76-32.72,2.58-44.48,4.12l0,0
				c-11.76,1.54-20.04,12.32-18.5,24.08v0c1.54,11.76,19.24,42.5,7.48,44.04h0c-11.76,1.54-20.04,12.32-18.5,24.08"/>
			<path class="st74" d="M43.87,30.52c-11.76,1.54-20.04,12.32-18.5,24.08v0C26.91,66.36,5.21,66.83-6.55,68.38l0,0
				c-11.76,1.54-20.04,12.32-18.5,24.08l0,0c1.54,11.76,6.67,32.84-5.09,34.39l0,0c-33.78-0.86,12.43,38.18,13.97,49.93v0
				c1.54,11.76-6.74,22.54-18.5,24.08l0,0c-11.76,1.54-52.51-13.53-50.97-1.77l0,0c1.54,11.76-29.47,5.08-41.23,6.62l0,0
				c-11.76,1.54-20.04,12.32-18.5,24.08v0c1.54,11.76,15.99,40,4.23,41.55l0,0c-11.76,1.54-20.04,12.32-18.5,24.08"/>
			<path class="st75" d="M44.86,31.28C33.1,32.82,24.82,43.6,26.36,55.36l0,0c1.54,11.76-18.24,13.71-30,15.25h0
				c-11.76,1.54-20.04,12.32-18.5,24.08l0,0c1.54,11.76,4.76,31.37-7,32.91l0,0c-30.63-0.52,14.25,39.45,15.79,51.21l0,0
				c1.54,11.76-6.74,22.54-18.5,24.08l0,0c-11.76,1.54-54.34-14.8-52.79-3.05v0c1.54,11.76-26.23,7.57-37.99,9.11l0,0
				c-11.76,1.54-20.04,12.32-18.5,24.08l0,0c1.54,11.76,12.74,37.51,0.99,39.05h0c-11.76,1.54-20.04,12.32-18.5,24.08"/>
			<path class="st76" d="M45.85,32.04c-11.76,1.54-20.04,12.32-18.5,24.08l0,0C28.89,67.88,11.03,71.3-0.73,72.84h0
				c-11.76,1.54-20.04,12.32-18.5,24.08v0c1.54,11.76,2.84,29.9-8.92,31.44h0c-27.48-0.18,16.08,40.72,17.62,52.48v0
				c1.54,11.76-6.74,22.54-18.5,24.08h0c-11.76,1.54-56.16-16.08-54.62-4.32l0,0c1.54,11.76-22.98,10.07-34.74,11.61h0
				c-11.76,1.54-20.04,12.32-18.5,24.08v0c1.54,11.76,9.5,35.01-2.26,36.56h0c-11.76,1.54-20.04,12.32-18.5,24.08"/>
			<path class="st77" d="M46.84,32.8c-11.76,1.54-20.04,12.32-18.5,24.08v0c1.54,11.76-14.41,16.65-26.16,18.19l0,0
				c-11.76,1.54-20.04,12.32-18.5,24.08l0,0c1.54,11.76,0.92,28.43-10.83,29.97l0,0c-24.34,0.17,17.91,42,19.45,53.76v0
				c1.54,11.76-6.74,22.54-18.5,24.08l0,0c-11.76,1.54-57.99-17.35-56.45-5.59v0c1.54,11.76-19.73,12.56-31.49,14.1h0
				c-11.76,1.54-20.04,12.32-18.5,24.08v0c1.54,11.76,6.25,32.52-5.51,34.06l0,0c-11.76,1.54-20.04,12.32-18.5,24.08"/>
			<path class="st78" d="M47.83,33.57c-11.76,1.54-20.04,12.32-18.5,24.08l0,0c1.54,11.76-12.49,18.12-24.25,19.66h0
				c-11.76,1.54-20.04,12.32-18.5,24.08l0,0c1.54,11.76-0.99,26.96-12.75,28.5l0,0c-21.19,0.51,19.74,43.27,21.28,55.03l0,0
				c1.54,11.76-6.74,22.54-18.5,24.08l0,0c-11.76,1.54-59.82-18.63-58.28-6.87l0,0c1.54,11.76-16.48,15.06-28.24,16.6l0,0
				c-11.76,1.54-20.04,12.32-18.5,24.08v0c1.54,11.76,3,30.02-8.76,31.57h0c-11.76,1.54-20.04,12.32-18.5,24.08"/>
			<path class="st79" d="M48.83,34.33c-11.76,1.54-20.04,12.32-18.5,24.08v0C31.87,70.17,19.75,78,7.99,79.55h0
				c-11.76,1.54-20.04,12.32-18.5,24.08v0c1.54,11.76-2.91,25.48-14.67,27.03h0c-18.05,0.85,21.56,44.55,23.11,56.3v0
				c1.54,11.76-6.74,22.54-18.5,24.08h0c-11.76,1.54-61.65-19.9-60.11-8.14l0,0c1.54,11.76-13.24,17.55-24.99,19.09h0
				c-11.76,1.54-20.04,12.32-18.5,24.08v0c1.54,11.76-0.25,27.53-12,29.07l0,0c-11.76,1.54-20.04,12.32-18.5,24.08"/>
			<path class="st80" d="M49.82,35.09c-11.76,1.54-20.04,12.32-18.5,24.08l0,0c1.54,11.76-8.66,21.07-20.42,22.61h0
				C-0.86,83.32-9.14,94.1-7.6,105.86l0,0c1.54,11.76-4.82,24.01-16.58,25.55l0,0c-14.9,1.2,23.39,45.82,24.93,57.58v0
				c1.54,11.76-6.74,22.54-18.5,24.08h0c-11.76,1.54-63.47-21.17-61.93-9.42v0c1.54,11.76-9.99,20.04-21.75,21.59h0
				c-11.76,1.54-20.04,12.32-18.5,24.08v0c1.54,11.76-3.49,25.03-15.25,26.58h0c-11.76,1.54-20.04,12.32-18.5,24.08"/>
			<path class="st81" d="M50.81,35.85c-11.76,1.54-20.04,12.32-18.5,24.08v0c1.54,11.76-6.74,22.54-18.5,24.08h0
				C2.05,85.56-6.23,96.34-4.69,108.1l0,0c1.54,11.76-6.74,22.54-18.5,24.08h0c-11.76,1.54,25.22,47.09,26.76,58.85l0,0
				c1.54,11.76-6.74,22.54-18.5,24.08l0,0c-11.76,1.54-65.3-22.45-63.76-10.69l0,0c1.54,11.76-6.74,22.54-18.5,24.08h0
				c-11.76,1.54-20.04,12.32-18.5,24.08v0c1.54,11.76-6.74,22.54-18.5,24.08l0,0c-11.76,1.54-20.04,12.32-18.5,24.08"/>
		</g>
		<g style="opacity:0.2;clip-path:url(#SVGID_00000111179447057826198610000005487422514282421400_);">
			<path class="st66" d="M-169.56,153.48c8.95-1.17,15.26-9.38,14.09-18.34l0,0c-1.17-8.95,27.02-0.35,35.97-1.52l0,0
				c8.95-1.17,15.26-9.38,14.09-18.34l0,0c-1.17-8.95-16.75-33.98-7.8-35.15l0,0c19.09-19.39,1.67-21.31,0.5-30.26l0,0
				c-1.17-8.95,5.13-17.16,14.09-18.34l0,0c8.95-1.17,28.85,2.54,27.67-6.41v0c-1.17-8.95,42.23,11.33,51.18,10.16h0
				c8.95-1.17,15.26-9.38,14.09-18.34l0,0C-6.86,8-37.65-28.71-28.69-29.88l0,0c8.95-1.17,15.26-9.38,14.09-18.34"/>
			<path class="st67" d="M-170.31,152.9c8.95-1.17,15.26-9.38,14.09-18.34h0c-1.17-8.95,25.56-1.47,34.51-2.64h0
				c8.95-1.17,15.26-9.38,14.09-18.34l0,0c-1.17-8.95-15.29-32.86-6.34-34.03l0,0c18.41-18.17,0.28-22.28-0.89-31.23l0,0
				c-1.17-8.95,5.13-17.16,14.09-18.34h0c8.95-1.17,30.24,3.51,29.07-5.44l0,0c-1.17-8.95,39.75,9.43,48.71,8.26l0,0
				c8.95-1.17,15.26-9.38,14.09-18.34l0,0c-1.17-8.95-29.49-43.76-20.53-44.93l0,0c8.95-1.17,15.26-9.38,14.09-18.34"/>
			<path class="st68" d="M-171.07,152.32c8.95-1.17,15.26-9.38,14.09-18.34v0c-1.17-8.95,24.1-2.59,33.05-3.76l0,0
				c8.95-1.17,15.26-9.38,14.09-18.34v0c-1.17-8.95-13.84-31.73-4.88-32.91l0,0c17.73-16.96-1.11-23.25-2.28-32.2l0,0
				c-1.17-8.95,5.13-17.16,14.09-18.34l0,0c8.95-1.17,31.63,4.48,30.46-4.47v0c-1.17-8.95,37.28,7.53,46.23,6.36h0
				c8.95-1.17,15.26-9.38,14.09-18.34v0c-1.17-8.95-27.01-41.86-18.06-43.03l0,0c8.95-1.17,15.26-9.38,14.09-18.34"/>
			<path class="st69" d="M-171.82,151.74c8.95-1.17,15.26-9.38,14.09-18.34l0,0c-1.17-8.95,22.64-3.71,31.6-4.89h0
				c8.95-1.17,15.26-9.38,14.09-18.34l0,0c-1.17-8.95-12.38-30.61-3.42-31.79h0c17.06-15.74-2.5-24.22-3.68-33.17l0,0
				c-1.17-8.95,5.13-17.16,14.09-18.34l0,0c8.95-1.17,33.02,5.45,31.85-3.5l0,0c-1.17-8.95,34.81,5.63,43.76,4.46l0,0
				c8.95-1.17,15.26-9.38,14.09-18.34v0c-1.17-8.95-24.54-39.96-15.59-41.13l0,0c8.95-1.17,15.26-9.38,14.09-18.34"/>
			<path class="st70" d="M-172.58,151.16c8.95-1.17,15.26-9.38,14.09-18.34l0,0c-1.17-8.95,21.18-4.83,30.14-6.01l0,0
				c8.95-1.17,15.26-9.38,14.09-18.34l0,0c-1.17-8.95-10.92-29.49-1.96-30.67h0c16.38-14.53-3.89-25.19-5.07-34.14l0,0
				c-1.17-8.95,5.13-17.16,14.09-18.34h0c8.95-1.17,34.41,6.42,33.24-2.53l0,0c-1.17-8.95,32.33,3.73,41.29,2.56h0
				c8.95-1.17,15.26-9.38,14.09-18.34v0c-1.17-8.95-22.07-38.06-13.12-39.23h0c8.95-1.17,15.26-9.38,14.09-18.34"/>
			<path class="st71" d="M-173.33,150.58c8.95-1.17,15.26-9.38,14.09-18.34l0,0c-1.17-8.95,19.72-5.95,28.68-7.13l0,0
				c8.95-1.17,15.26-9.38,14.09-18.34l0,0c-1.17-8.95-9.46-28.37-0.51-29.55l0,0c15.71-13.32-5.29-26.16-6.46-35.11l0,0
				c-1.17-8.95,5.13-17.16,14.09-18.34l0,0c8.95-1.17,35.81,7.39,34.63-1.56l0,0c-1.17-8.95,29.86,1.83,38.81,0.66l0,0
				c8.95-1.17,15.26-9.38,14.09-18.34l0,0C-23-4.4-41.42-31.61-32.47-32.78h0c8.95-1.17,15.26-9.38,14.09-18.34"/>
			<path class="st72" d="M-174.09,150c8.95-1.17,15.26-9.38,14.09-18.34h0c-1.17-8.95,18.27-7.07,27.22-8.25h0
				c8.95-1.17,15.26-9.38,14.09-18.34l0,0c-1.17-8.95-8-27.25,0.95-28.42l0,0c15.03-12.1-6.68-27.13-7.85-36.08v0
				c-1.17-8.95,5.13-17.16,14.09-18.34v0c8.95-1.17,37.2,8.36,36.02-0.59l0,0c-1.17-8.95,27.39-0.07,36.34-1.24h0
				c8.95-1.17,15.26-9.38,14.09-18.34l0,0c-1.17-8.95-17.12-34.26-8.17-35.43h0c8.95-1.17,15.26-9.38,14.09-18.34"/>
			<path class="st73" d="M-174.84,149.42c8.95-1.17,15.26-9.38,14.09-18.34l0,0c-1.17-8.95,16.81-8.2,25.76-9.37l0,0
				c8.95-1.17,15.26-9.38,14.09-18.34l0,0c-1.17-8.95-6.54-26.13,2.41-27.3l0,0c14.36-10.89-8.07-28.1-9.24-37.05v0
				c-1.17-8.95,5.13-17.16,14.09-18.34h0c8.95-1.17,38.59,9.33,37.42,0.38v0c-1.17-8.95,24.92-1.97,33.87-3.14l0,0
				c8.95-1.17,15.26-9.38,14.09-18.34l0,0c-1.17-8.95-14.65-32.36-5.7-33.53l0,0c8.95-1.17,15.26-9.38,14.09-18.34"/>
			<path class="st74" d="M-175.6,148.84c8.95-1.17,15.26-9.38,14.09-18.34h0c-1.17-8.95,15.35-9.32,24.3-10.49h0
				c8.95-1.17,15.26-9.38,14.09-18.34v0c-1.17-8.95-5.08-25.01,3.87-26.18l0,0c13.68-9.67-9.46-29.07-10.64-38.02v0
				c-1.17-8.95,5.13-17.16,14.09-18.34l0,0c8.95-1.17,39.98,10.3,38.81,1.35l0,0c-1.17-8.95,22.44-3.86,31.4-5.04h0
				c8.95-1.17,15.26-9.38,14.09-18.34v0c-1.17-8.95-12.18-30.46-3.22-31.63l0,0c8.95-1.17,15.26-9.38,14.09-18.34"/>
			<path class="st75" d="M-176.35,148.26c8.95-1.17,15.26-9.38,14.09-18.34v0c-1.17-8.95,13.89-10.44,22.84-11.61l0,0
				c8.95-1.17,15.26-9.38,14.09-18.34l0,0c-1.17-8.95-3.62-23.89,5.33-25.06l0,0c13.01-8.46-10.85-30.04-12.03-38.99v0
				c-1.17-8.95,5.13-17.16,14.09-18.34l0,0c8.95-1.17,41.37,11.27,40.2,2.32v0c-1.17-8.95,19.97-5.76,28.92-6.94l0,0
				c8.95-1.17,15.26-9.38,14.09-18.34v0c-1.17-8.95-9.7-28.56-0.75-29.73l0,0c8.95-1.17,15.26-9.38,14.09-18.34"/>
			<path class="st76" d="M-177.11,147.68c8.95-1.17,15.26-9.38,14.09-18.34h0c-1.17-8.95,12.43-11.56,21.38-12.73h0
				c8.95-1.17,15.26-9.38,14.09-18.34l0,0c-1.17-8.95-2.16-22.77,6.79-23.94h0c12.33-7.24-12.24-31.01-13.42-39.96v0
				c-1.17-8.95,5.13-17.16,14.09-18.34h0c8.95-1.17,42.76,12.24,41.59,3.29l0,0c-1.17-8.95,17.5-7.66,26.45-8.84h0
				C-43.1,9.31-36.8,1.1-37.97-7.85v0c-1.17-8.95-7.23-26.66,1.72-27.83v0c8.95-1.17,15.26-9.38,14.09-18.34"/>
			<path class="st77" d="M-177.86,147.1c8.95-1.17,15.26-9.38,14.09-18.34h0c-1.17-8.95,10.97-12.68,19.92-13.85h0
				c8.95-1.17,15.26-9.38,14.09-18.34v0c-1.17-8.95-0.7-21.65,8.25-22.82h0c11.66-6.03-13.64-31.98-14.81-40.93v0
				c-1.17-8.95,5.13-17.16,14.09-18.34l0,0c8.95-1.17,44.16,13.21,42.98,4.26v0c-1.17-8.95,15.02-9.56,23.98-10.74l0,0
				c8.95-1.17,15.26-9.38,14.09-18.34h0c-1.17-8.95-4.76-24.76,4.19-25.93h0c8.95-1.17,15.26-9.38,14.09-18.34"/>
			<path class="st78" d="M-178.62,146.52c8.95-1.17,15.26-9.38,14.09-18.34v0c-1.17-8.95,9.51-13.8,18.46-14.97l0,0
				c8.95-1.17,15.26-9.38,14.09-18.34l0,0c-1.17-8.95,0.76-20.53,9.71-21.7h0c10.98-4.82-15.03-32.95-16.2-41.9v0
				c-1.17-8.95,5.13-17.16,14.09-18.34l0,0c8.95-1.17,45.55,14.18,44.37,5.23l0,0C-81.19,9.21-67.46,6.7-58.51,5.53h0
				c8.95-1.17,15.26-9.38,14.09-18.34l0,0c-1.17-8.95-2.29-22.86,6.67-24.04h0c8.95-1.17,15.26-9.38,14.09-18.34"/>
			<path class="st79" d="M-179.37,145.94c8.95-1.17,15.26-9.38,14.09-18.34l0,0c-1.17-8.95,8.05-14.92,17-16.09h0
				c8.95-1.17,15.26-9.38,14.09-18.34l0,0c-1.17-8.95,2.21-19.4,11.17-20.58l0,0c10.3-3.6-16.42-33.92-17.59-42.87l0,0
				c-1.17-8.95,5.13-17.16,14.09-18.34h0c8.95-1.17,46.94,15.15,45.77,6.2l0,0C-81.94,8.63-70.69,4.22-61.74,3.05h0
				c8.95-1.17,15.26-9.38,14.09-18.34l0,0c-1.17-8.95,0.19-20.96,9.14-22.14h0c8.95-1.17,15.26-9.38,14.09-18.34"/>
			<path class="st80" d="M-180.13,145.36c8.95-1.17,15.26-9.38,14.09-18.34v0c-1.17-8.95,6.59-16.04,15.55-17.22l0,0
				c8.95-1.17,15.26-9.38,14.09-18.34v0c-1.17-8.95,3.67-18.28,12.63-19.46l0,0c9.63-2.39-17.81-34.89-18.99-43.84l0,0
				c-1.17-8.95,5.13-17.16,14.09-18.34l0,0c8.95-1.17,48.33,16.12,47.16,7.17v0C-82.7,8.05-73.92,1.74-64.97,0.57h0
				c8.95-1.17,15.26-9.38,14.09-18.34l0,0c-1.17-8.95,2.66-19.06,11.61-20.24h0c8.95-1.17,15.26-9.38,14.09-18.34"/>
			<path class="st81" d="M-180.89,144.78c8.95-1.17,15.26-9.38,14.09-18.34l0,0c-1.17-8.95,5.13-17.16,14.09-18.34h0
				c8.95-1.17,15.26-9.38,14.09-18.34l0,0c-1.17-8.95,5.13-17.16,14.09-18.34v0c8.95-1.17-19.2-35.86-20.38-44.81l0,0
				c-1.17-8.95,5.13-17.16,14.09-18.34l0,0c8.95-1.17,49.72,17.09,48.55,8.14l0,0C-83.46,7.47-77.15-0.74-68.2-1.91h0
				c8.95-1.17,15.26-9.38,14.09-18.34v0c-1.17-8.95,5.13-17.16,14.09-18.34l0,0c8.95-1.17,15.26-9.38,14.09-18.34"/>
		</g>
	</g>
	<g class="st2">
		<text transform="matrix(1 0 0 1 -116.8958 126.6911)" class="st83 st88" style="font-size:16.6755px;">DESIGN</text>
		<text transform="matrix(1 0 0 1 -113.1692 111.632)" class="st83 st90" style="font-size:16.6755px;">COVER</text>
	</g>
	<g class="st2">
		<rect x="-98.3" y="89.44" class="st83" width="28.43" height="2.16"/>
		<rect x="-98.3" y="134.25" class="st83" width="28.43" height="2.16"/>
	</g>
	<g class="st2">
		<rect x="-114.06" y="155.17" class="st92" width="59.95" height="15.57"/>
		<text transform="matrix(1 0 0 1 -107.3987 158.0073)"><tspan x="0" y="0" class="st83 st93 st94">Lorem ipsum dolor sit amet, </tspan><tspan x="-3.33" y="4.8" class="st83 st93 st94">consectetuer adipiscing elit, sed </tspan><tspan x="19.08" y="9.6" class="st83 st93 st94">diam </tspan></text>
	</g>
</g>
<g>
	<g>
		
			<linearGradient id="SVGID_00000043431583639420183360000016223024612132151424_" gradientUnits="userSpaceOnUse" x1="-40.0558" y1="-9.2068" x2="152.5673" y2="183.4163">
			<stop  offset="0" style="stop-color:#FFF807"/>
			<stop  offset="1" style="stop-color:#00A0FD"/>
		</linearGradient>
		
			<rect x="8.17" y="6.49" style="fill:url(#SVGID_00000043431583639420183360000016223024612132151424_);" width="157.01" height="222.06"/>
		<g>
			<defs>
				<rect id="SVGID_00000107581329983752223630000015494599780795682986_" x="8.17" y="6.49" width="157.01" height="222.06"/>
			</defs>
			<clipPath id="SVGID_00000049916460711595769910000000703433998095009927_">
				<use xlink:href="#SVGID_00000107581329983752223630000015494599780795682986_"  style="overflow:visible;"/>
			</clipPath>
			<g style="clip-path:url(#SVGID_00000049916460711595769910000000703433998095009927_);">
				<g class="st86">
					
						<rect x="-4.33" y="-73.61" transform="matrix(0.7071 -0.7071 0.7071 0.7071 12.1477 68.6413)" class="st66" width="186.53" height="186.53"/>
					
						<rect x="-0.42" y="-69.69" transform="matrix(0.7071 -0.7071 0.7071 0.7071 12.1477 68.6413)" class="st67" width="178.69" height="178.69"/>
					
						<rect x="3.5" y="-65.77" transform="matrix(0.7071 -0.7071 0.7071 0.7071 12.1477 68.6413)" class="st68" width="170.86" height="170.86"/>
					
						<rect x="7.42" y="-61.85" transform="matrix(0.7071 -0.7071 0.7071 0.7071 12.1477 68.6413)" class="st69" width="163.02" height="163.02"/>
					
						<rect x="11.34" y="-57.93" transform="matrix(0.7071 -0.7071 0.7071 0.7071 12.1477 68.6413)" class="st70" width="155.18" height="155.18"/>
					
						<rect x="15.26" y="-54.02" transform="matrix(0.7071 -0.7071 0.7071 0.7071 12.1477 68.6413)" class="st71" width="147.35" height="147.35"/>
					
						<rect x="19.18" y="-50.1" transform="matrix(0.7071 -0.7071 0.7071 0.7071 12.1477 68.6414)" class="st72" width="139.51" height="139.51"/>
					
						<rect x="23.09" y="-46.18" transform="matrix(0.7071 -0.7071 0.7071 0.7071 12.1477 68.6414)" class="st73" width="131.67" height="131.67"/>
					
						<rect x="27.01" y="-42.26" transform="matrix(0.7071 -0.7071 0.7071 0.7071 12.1477 68.6414)" class="st74" width="123.84" height="123.84"/>
					
						<rect x="30.93" y="-38.34" transform="matrix(0.7071 -0.7071 0.7071 0.7071 12.1477 68.6414)" class="st75" width="116" height="116"/>
					
						<rect x="34.85" y="-34.42" transform="matrix(0.7071 -0.7071 0.7071 0.7071 12.1477 68.6414)" class="st76" width="108.16" height="108.16"/>
					
						<rect x="38.77" y="-30.51" transform="matrix(0.7071 -0.7071 0.7071 0.7071 12.1477 68.6414)" class="st77" width="100.33" height="100.33"/>
					
						<rect x="42.69" y="-26.59" transform="matrix(0.7071 -0.7071 0.7071 0.7071 12.1477 68.6414)" class="st78" width="92.49" height="92.49"/>
					
						<rect x="46.61" y="-22.67" transform="matrix(0.7071 -0.7071 0.7071 0.7071 12.1477 68.6414)" class="st79" width="84.65" height="84.65"/>
					
						<rect x="50.52" y="-18.75" transform="matrix(0.7071 -0.7071 0.7071 0.7071 12.1477 68.6414)" class="st80" width="76.82" height="76.82"/>
					
						<rect x="54.44" y="-14.83" transform="matrix(0.7071 -0.7071 0.7071 0.7071 12.1477 68.6414)" class="st81" width="68.98" height="68.98"/>
				</g>
				<g class="st87">
					
						<rect x="-4.33" y="1.18" transform="matrix(0.7071 -0.7071 0.7071 0.7071 -40.7372 90.547)" class="st66" width="186.53" height="186.53"/>
					
						<rect x="-0.42" y="5.1" transform="matrix(0.7071 -0.7071 0.7071 0.7071 -40.7372 90.547)" class="st67" width="178.69" height="178.69"/>
					
						<rect x="3.5" y="9.02" transform="matrix(0.7071 -0.7071 0.7071 0.7071 -40.7372 90.547)" class="st68" width="170.86" height="170.86"/>
					
						<rect x="7.42" y="12.94" transform="matrix(0.7071 -0.7071 0.7071 0.7071 -40.7372 90.547)" class="st69" width="163.02" height="163.02"/>
					
						<rect x="11.34" y="16.86" transform="matrix(0.7071 -0.7071 0.7071 0.7071 -40.7372 90.547)" class="st70" width="155.18" height="155.18"/>
					
						<rect x="15.26" y="20.77" transform="matrix(0.7071 -0.7071 0.7071 0.7071 -40.7372 90.547)" class="st71" width="147.35" height="147.35"/>
					
						<rect x="19.18" y="24.69" transform="matrix(0.7071 -0.7071 0.7071 0.7071 -40.7372 90.5471)" class="st72" width="139.51" height="139.51"/>
					
						<rect x="23.09" y="28.61" transform="matrix(0.7071 -0.7071 0.7071 0.7071 -40.7372 90.5471)" class="st73" width="131.67" height="131.67"/>
					
						<rect x="27.01" y="32.53" transform="matrix(0.7071 -0.7071 0.7071 0.7071 -40.7372 90.5471)" class="st74" width="123.84" height="123.84"/>
					
						<rect x="30.93" y="36.45" transform="matrix(0.7071 -0.7071 0.7071 0.7071 -40.7372 90.547)" class="st75" width="116" height="116"/>
					
						<rect x="34.85" y="40.37" transform="matrix(0.7071 -0.7071 0.7071 0.7071 -40.7372 90.547)" class="st76" width="108.16" height="108.16"/>
					
						<rect x="38.77" y="44.28" transform="matrix(0.7071 -0.7071 0.7071 0.7071 -40.7372 90.547)" class="st77" width="100.33" height="100.33"/>
					
						<rect x="42.69" y="48.2" transform="matrix(0.7071 -0.7071 0.7071 0.7071 -40.7372 90.547)" class="st78" width="92.49" height="92.49"/>
					
						<rect x="46.61" y="52.12" transform="matrix(0.7071 -0.7071 0.7071 0.7071 -40.7372 90.547)" class="st79" width="84.65" height="84.65"/>
					
						<rect x="50.52" y="56.04" transform="matrix(0.7071 -0.7071 0.7071 0.7071 -40.7372 90.547)" class="st80" width="76.82" height="76.82"/>
					
						<rect x="54.44" y="59.96" transform="matrix(0.7071 -0.7071 0.7071 0.7071 -40.7372 90.5471)" class="st81" width="68.98" height="68.98"/>
				</g>
			</g>
			<g style="clip-path:url(#SVGID_00000049916460711595769910000000703433998095009927_);">
				<text transform="matrix(0 1 -1 0 116.8618 44.4381)" class="st83 st88 st89">DESIGN</text>
				<text transform="matrix(0 1 -1 0 136.5503 44.4381)" class="st83 st90 st89">COVER</text>
			</g>
			
				<rect x="116.42" y="37.69" style="clip-path:url(#SVGID_00000049916460711595769910000000703433998095009927_);fill:#FFFFFF;" width="61.99" height="1.84"/>
		</g>
	</g>
	<g>
		<rect x="29.82" y="182.8" class="st92" width="32.67" height="26.97"/>
		<text transform="matrix(1 0 0 1 29.8176 185.6354)"><tspan x="0" y="0" class="st83 st93 st94">Lorem ipsum dolor </tspan><tspan x="0" y="4.8" class="st83 st93 st94">sit amet, </tspan><tspan x="0" y="9.6" class="st83 st93 st94">consectetuer </tspan><tspan x="0" y="14.4" class="st83 st93 st94">adipiscing elit, sed </tspan><tspan x="0" y="19.2" class="st83 st93 st94">diam </tspan></text>
	</g>
</g>
</svg>
