<?xml version="1.0" encoding="utf-8"?>
<!-- Generator: Adobe Illustrator 16.0.0, SVG Export Plug-In . SVG Version: 6.00 Build 0)  -->
<!DOCTYPE svg PUBLIC "-//W3C//DTD SVG 1.1//EN" "http://www.w3.org/Graphics/SVG/1.1/DTD/svg11.dtd">
<svg version="1.1" id="Layer_1" xmlns="http://www.w3.org/2000/svg" xmlns:xlink="http://www.w3.org/1999/xlink" x="0px" y="0px"
	 width="319.945px" height="122.038px" viewBox="0 0 319.945 122.038" enable-background="new 0 0 319.945 122.038"
	 xml:space="preserve">
<g>
	<g>
		<path fill="#3C3C3B" d="M145.992,66.835l2.502,3.374l-5.917,3l-3.501-4.75c-9.708-0.042-15.42-7.334-15.42-15.334
			c0-8.001,5.754-15.334,15.461-15.334c9.667,0,15.418,7.333,15.418,15.334C154.535,58.959,151.412,64.458,145.992,66.835z
			 M147.66,53.125c0-4.793-3.25-9.25-8.543-9.25c-5.331,0-8.542,4.458-8.542,9.25c0,4.792,3.211,9.25,8.542,9.25
			C144.41,62.375,147.66,57.917,147.66,53.125z"/>
		<path fill="#3C3C3B" d="M161.329,38.54h6.751v19.167c0,2.668,1.833,4.918,4.583,4.918s4.627-2.25,4.627-4.918V38.54h6.748V57.75
			c0,6.002-4.374,10.71-11.375,10.71c-6.96,0-11.334-4.708-11.334-10.71V38.54z"/>
		<path fill="#3C3C3B" d="M209.5,67.708l-1.124-3.542H198l-1.124,3.542h-7.209l10.417-29.168h6.207l10.542,29.168H209.5z
			 M203.21,46.874l-3.586,12.002h7.084L203.21,46.874z"/>
		<path fill="#3C3C3B" d="M228.459,58.042c0,3.168,1.919,5.041,4.669,5.041c2.165,0,3.832-1.374,3.832-3.416
			c0-2.334-1.999-3.126-4.542-4.084c-5.373-1.958-9.873-3.667-9.873-9.583c0-5.375,4.915-8.208,10.249-8.208
			c6.916,0,10.375,4.333,10.375,9.292h-6.75c0-2.583-1.292-4.209-3.625-4.209c-1.917,0-3.543,1.001-3.543,3.001
			c0,1.917,1.709,2.958,4.167,3.833c4.795,1.667,10.251,3.585,10.251,9.417c0,6.002-4.542,9.335-10.961,9.335
			c-6.248,0-10.997-3.751-10.997-10.417H228.459z"/>
		<path fill="#3C3C3B" d="M268.504,67.708l-1.124-3.542h-10.376l-1.123,3.542h-7.212l10.42-29.168h6.209l10.542,29.168H268.504z
			 M262.214,46.874l-3.586,12.002h7.087L262.214,46.874z"/>
		<path fill="#3C3C3B" d="M281.922,38.54h12.251c6.46,0,10.626,4.875,10.626,10.542c0,4.085-2.164,7.711-5.792,9.418l5.834,9.209
			h-7.831l-5.17-8.084h-3.165v8.084h-6.753V38.54z M297.966,49.082c0-2.707-1.833-5.04-4.666-5.04h-4.625v10.083h4.625
			C296.133,54.125,297.966,51.792,297.966,49.082z"/>
	</g>
	<g>
		<path fill="#3C3C3B" d="M158.523,90.597h-1.409v-5.311l-2.144,5.311h-1.069l-2.144-5.311v5.311h-1.415v-8.586h1.351l2.749,6.39
			l2.734-6.39h1.347V90.597z"/>
		<path fill="#3C3C3B" d="M168.584,90.597l-0.368-1.093h-3.227l-0.366,1.093h-1.486l2.969-8.586h0.993l2.971,8.586H168.584z
			 M166.61,84.354l-1.19,3.889h2.367L166.61,84.354z"/>
		<path fill="#3C3C3B" d="M176.09,86.831v3.767h-1.409v-8.586h1.409v3.777l3.19-3.777h1.767l-3.63,4.293l3.63,4.293h-1.767
			L176.09,86.831z"/>
		<path fill="#3C3C3B" d="M185.805,82.011h1.46v8.586h-1.46V82.011z"/>
		<path fill="#3C3C3B" d="M197.68,88.119v-6.108h1.407v8.586h-1.543l-3.397-6.109v6.109h-1.411v-8.586h1.545L197.68,88.119z"/>
		<path fill="#3C3C3B" d="M209.587,86.29h4.084v1.265h-0.942c-0.38,1.925-1.804,3.251-4.183,3.251c-2.81,0-4.417-2.171-4.417-4.501
			c0-2.331,1.704-4.5,4.417-4.5c2.022,0,3.52,1.262,3.653,2.782h-1.422c-0.146-0.845-1.043-1.52-2.231-1.52
			c-1.84,0-2.969,1.558-2.969,3.238c0,1.681,1.029,3.238,3.153,3.238c1.458,0,2.328-0.933,2.499-1.988h-1.643V86.29z"/>
		<path fill="#3C3C3B" d="M222.81,82.011h1.46v8.586h-1.46V82.011z"/>
		<path fill="#3C3C3B" d="M231.09,83.273h-2.124v-1.262h5.666v1.262h-2.133v7.324h-1.409V83.273z"/>
		<path fill="#3C3C3B" d="M248.579,86.966h-3.544v3.631h-1.412v-8.586h1.412v3.692h3.544v-3.692h1.41v8.586h-1.41V86.966z"/>
		<path fill="#3C3C3B" d="M260.049,90.597l-0.368-1.093h-3.227l-0.369,1.093H254.6l2.972-8.586h0.992l2.969,8.586H260.049z
			 M258.073,84.354l-1.188,3.889h2.365L258.073,84.354z"/>
		<path fill="#3C3C3B" d="M266.144,82.011h3.079c1.84,0,3.028,1.386,3.028,3.004c0,1.62-1.188,3.005-3.028,3.005h-1.67v2.576h-1.409
			V82.011z M270.842,85.016c0-0.946-0.638-1.743-1.619-1.743h-1.67v3.485h1.67C270.204,86.758,270.842,85.961,270.842,85.016z"/>
		<path fill="#3C3C3B" d="M277.134,82.011h3.079c1.841,0,3.029,1.386,3.029,3.004c0,1.62-1.188,3.005-3.029,3.005h-1.67v2.576
			h-1.409V82.011z M281.83,85.016c0-0.946-0.636-1.743-1.617-1.743h-1.67v3.485h1.67C281.194,86.758,281.83,85.961,281.83,85.016z"
			/>
		<path fill="#3C3C3B" d="M289.536,83.273v2.43h3.542v1.263h-3.542v2.366h3.542v1.265h-4.956v-8.586h4.956v1.262H289.536z"/>
		<path fill="#3C3C3B" d="M303.432,88.119v-6.108h1.409v8.586h-1.543l-3.399-6.109v6.109h-1.41v-8.586h1.546L303.432,88.119z"/>
	</g>
	<g>
		<linearGradient id="SVGID_1_" gradientUnits="userSpaceOnUse" x1="55.3672" y1="122.7852" x2="81.3408" y2="14.4797">
			<stop  offset="0" style="stop-color:#771B6E"/>
			<stop  offset="0.0139" style="stop-color:#7B1B6D"/>
			<stop  offset="0.1769" style="stop-color:#A91C5D"/>
			<stop  offset="0.322" style="stop-color:#CA1D51"/>
			<stop  offset="0.4426" style="stop-color:#DE1D4B"/>
			<stop  offset="0.5239" style="stop-color:#E51D48"/>
			<stop  offset="0.5896" style="stop-color:#E83649"/>
			<stop  offset="0.7194" style="stop-color:#ED624A"/>
			<stop  offset="0.8358" style="stop-color:#F1824A"/>
			<stop  offset="0.9333" style="stop-color:#F3964B"/>
			<stop  offset="1" style="stop-color:#F49D4B"/>
		</linearGradient>
		<path fill="url(#SVGID_1_)" d="M111.286,97.812c-2.747,1.169-5.553,2.26-8.386,3.247c-2.84,0.975-5.712,1.856-8.627,2.605
			c-5.827,1.499-11.815,2.471-17.873,2.715c-6.05,0.23-12.179-0.317-18.094-1.89c-5.912-1.561-11.58-4.209-16.533-7.896
			c-1.237-0.922-2.428-1.908-3.563-2.96c-0.571-0.53-1.112-1.062-1.668-1.635c-0.521-0.543-1.036-1.055-1.562-1.64l-0.775-0.863
			l-0.747-0.873c-0.507-0.578-0.973-1.186-1.458-1.783c-0.935-1.218-1.854-2.454-2.69-3.752c-0.434-0.638-0.821-1.306-1.229-1.962
			c-0.377-0.675-0.78-1.337-1.131-2.029c-0.736-1.363-1.373-2.785-1.948-4.229c-1.15-2.888-1.981-5.915-2.476-8.996
			c-0.251-1.539-0.396-3.092-0.488-4.648c-0.078-1.556-0.062-3.114,0.016-4.665c0.188-3.101,0.647-6.176,1.366-9.174
			c0.166-0.753,0.371-1.495,0.567-2.239c0.096-0.373,0.213-0.739,0.321-1.108l0.161-0.554l0.083-0.276l0.093-0.294l0.35-1.065
			l0.397-1.114c0.128-0.375,0.275-0.73,0.417-1.092c0.144-0.361,0.284-0.724,0.441-1.08c1.202-2.865,2.71-5.611,4.49-8.182
			c1.799-2.557,3.873-4.941,6.244-7.013c2.367-2.072,5.011-3.852,7.86-5.218c2.85-1.364,5.885-2.354,8.994-2.884
			c0.385-0.074,0.774-0.136,1.165-0.186l0.586-0.079l0.145-0.021l0.161-0.021l0.281-0.028c0.353-0.042,0.799-0.076,1.184-0.106
			c0.394-0.027,0.788-0.046,1.18-0.061c1.575-0.058,3.142-0.011,4.7,0.119c3.116,0.272,6.2,0.889,9.176,1.861
			c2.976,0.977,5.841,2.326,8.487,4.044c2.637,1.726,5.051,3.819,7.082,6.236c2.045,2.413,3.718,5.122,4.988,7.988
			c1.278,2.865,2.151,5.886,2.702,8.933c0.564,3.049,0.792,6.132,0.811,9.2l-0.012,1.149l-0.002,0.288v0.145l-0.007,0.17
			l-0.023,0.56l-0.046,1.119c-0.016,0.371-0.058,0.774-0.085,1.161c-0.032,0.387-0.058,0.778-0.095,1.165l-0.141,1.147
			c-0.073,0.767-0.221,1.527-0.338,2.29c-0.537,3.042-1.403,6.035-2.587,8.895c-1.197,2.858-2.727,5.579-4.574,8.064
			c-1.843,2.49-4.007,4.729-6.389,6.686c-2.382,1.951-4.978,3.631-7.723,4.995c-1.37,0.682-2.775,1.292-4.215,1.822
			c-0.719,0.266-1.441,0.511-2.179,0.733c-0.748,0.222-1.463,0.421-2.267,0.588l0,0l-0.117-1.78
			c1.288-0.009,2.573-0.046,3.844-0.129c1.276-0.093,2.545-0.205,3.806-0.388c1.255-0.185,2.506-0.389,3.737-0.671
			c1.232-0.28,2.45-0.601,3.653-0.972c1.199-0.375,2.379-0.809,3.537-1.297c1.158-0.474,2.292-1.006,3.395-1.595
			c1.104-0.586,2.168-1.24,3.209-1.928c1.036-0.69,2.033-1.44,2.998-2.23c0.963-0.79,1.88-1.639,2.76-2.522
			c0.877-0.887,1.709-1.82,2.501-2.788c0.781-0.976,1.524-1.983,2.218-3.03c0.693-1.048,1.334-2.133,1.933-3.243
			c0.601-1.109,1.149-2.252,1.64-3.425c0.5-1.168,0.961-2.358,1.359-3.575c0.402-1.215,0.771-2.448,1.087-3.7
			c0.327-1.249,0.604-2.518,0.863-3.798v-0.002c0.039-0.202,0.237-0.331,0.438-0.289c0.176,0.036,0.295,0.188,0.298,0.357
			c0.021,1.325-0.042,2.654-0.162,3.981c-0.133,1.325-0.319,2.65-0.584,3.965c-0.274,1.313-0.597,2.619-1.002,3.906
			c-0.41,1.285-0.885,2.552-1.424,3.798c-0.543,1.244-1.161,2.458-1.845,3.632c-0.688,1.177-1.438,2.321-2.257,3.414
			c-0.818,1.094-1.702,2.141-2.645,3.136c-0.935,0.996-1.941,1.931-2.989,2.813c-1.046,0.885-2.151,1.7-3.289,2.459
			c-1.138,0.761-2.328,1.44-3.544,2.063c-1.219,0.621-2.465,1.178-3.736,1.668c-1.273,0.484-2.574,0.896-3.888,1.246
			c-1.312,0.353-2.64,0.633-3.979,0.837c-1.338,0.205-2.679,0.365-4.026,0.432c-1.35,0.069-2.694,0.096-4.035,0.033
			c-1.338-0.054-2.674-0.171-3.996-0.363l-0.14-0.021c-0.486-0.07-0.818-0.52-0.751-1.004c0.06-0.405,0.385-0.708,0.776-0.753l0,0
			c0.653-0.159,1.372-0.38,2.054-0.609c0.688-0.233,1.373-0.489,2.048-0.766c1.35-0.55,2.672-1.177,3.952-1.868
			c2.565-1.387,4.988-3.028,7.179-4.928c2.192-1.896,4.146-4.055,5.818-6.404c1.672-2.352,3.037-4.908,4.1-7.589
			c1.048-2.688,1.787-5.49,2.243-8.347c0.097-0.716,0.223-1.427,0.285-2.151l0.11-1.078c0.032-0.359,0.049-0.714,0.076-1.071
			c0.019-0.359,0.053-0.703,0.06-1.078l0.03-1.119l0.017-0.562v-0.521l-0.01-1.094c-0.105-5.812-1.11-11.612-3.469-16.801
			c-1.177-2.586-2.703-5-4.546-7.136c-1.838-2.142-4.008-3.989-6.387-5.515c-2.386-1.522-4.986-2.712-7.697-3.583
			c-2.709-0.874-5.529-1.43-8.369-1.665c-1.424-0.115-2.85-0.151-4.264-0.096c-0.354,0.015-0.707,0.033-1.06,0.06
			c-0.359,0.029-0.661,0.052-1.05,0.098l-0.276,0.029l-0.074,0.008c0.019-0.002-0.029,0.005-0.044,0.007l-0.131,0.019l-0.525,0.076
			c-0.35,0.046-0.7,0.099-1.048,0.168c-2.784,0.486-5.488,1.38-8.026,2.607c-5.079,2.466-9.428,6.359-12.699,11.027
			c-1.63,2.342-3.026,4.859-4.142,7.506c-0.147,0.327-0.28,0.662-0.409,0.998c-0.132,0.333-0.271,0.667-0.387,0.997l-0.36,1.002
			l-0.35,1.063l-0.078,0.239l-0.079,0.262l-0.155,0.521c-0.1,0.349-0.214,0.693-0.303,1.047c-0.188,0.699-0.385,1.398-0.542,2.104
			c-1.353,5.627-1.779,11.452-0.938,17.118c0.825,5.67,2.984,11.099,6.029,16.016c0.752,1.235,1.59,2.42,2.445,3.596
			c0.445,0.575,0.87,1.164,1.339,1.724l0.69,0.849l0.704,0.822c0.454,0.548,0.978,1.109,1.47,1.666
			c0.471,0.516,0.986,1.038,1.5,1.536c1.038,1.002,2.135,1.946,3.279,2.833c4.569,3.565,9.894,6.153,15.49,7.808
			c5.611,1.66,11.512,2.342,17.41,2.296c5.902-0.032,11.811-0.813,17.619-2.059c2.908-0.622,5.79-1.383,8.644-2.234
			c2.86-0.845,5.685-1.788,8.489-2.826c0.127-0.046,0.263,0.019,0.311,0.143c0.042,0.12-0.016,0.253-0.129,0.304L111.286,97.812z"/>
		<linearGradient id="SVGID_2_" gradientUnits="userSpaceOnUse" x1="34.8301" y1="117.8613" x2="60.8043" y2="9.5536">
			<stop  offset="0" style="stop-color:#771B6E"/>
			<stop  offset="0.0139" style="stop-color:#7B1B6D"/>
			<stop  offset="0.1769" style="stop-color:#A91C5D"/>
			<stop  offset="0.322" style="stop-color:#CA1D51"/>
			<stop  offset="0.4426" style="stop-color:#DE1D4B"/>
			<stop  offset="0.5239" style="stop-color:#E51D48"/>
			<stop  offset="0.5896" style="stop-color:#E83649"/>
			<stop  offset="0.7194" style="stop-color:#ED624A"/>
			<stop  offset="0.8358" style="stop-color:#F1824A"/>
			<stop  offset="0.9333" style="stop-color:#F3964B"/>
			<stop  offset="1" style="stop-color:#F49D4B"/>
		</linearGradient>
		<path fill="url(#SVGID_2_)" d="M92.258,20.323c0,0-0.12-0.086-0.354-0.254c-0.235-0.173-0.585-0.418-1.036-0.733
			c-0.457-0.312-1.03-0.688-1.712-1.112c-0.677-0.429-1.47-0.894-2.377-1.386c-1.81-0.975-4.058-2.063-6.748-3.002
			c-2.674-0.972-5.79-1.776-9.227-2.285c-3.44-0.507-7.218-0.633-11.151-0.272c-1.97,0.183-3.976,0.511-5.986,0.993
			c-2.013,0.469-4.035,1.086-6.034,1.866c-1.992,0.785-3.963,1.731-5.866,2.837c-1.911,1.096-3.772,2.34-5.529,3.75
			c-3.501,2.771-6.604,6.191-9.089,10.028c-2.489,3.835-4.385,8.08-5.68,12.449c-1.289,4.373-1.982,8.867-2.132,13.24
			c-0.154,4.379,0.199,8.615,1.031,12.568c0.417,1.939,0.949,3.845,1.557,5.634c0.61,1.798,1.311,3.496,2.053,5.095
			c1.496,3.194,3.176,5.981,4.864,8.31c1.688,2.329,3.357,4.213,4.823,5.674c1.465,1.465,2.729,2.498,3.604,3.18
			c0.44,0.341,0.783,0.592,1.021,0.758c0.232,0.168,0.352,0.255,0.352,0.255l0.005,0.002c0.083,0.06,0.104,0.177,0.042,0.26
			c-0.058,0.082-0.169,0.103-0.255,0.048c0,0-0.121-0.081-0.367-0.237c-0.247-0.156-0.61-0.389-1.07-0.712
			c-0.922-0.644-2.258-1.623-3.822-3.032C31.6,92.84,29.809,91,27.981,88.699c-1.826-2.303-3.692-5.069-5.351-8.3
			c-1.667-3.228-3.13-6.896-4.166-10.972c-1.021-4.035-1.587-8.458-1.612-13.024c-0.021-4.567,0.475-9.31,1.632-14.007
			c1.148-4.692,2.986-9.343,5.584-13.583c2.58-4.25,5.933-8.041,9.786-11.107c1.916-1.517,3.943-2.862,6.032-4.043
			c2.097-1.167,4.262-2.146,6.444-2.955c2.188-0.795,4.394-1.435,6.587-1.873c2.194-0.436,4.366-0.704,6.49-0.822
			c4.24-0.253,8.259,0.147,11.861,0.88c3.611,0.734,6.799,1.865,9.519,3.065c2.701,1.234,4.94,2.539,6.687,3.745
			c1.75,1.198,3.035,2.257,3.88,3.008c0.424,0.377,0.747,0.667,0.952,0.869c0.209,0.201,0.317,0.303,0.317,0.303
			c0.115,0.109,0.12,0.292,0.012,0.406C92.534,20.395,92.375,20.409,92.258,20.323z"/>
		<linearGradient id="SVGID_3_" gradientUnits="userSpaceOnUse" x1="63.0674" y1="124.6318" x2="89.0411" y2="16.326">
			<stop  offset="0" style="stop-color:#771B6E"/>
			<stop  offset="0.0139" style="stop-color:#7B1B6D"/>
			<stop  offset="0.1769" style="stop-color:#A91C5D"/>
			<stop  offset="0.322" style="stop-color:#CA1D51"/>
			<stop  offset="0.4426" style="stop-color:#DE1D4B"/>
			<stop  offset="0.5239" style="stop-color:#E51D48"/>
			<stop  offset="0.5896" style="stop-color:#E83649"/>
			<stop  offset="0.7194" style="stop-color:#ED624A"/>
			<stop  offset="0.8358" style="stop-color:#F1824A"/>
			<stop  offset="0.9333" style="stop-color:#F3964B"/>
			<stop  offset="1" style="stop-color:#F49D4B"/>
		</linearGradient>
		<path fill="url(#SVGID_3_)" d="M70.507,86.743c0,0,0.212-0.126,0.622-0.374c0.424-0.238,1.002-0.626,1.743-1.131
			c0.737-0.534,1.64-1.195,2.607-2.079c0.979-0.867,2.04-1.934,3.098-3.227c1.063-1.291,2.112-2.82,3.079-4.577
			c0.979-1.751,1.856-3.743,2.562-5.947c0.728-2.192,1.267-4.608,1.573-7.18c0.172-1.283,0.258-2.611,0.294-3.968
			c0.042-1.359,0.005-2.75-0.115-4.163c-0.11-1.412-0.287-2.847-0.557-4.294c-0.268-1.442-0.629-2.896-1.085-4.341
			c-0.887-2.9-2.195-5.761-3.938-8.418c-1.746-2.646-3.993-5.051-6.714-6.889c-2.701-1.854-5.88-3.123-9.277-3.63
			c-0.428-0.052-0.852-0.118-1.282-0.161c-0.434-0.032-0.864-0.074-1.299-0.098c-0.431-0.01-0.857-0.022-1.285-0.033l-0.703,0.013
			l-0.353,0.006l-0.322,0.016c-0.426,0.021-0.856,0.043-1.301,0.09c-0.442,0.032-0.883,0.094-1.322,0.147
			c-0.877,0.127-1.755,0.281-2.619,0.497c-3.459,0.826-6.78,2.382-9.619,4.649c-2.85,2.248-5.229,5.14-7.037,8.383
			c-1.807,3.245-3.045,6.838-3.73,10.53c-0.678,3.698-0.839,7.497-0.447,11.226c0.1,0.933,0.231,1.858,0.392,2.777
			c0.171,0.92,0.361,1.831,0.59,2.736c0.226,0.903,0.477,1.796,0.771,2.678c0.138,0.442,0.3,0.875,0.457,1.313
			c0.079,0.219,0.167,0.431,0.248,0.646l0.126,0.324l0.032,0.081c-0.017-0.037,0.016,0.038,0.021,0.053l0.071,0.166l0.575,1.331
			l0.582,1.226l0.637,1.23c0.217,0.407,0.454,0.801,0.68,1.204c0.929,1.587,1.969,3.098,3.088,4.53
			c2.246,2.867,4.886,5.368,7.767,7.456c2.879,2.095,6.007,3.756,9.203,5.061c3.197,1.307,6.483,2.229,9.733,2.862
			c6.516,1.239,12.886,1.379,18.697,0.848c5.817-0.532,11.089-1.707,15.647-3.09c4.569-1.373,8.432-2.968,11.534-4.439
			c3.103-1.479,5.449-2.827,7.036-3.766c0.792-0.472,1.391-0.85,1.794-1.105c0.403-0.255,0.612-0.387,0.612-0.387v-0.002
			c0.071-0.044,0.161-0.022,0.205,0.046c0.044,0.067,0.025,0.157-0.037,0.203c0,0-0.202,0.141-0.594,0.419
			c-0.387,0.279-0.968,0.688-1.741,1.205c-1.536,1.035-3.833,2.508-6.897,4.138c-3.066,1.627-6.898,3.419-11.477,5.024
			c-4.582,1.587-9.916,2.971-15.867,3.739c-2.973,0.37-6.104,0.604-9.349,0.586c-3.242,0.003-6.609-0.256-10.03-0.825
			c-3.417-0.571-6.897-1.446-10.329-2.743c-3.43-1.291-6.819-2.977-9.984-5.152c-3.167-2.171-6.112-4.812-8.648-7.875
			c-1.273-1.526-2.427-3.167-3.466-4.885c-0.254-0.435-0.515-0.863-0.758-1.305l-0.717-1.332l-0.68-1.389l-0.598-1.331l-0.076-0.166
			l-0.086-0.205L32.1,73.319c-0.092-0.237-0.194-0.47-0.283-0.709c-0.18-0.477-0.364-0.951-0.523-1.438
			c-0.335-0.964-0.626-1.945-0.889-2.938c-0.515-1.983-0.866-4.008-1.082-6.055c-0.415-4.09-0.267-8.254,0.525-12.313
			c0.783-4.055,2.181-8.01,4.22-11.623c2.03-3.61,4.729-6.875,7.993-9.428c3.259-2.556,7.05-4.394,10.99-5.35
			c0.984-0.249,1.979-0.428,2.972-0.576c0.5-0.064,0.992-0.137,1.49-0.176c0.49-0.053,1.002-0.084,1.513-0.112l0.38-0.018
			l0.351-0.009l0.702-0.016c0.507,0.009,1.016,0.017,1.518,0.025c0.498,0.021,0.991,0.064,1.488,0.095
			c0.493,0.044,0.983,0.114,1.477,0.172c3.922,0.543,7.694,1.984,10.88,4.136c3.188,2.151,5.783,4.94,7.769,7.944
			c2.004,3.005,3.367,6.248,4.32,9.452c0.938,3.217,1.426,6.421,1.566,9.502c0.071,1.539,0.056,3.051-0.042,4.521
			c-0.092,1.47-0.244,2.902-0.48,4.285c-0.242,1.381-0.53,2.719-0.892,3.995c-0.354,1.279-0.756,2.504-1.214,3.669
			c-1.819,4.661-4.39,8.283-6.882,10.823c-2.511,2.549-4.896,4.047-6.546,4.946c-0.848,0.438-1.501,0.751-1.937,0.93
			c-0.44,0.191-0.668,0.291-0.668,0.291c-0.171,0.075-0.371-0.005-0.446-0.177C70.302,87.009,70.361,86.828,70.507,86.743z"/>
		<linearGradient id="SVGID_4_" gradientUnits="userSpaceOnUse" x1="43.8047" y1="120.0107" x2="69.7782" y2="11.7059">
			<stop  offset="0" style="stop-color:#771B6E"/>
			<stop  offset="0.0139" style="stop-color:#7B1B6D"/>
			<stop  offset="0.1769" style="stop-color:#A91C5D"/>
			<stop  offset="0.322" style="stop-color:#CA1D51"/>
			<stop  offset="0.4426" style="stop-color:#DE1D4B"/>
			<stop  offset="0.5239" style="stop-color:#E51D48"/>
			<stop  offset="0.5896" style="stop-color:#E83649"/>
			<stop  offset="0.7194" style="stop-color:#ED624A"/>
			<stop  offset="0.8358" style="stop-color:#F1824A"/>
			<stop  offset="0.9333" style="stop-color:#F3964B"/>
			<stop  offset="1" style="stop-color:#F49D4B"/>
		</linearGradient>
		<path fill="url(#SVGID_4_)" d="M33.969,13.646c0,0-0.133,0.091-0.393,0.266c-0.267,0.175-0.636,0.444-1.114,0.801
			c-0.95,0.726-2.317,1.845-3.858,3.462c-1.555,1.603-3.291,3.696-4.999,6.29c-1.724,2.58-3.435,5.65-4.909,9.163
			c-1.49,3.502-2.787,7.436-3.637,11.694c-0.429,2.128-0.746,4.334-0.958,6.596c-0.202,2.262-0.275,4.581-0.187,6.93
			c0.038,1.176,0.131,2.356,0.245,3.541c0.135,1.183,0.282,2.374,0.499,3.56c0.4,2.376,0.987,4.746,1.738,7.078
			c0.769,2.327,1.679,4.627,2.787,6.845c0.269,0.557,0.562,1.105,0.854,1.651c0.143,0.276,0.297,0.545,0.451,0.814l0.447,0.784
			l0.504,0.83c0.171,0.278,0.336,0.558,0.5,0.805c0.334,0.507,0.656,1.019,1.021,1.532c2.793,4.109,6.26,7.713,10.104,10.698
			c3.862,2.973,8.133,5.268,12.477,6.987c4.348,1.716,8.766,2.878,13.033,3.637c4.266,0.771,8.379,1.145,12.193,1.307
			c3.815,0.153,7.335,0.105,10.453-0.056c1.562-0.074,3.024-0.165,4.379-0.28c1.352-0.116,2.591-0.25,3.715-0.362
			c2.241-0.247,4.003-0.498,5.205-0.665c1.204-0.176,1.847-0.271,1.847-0.271l0,0c0.118-0.018,0.229,0.063,0.244,0.18
			c0.017,0.106-0.044,0.203-0.143,0.237c0,0-0.154,0.051-0.454,0.152c-0.299,0.104-0.741,0.25-1.328,0.431
			c-1.163,0.373-2.889,0.876-5.104,1.428c-2.226,0.55-4.95,1.111-8.112,1.607c-3.162,0.472-6.767,0.858-10.724,0.962
			c-3.957,0.119-8.272-0.051-12.808-0.667c-2.264-0.316-4.583-0.753-6.928-1.327c-2.34-0.587-4.712-1.305-7.068-2.208
			c-4.709-1.801-9.361-4.329-13.579-7.597c-4.22-3.262-7.958-7.288-10.962-11.772c-0.383-0.552-0.749-1.135-1.111-1.718
			c-0.189-0.297-0.353-0.575-0.514-0.854L17.283,85.3l-0.496-0.912c-0.165-0.292-0.326-0.587-0.477-0.889
			c-0.311-0.597-0.611-1.197-0.896-1.806c-1.155-2.423-2.108-4.931-2.87-7.469c-0.75-2.541-1.324-5.113-1.689-7.679
			c-0.189-1.281-0.305-2.563-0.403-3.837c-0.083-1.271-0.136-2.538-0.136-3.793c0-5.018,0.617-9.846,1.753-14.271
			c0.553-2.218,1.217-4.337,1.962-6.347c0.739-2.011,1.55-3.918,2.435-5.693c1.76-3.559,3.722-6.631,5.67-9.19
			c1.965-2.548,3.916-4.573,5.638-6.105c1.726-1.529,3.228-2.552,4.266-3.21c0.529-0.323,0.941-0.562,1.217-0.707
			c0.275-0.152,0.417-0.228,0.417-0.228c0.139-0.075,0.309-0.024,0.384,0.111C34.129,13.405,34.086,13.563,33.969,13.646z"/>
		<linearGradient id="SVGID_5_" gradientUnits="userSpaceOnUse" x1="64.8799" y1="125.0684" x2="90.8542" y2="16.7601">
			<stop  offset="0" style="stop-color:#771B6E"/>
			<stop  offset="0.0139" style="stop-color:#7B1B6D"/>
			<stop  offset="0.1769" style="stop-color:#A91C5D"/>
			<stop  offset="0.322" style="stop-color:#CA1D51"/>
			<stop  offset="0.4426" style="stop-color:#DE1D4B"/>
			<stop  offset="0.5239" style="stop-color:#E51D48"/>
			<stop  offset="0.5896" style="stop-color:#E83649"/>
			<stop  offset="0.7194" style="stop-color:#ED624A"/>
			<stop  offset="0.8358" style="stop-color:#F1824A"/>
			<stop  offset="0.9333" style="stop-color:#F3964B"/>
			<stop  offset="1" style="stop-color:#F49D4B"/>
		</linearGradient>
		<path fill="url(#SVGID_5_)" d="M69.864,13.145c0,0,0.327,0.058,0.939,0.164c0.309,0.058,0.685,0.12,1.129,0.209
			c0.446,0.098,0.963,0.211,1.536,0.336c0.571,0.136,1.193,0.311,1.879,0.493c0.68,0.198,1.414,0.418,2.195,0.675
			c1.555,0.53,3.282,1.226,5.115,2.111c1.829,0.897,3.74,2.033,5.647,3.42c0.234,0.174,0.477,0.351,0.716,0.527
			c0.237,0.183,0.471,0.374,0.705,0.563c0.479,0.373,0.933,0.787,1.394,1.2c0.475,0.408,0.905,0.863,1.363,1.301
			c0.438,0.46,0.892,0.917,1.315,1.406c0.865,0.962,1.677,2.004,2.462,3.086c0.755,1.1,1.485,2.242,2.128,3.444
			c0.649,1.2,1.253,2.437,1.765,3.718c0.513,1.277,0.983,2.583,1.358,3.912c0.383,1.329,0.702,2.674,0.949,4.026
			c0.253,1.351,0.442,2.708,0.557,4.057c0.249,2.699,0.256,5.372,0.047,7.936c-0.208,2.565-0.629,5.021-1.198,7.305
			c-0.573,2.281-1.28,4.397-2.093,6.283c-0.793,1.891-1.693,3.551-2.578,4.965c-0.902,1.403-1.773,2.569-2.577,3.456
			c-0.799,0.893-1.492,1.528-1.982,1.936c-0.244,0.205-0.442,0.349-0.571,0.449c-0.132,0.101-0.2,0.15-0.2,0.15
			c-0.11,0.087-0.27,0.064-0.354-0.046c-0.072-0.095-0.067-0.221,0-0.311l0.006-0.009c0,0,0.203-0.26,0.574-0.749
			c0.18-0.251,0.407-0.55,0.646-0.923c0.252-0.362,0.519-0.795,0.809-1.281c0.566-0.983,1.224-2.189,1.836-3.639
			c0.638-1.438,1.258-3.096,1.822-4.941c0.283-0.92,0.541-1.892,0.794-2.896c0.239-1.011,0.479-2.056,0.675-3.142
			c0.189-1.084,0.385-2.197,0.514-3.346c0.146-1.146,0.263-2.322,0.329-3.517c0.046-0.597,0.062-1.202,0.09-1.807
			c0.01-0.607,0.025-1.221,0.017-1.836c0-1.232-0.056-2.476-0.164-3.725c-0.214-2.497-0.621-5.015-1.287-7.461
			c-0.645-2.454-1.553-4.83-2.658-7.061c-1.112-2.227-2.441-4.301-3.929-6.163c-1.474-1.874-3.144-3.48-4.813-4.915
			c-1.677-1.429-3.409-2.614-5.069-3.616c-1.661-1.005-3.257-1.824-4.705-2.479c-0.724-0.333-1.412-0.624-2.048-0.891
			c-0.647-0.249-1.236-0.493-1.773-0.686c-0.541-0.194-1.025-0.367-1.444-0.519c-0.424-0.146-0.792-0.258-1.085-0.355
			c-0.594-0.195-0.909-0.299-0.909-0.299c-0.143-0.047-0.217-0.198-0.171-0.338C69.608,13.197,69.735,13.122,69.864,13.145z"/>
	</g>
</g>
</svg>
