<?xml version="1.0" encoding="utf-8"?>
<!-- Generator: Adobe Illustrator 26.0.0, SVG Export Plug-In . SVG Version: 6.00 Build 0)  -->
<svg version="1.1" id="Capa_1" xmlns="http://www.w3.org/2000/svg" xmlns:xlink="http://www.w3.org/1999/xlink" x="0px" y="0px"
	 viewBox="0 0 1766 556" style="enable-background:new 0 0 1766 556;" xml:space="preserve">
<style type="text/css">
	.st0{fill:#03C3F5;}
	.st1{fill:#05B6F3;}
	.st2{fill:#0780FE;}
	.st3{fill:#444444;}
</style>
<g>
	<g>
		<g>
			<polyline class="st0" points="226.99,179.62 82.55,535.23 19.67,534.85 195.48,102.07 226.96,24.59 			"/>
			<polyline class="st1" points="226.96,24.59 227.02,24.55 258.5,102.07 434.47,535.23 371.44,535.23 226.99,179.62 			"/>
		</g>
		<g>
			<polyline class="st1" points="484.16,535.01 452.68,463.14 274.53,24.78 337.41,24.4 484.19,385.59 			"/>
			<polyline class="st0" points="484.19,385.59 630.87,24.4 693.9,24.4 515.7,463.14 484.22,535.05 484.16,535.01 			"/>
		</g>
		<polygon class="st2" points="286.16,536.45 223.63,535.23 431.57,24.12 494.23,24.99 		"/>
	</g>
</g>
<g>
	<g>
		<path class="st3" d="M861.83,127.26h-36.81c-0.26-3.04-0.95-5.81-2.06-8.29c-1.11-2.48-2.63-4.62-4.57-6.43
			c-1.94-1.81-4.27-3.2-7.02-4.18c-2.74-0.98-5.85-1.47-9.33-1.47c-6.09,0-11.24,1.48-15.43,4.44c-4.2,2.96-7.38,7.2-9.53,12.73
			c-2.15,5.53-3.23,12.16-3.23,19.9c0,8.18,1.1,15.02,3.3,20.52c2.2,5.5,5.38,9.64,9.56,12.4c4.18,2.76,9.2,4.14,15.08,4.14
			c3.35,0,6.35-0.42,9.01-1.27c2.65-0.85,4.96-2.08,6.92-3.69c1.96-1.61,3.56-3.56,4.8-5.84c1.24-2.28,2.08-4.86,2.51-7.73
			l36.81,0.26c-0.44,5.66-2.02,11.41-4.76,17.26c-2.74,5.85-6.62,11.25-11.65,16.18c-5.02,4.94-11.24,8.91-18.63,11.91
			s-15.99,4.5-25.78,4.5c-12.27,0-23.27-2.63-32.99-7.9c-9.72-5.26-17.4-13.01-23.04-23.23c-5.63-10.22-8.45-22.73-8.45-37.52
			c0-14.88,2.87-27.42,8.62-37.62c5.74-10.2,13.49-17.92,23.23-23.17c9.75-5.24,20.62-7.86,32.63-7.86c8.44,0,16.21,1.15,23.3,3.46
			c7.09,2.31,13.31,5.67,18.66,10.08c5.35,4.42,9.66,9.84,12.92,16.28C859.15,111.57,861.13,118.95,861.83,127.26z"/>
		<path class="st3" d="M878.27,210.79V77.14h57.69c9.92,0,18.6,1.81,26.04,5.42c7.44,3.61,13.23,8.81,17.36,15.6
			c4.13,6.79,6.2,14.92,6.2,24.41c0,9.57-2.12,17.64-6.36,24.21c-4.24,6.57-10.18,11.53-17.82,14.88
			c-7.63,3.35-16.54,5.03-26.72,5.03H900.2v-28.19h27.15c4.26,0,7.91-0.53,10.93-1.6c3.02-1.07,5.35-2.77,6.98-5.12
			c1.63-2.35,2.45-5.42,2.45-9.2c0-3.83-0.82-6.95-2.45-9.36c-1.63-2.41-3.96-4.2-6.98-5.35c-3.02-1.15-6.67-1.73-10.93-1.73h-12.79
			v104.68H878.27z M956.59,149.45L990,210.79h-39.42l-32.63-61.34H956.59z"/>
		<path class="st3" d="M1000.96,210.79V77.14h96.32v29.24h-60.04v22.97h55.08v29.24h-55.08v22.97h59.78v29.24H1000.96z"/>
		<path class="st3" d="M1150.01,210.79h-39.16l44.12-133.65h49.6l44.12,133.65h-39.16l-29.24-96.85h-1.04L1150.01,210.79z
			 M1142.7,158.06h73.61v27.15h-73.61V158.06z"/>
		<path class="st3" d="M1257.82,106.38V77.14h116.16v29.24h-40.2v104.42h-35.76V106.38H1257.82z"/>
		<path class="st3" d="M1423.84,77.14v133.65h-36.29V77.14H1423.84z"/>
		<path class="st3" d="M1477.61,77.14l27.41,94.24h1.04l27.41-94.24h40.98l-44.12,133.65h-49.6l-44.12-133.65H1477.61z"/>
		<path class="st3" d="M1587.25,210.79V77.14h96.32v29.24h-60.04v22.97h55.08v29.24h-55.08v22.97h59.78v29.24H1587.25z"/>
		<path class="st3" d="M788.48,431.32h-51.42V297.67h50.9c13.75,0,25.64,2.67,35.66,7.99c10.03,5.33,17.77,12.99,23.23,22.97
			s8.19,21.94,8.19,35.86c0,13.92-2.72,25.88-8.16,35.86c-5.44,9.98-13.14,17.64-23.1,22.97
			C813.82,428.65,802.05,431.32,788.48,431.32z M773.34,400.52h13.83c6.61,0,12.26-1.07,16.93-3.2c4.68-2.13,8.24-5.81,10.7-11.03
			c2.46-5.22,3.69-12.49,3.69-21.8c0-9.31-1.25-16.58-3.75-21.8c-2.5-5.22-6.16-8.9-10.96-11.03c-4.81-2.13-10.69-3.2-17.65-3.2
			h-12.79V400.52z"/>
		<path class="st3" d="M871.75,431.32V297.67h96.32v29.24h-60.04v22.97h55.08v29.24h-55.08v22.97h59.78v29.24H871.75z"/>
		<path class="st3" d="M1058.13,339.43c-0.35-4.35-1.97-7.74-4.86-10.18c-2.89-2.44-7.28-3.65-13.15-3.65
			c-3.74,0-6.8,0.45-9.17,1.34c-2.37,0.89-4.12,2.1-5.25,3.62c-1.13,1.52-1.72,3.26-1.76,5.22c-0.09,1.61,0.21,3.06,0.88,4.34
			c0.67,1.28,1.75,2.44,3.23,3.46c1.48,1.02,3.37,1.95,5.68,2.77c2.31,0.83,5.05,1.57,8.22,2.22l10.96,2.35
			c7.4,1.57,13.73,3.63,18.99,6.2c5.26,2.57,9.57,5.58,12.92,9.04c3.35,3.46,5.82,7.34,7.41,11.65c1.59,4.31,2.4,9.01,2.45,14.1
			c-0.04,8.79-2.24,16.23-6.59,22.32c-4.35,6.09-10.56,10.73-18.63,13.9c-8.07,3.18-17.76,4.76-29.07,4.76
			c-11.62,0-21.74-1.72-30.38-5.16c-8.64-3.44-15.34-8.73-20.1-15.89c-4.76-7.16-7.17-16.33-7.21-27.51h34.46
			c0.22,4.09,1.24,7.53,3.07,10.31c1.83,2.78,4.41,4.89,7.73,6.33c3.33,1.44,7.3,2.15,11.91,2.15c3.87,0,7.11-0.48,9.72-1.44
			c2.61-0.96,4.59-2.28,5.94-3.98s2.04-3.63,2.09-5.81c-0.04-2.04-0.71-3.84-1.99-5.38c-1.28-1.54-3.38-2.94-6.3-4.18
			c-2.92-1.24-6.85-2.4-11.81-3.49l-13.31-2.87c-11.83-2.57-21.16-6.86-27.96-12.89c-6.81-6.03-10.19-14.26-10.15-24.7
			c-0.04-8.48,2.23-15.91,6.82-22.29c4.59-6.37,10.96-11.34,19.12-14.91c8.16-3.57,17.52-5.35,28.09-5.35
			c10.79,0,20.12,1.81,28,5.42c7.87,3.61,13.95,8.69,18.24,15.24c4.28,6.55,6.45,14.19,6.49,22.94H1058.13z"/>
		<path class="st3" d="M1144.79,297.67v133.65h-36.29V297.67H1144.79z"/>
		<path class="st3" d="M1248.81,341.78c-0.57-2.31-1.46-4.34-2.68-6.1c-1.22-1.76-2.73-3.26-4.54-4.5
			c-1.81-1.24-3.89-2.18-6.26-2.81c-2.37-0.63-4.97-0.95-7.8-0.95c-6.09,0-11.28,1.46-15.56,4.37c-4.29,2.92-7.55,7.11-9.79,12.59
			c-2.24,5.48-3.36,12.1-3.36,19.84c0,7.83,1.07,14.53,3.2,20.1c2.13,5.57,5.31,9.83,9.53,12.79c4.22,2.96,9.46,4.44,15.73,4.44
			c5.53,0,10.13-0.8,13.8-2.41c3.68-1.61,6.43-3.89,8.26-6.85c1.83-2.96,2.74-6.44,2.74-10.44l6.26,0.65h-30.54v-25.84h59.26v18.53
			c0,12.18-2.58,22.59-7.73,31.23c-5.16,8.64-12.25,15.25-21.28,19.84c-9.03,4.59-19.37,6.88-31.03,6.88
			c-13.01,0-24.43-2.76-34.26-8.29c-9.83-5.52-17.5-13.4-23-23.62c-5.5-10.22-8.26-22.38-8.26-36.48c0-11.05,1.69-20.84,5.06-29.37
			c3.37-8.53,8.06-15.74,14.06-21.63c6-5.89,12.94-10.35,20.82-13.38c7.87-3.02,16.32-4.54,25.32-4.54c7.92,0,15.28,1.12,22.09,3.36
			c6.81,2.24,12.83,5.42,18.08,9.53c5.24,4.11,9.47,8.97,12.69,14.59c3.22,5.61,5.18,11.77,5.87,18.47H1248.81z"/>
		<path class="st3" d="M1419.66,297.67v133.65h-30.28l-48.29-70.22h-0.78v70.22h-36.29V297.67h30.8l47.51,69.96h1.04v-69.96H1419.66
			z"/>
	</g>
</g>
</svg>
